<svg width="42" height="42" viewBox="0 0 42 42" fill="none" xmlns="http://www.w3.org/2000/svg">
<path d="M8.66674 40.8603L1.04168 16.7414C1.01663 16.6622 1.04319 16.5757 1.10839 16.5242L20.6366 1.09677C20.7086 1.0399 20.8101 1.0393 20.8827 1.09533L40.8909 16.5256C40.9566 16.5763 40.9842 16.6623 40.9603 16.7417L33.6903 40.8577C33.6649 40.9422 33.5871 41 33.4988 41H8.85743C8.7702 41 8.69303 40.9435 8.66674 40.8603Z" fill="#F7F7F7" stroke="#402723" stroke-width="0.2" stroke-linejoin="round"/>
<path d="M2.00006 16.8293L9.32536 40H33.0151L40.0001 16.8293L20.7711 2L2.00006 16.8293Z" fill="#00AFEC" stroke="#402723" stroke-width="0.3" stroke-linejoin="round"/>
<path fill-rule="evenodd" clip-rule="evenodd" d="M19.9506 14.2096C20.0334 14.3379 20.2268 14.4534 20.3648 14.4534L21.0001 14.5432L20.7239 15.3515C20.572 15.8005 20.4546 16.13 20.496 16.1684L20.1853 16.2647C20.1853 16.2647 20.1335 16.3128 18.9425 16.519C14.8413 17.571 12.5075 20.2908 11.8723 24.7427L11.7066 26H10.3533H9.00006V25.1019V24.2039H9.46957C9.9805 24.2039 10.1048 24.0114 10.1048 23.1647C10.1048 22.7926 10.0357 22.6771 9.75955 22.5617L9.41433 22.4077L9.70432 21.7406C10.0772 20.8554 10.2153 20.7142 10.5052 20.8682C10.6986 20.958 10.8367 20.8553 11.2647 20.2652L11.7757 19.5339L11.4166 19.2773L11.0576 19.0079L11.8447 18.1355L12.6318 17.2759L12.9494 17.5325L13.2532 17.8019L13.5708 17.5068C13.7503 17.3401 14.0541 17.1091 14.2337 16.9808C14.5651 16.7756 14.5651 16.7627 14.3165 16.5061C14.2174 16.4052 14.1505 16.3418 14.1468 16.2754C14.1398 16.1476 14.3668 16.0086 15.0484 15.5696C15.8769 15.0179 15.946 15.0051 16.1945 15.3515C16.3842 15.6032 16.4011 15.5956 17.1317 15.2682C17.1459 15.2619 17.1603 15.2554 17.175 15.2488C17.8378 14.9538 17.9621 14.8511 17.9621 14.556C17.9759 14.2481 18.0311 14.2096 18.6387 14.1327C18.9978 14.0942 19.3982 14.03 19.5363 14.0044C19.6744 13.9787 19.8539 14.0685 19.9506 14.2096Z" fill="#009953" stroke="#313A39" stroke-width="0.1"/>
<path d="M30.3371 25.9502L30.1779 24.7363L30.1769 24.7354C29.8583 22.5026 29.1138 20.7 27.9308 19.3232C26.7476 17.9463 25.1291 16.9988 23.0705 16.4707L23.0666 16.4697C22.4715 16.3667 22.1616 16.3031 22.0012 16.2656C21.9211 16.2469 21.8791 16.2346 21.8576 16.2275C21.8504 16.2252 21.8456 16.2237 21.843 16.2227L21.841 16.2207L21.8293 16.2168L21.5627 16.1348C21.5625 16.118 21.5603 16.099 21.5568 16.0791C21.5487 16.0327 21.5326 15.9714 21.5109 15.8994C21.4675 15.7551 21.3991 15.5596 21.3234 15.3359V15.335L21.0666 14.585L21.6428 14.5029C21.7222 14.501 21.811 14.4689 21.8889 14.4229C21.969 14.3754 22.0442 14.31 22.091 14.2383C22.1342 14.1752 22.1968 14.1222 22.2639 14.0889C22.3313 14.0555 22.3999 14.0434 22.4553 14.0537C22.5949 14.0796 22.9966 14.144 23.3566 14.1826H23.3557C23.5073 14.2018 23.6226 14.2186 23.7111 14.2373C23.8001 14.2562 23.8576 14.2758 23.8957 14.2998C23.9314 14.3223 23.952 14.3491 23.965 14.3867C23.979 14.4273 23.985 14.4817 23.9885 14.5586C23.9886 14.6346 23.9967 14.7025 24.0217 14.7656C24.0471 14.8301 24.0888 14.8865 24.1506 14.9404C24.2109 14.993 24.2923 15.0445 24.3996 15.1016L24.8049 15.2949C24.8194 15.3014 24.8339 15.3072 24.8478 15.3135C25.0298 15.395 25.1691 15.4577 25.2775 15.501C25.3852 15.5439 25.468 15.5707 25.5353 15.5771C25.6061 15.5839 25.6617 15.5688 25.7121 15.5312C25.7586 15.4966 25.7996 15.4433 25.8459 15.3818V15.3809C25.9085 15.2936 25.9554 15.2356 26.0021 15.2021C26.0447 15.1717 26.0886 15.161 26.1516 15.1729C26.2186 15.1856 26.3069 15.2241 26.4328 15.2969C26.5581 15.3693 26.7167 15.4733 26.924 15.6113H26.925C27.2669 15.8315 27.4918 15.9749 27.631 16.0791C27.7007 16.1313 27.7457 16.1721 27.7726 16.2051C27.7988 16.2372 27.8046 16.2576 27.8039 16.2725C27.8029 16.2897 27.7934 16.3123 27.7658 16.3467C27.7382 16.3809 27.6984 16.4191 27.6476 16.4707V16.4717C27.5865 16.5348 27.5372 16.5862 27.5051 16.6299C27.4734 16.673 27.4495 16.7201 27.4582 16.7715C27.4668 16.8212 27.5039 16.8603 27.548 16.8955C27.5935 16.9317 27.6585 16.9727 27.7404 17.0234C27.9198 17.1518 28.2195 17.3803 28.3957 17.5439L28.7131 17.8389L28.7463 17.8691L28.7805 17.8389L29.0842 17.5703L29.3635 17.3447L30.1183 18.1689L30.8693 19.001L30.5549 19.2363L30.1955 19.4932L30.1555 19.5225L30.1838 19.5625L30.6945 20.2939L30.6955 20.2949C30.9086 20.5886 31.0535 20.7681 31.1721 20.8613C31.2324 20.9088 31.2901 20.9365 31.3488 20.9443C31.4077 20.9521 31.4623 20.9389 31.5158 20.9141L31.5187 20.9121C31.5879 20.8754 31.6406 20.8611 31.6857 20.8652C31.729 20.8692 31.7743 20.8911 31.8273 20.9482C31.8814 21.0066 31.9407 21.0984 32.0099 21.2324C32.0789 21.3659 32.1572 21.539 32.2502 21.7598V21.7607L32.5207 22.3828L32.2209 22.5166C32.0801 22.5756 31.9811 22.6382 31.9211 22.7422C31.8623 22.8443 31.8459 22.9783 31.8459 23.165C31.8459 23.3774 31.8531 23.5509 31.8732 23.6914C31.8933 23.8317 31.9261 23.9431 31.9787 24.0283C32.0879 24.2053 32.2708 24.2539 32.5305 24.2539H32.9504V25.9502H30.3371ZM21.8449 16.2246L21.8469 16.2256L21.8478 16.2266V16.2275L21.8488 16.2285L21.8449 16.2246Z" fill="#009953" stroke="#313A39" stroke-width="0.1"/>
<rect x="11.0001" y="16" width="20" height="20" rx="10" fill="#2DF83B"/>
<g clip-path="url(#clip0_1340_5598)">
<mask id="path-6-inside-1_1340_5598" fill="white">
<path d="M11.0001 26C11.0001 20.4772 15.4772 16 21.0001 16V16C26.5229 16 31.0001 20.4772 31.0001 26V26H11.0001V26Z"/>
</mask>
<path d="M11.0001 26C11.0001 20.4772 15.4772 16 21.0001 16V16C26.5229 16 31.0001 20.4772 31.0001 26V26H11.0001V26Z" fill="#2DF83B"/>
<mask id="path-8-inside-2_1340_5598" fill="white">
<path d="M20.0001 16H21.0001C26.5229 16 31.0001 20.4772 31.0001 26V26H20.0001V16Z"/>
</mask>
<path d="M20.0001 16H21.0001C26.5229 16 31.0001 20.4772 31.0001 26V26H20.0001V16Z" fill="#2DF83B"/>
<path d="M20.0001 16H31.0001H20.0001ZM31.0001 26H20.0001H31.0001ZM20.0001 26V16V26ZM21.1001 16C26.6229 16 31.1001 20.4772 31.1001 26H30.9001C30.9001 20.4772 26.4677 16 21.0001 16H21.1001Z" fill="#313A39" mask="url(#path-8-inside-2_1340_5598)"/>
<mask id="path-10-inside-3_1340_5598" fill="white">
<path d="M22.0001 16H21.0001C15.4772 16 11.0001 20.4772 11.0001 26V26H22.0001V16Z"/>
</mask>
<path d="M22.0001 16H21.0001C15.4772 16 11.0001 20.4772 11.0001 26V26H22.0001V16Z" fill="#2DF83B"/>
<path d="M22.0001 16H11.0001H22.0001ZM11.0001 26H22.0001H11.0001ZM22.0001 26V16V26ZM20.9001 16C15.3772 16 10.9001 20.4772 10.9001 26H11.1001C11.1001 20.4772 15.5324 16 21.0001 16H20.9001Z" fill="#313A39" mask="url(#path-10-inside-3_1340_5598)"/>
</g>
<path d="M11.0001 25.9C11.0001 20.3772 15.4772 15.9 21.0001 15.9C26.5229 15.9 31.0001 20.3772 31.0001 25.9V26C31.0001 20.5324 26.5229 16.1 21.0001 16.1C15.4772 16.1 11.0001 20.5324 11.0001 26V25.9ZM31.0001 26H11.0001H31.0001ZM11.0001 26V16V26ZM31.0001 16V26V16Z" fill="#313A39" mask="url(#path-6-inside-1_1340_5598)"/>
<path d="M23.0001 17L21.0001 15L19.0001 17H23.0001Z" fill="#2DF83B"/>
<path d="M21.0001 11.2865L21.5614 13.3594H23.3777L21.9083 14.6406L22.4695 16.7135L21.0001 15.4324L19.5306 16.7135L20.0919 14.6406L18.6224 13.3594H20.4388L21.0001 11.2865Z" fill="#FFF000"/>
<path d="M21.5131 13.3724L21.5228 13.4095H23.2445L21.8754 14.6029L21.8519 14.6234L21.8597 14.6537L22.3773 16.5677L21.0326 15.3949L21.0004 15.3656L20.9672 15.3949L19.6215 16.5677L20.14 14.6537L20.1488 14.6234L20.1244 14.6029L18.7562 13.4095H20.4769L20.4867 13.3724L20.9994 11.4769L21.5131 13.3724Z" stroke="#4E281C" stroke-width="0.1"/>
<path d="M27.0002 33H15.0002V32L18.2729 30L19.3638 17.5L21.0002 16L22.6365 17.5L23.7275 30L27.0002 32V33Z" fill="#FEFEFE" stroke="#54493D" stroke-width="0.1"/>
<path d="M18.4353 19.0175C18.3137 19.0175 18.2037 18.9967 18.1053 18.955C18.0087 18.9133 17.932 18.8533 17.8753 18.775C17.8187 18.6967 17.7895 18.6042 17.7878 18.4975H18.1628C18.1678 18.5692 18.1928 18.6258 18.2378 18.6675C18.2845 18.7092 18.3478 18.73 18.4278 18.73C18.5095 18.73 18.5737 18.7108 18.6203 18.6725C18.667 18.6325 18.6903 18.5808 18.6903 18.5175C18.6903 18.4658 18.6745 18.4233 18.6428 18.39C18.6112 18.3567 18.5712 18.3308 18.5228 18.3125C18.4762 18.2925 18.4112 18.2708 18.3278 18.2475C18.2145 18.2142 18.122 18.1817 18.0503 18.15C17.9803 18.1167 17.9195 18.0675 17.8678 18.0025C17.8178 17.9358 17.7928 17.8475 17.7928 17.7375C17.7928 17.6342 17.8187 17.5442 17.8703 17.4675C17.922 17.3908 17.9945 17.3325 18.0878 17.2925C18.1812 17.2508 18.2878 17.23 18.4078 17.23C18.5878 17.23 18.7337 17.2742 18.8453 17.3625C18.9587 17.4492 19.0212 17.5708 19.0328 17.7275H18.6478C18.6445 17.6675 18.6187 17.6183 18.5703 17.58C18.5237 17.54 18.4612 17.52 18.3828 17.52C18.3145 17.52 18.2595 17.5375 18.2178 17.5725C18.1778 17.6075 18.1578 17.6583 18.1578 17.725C18.1578 17.7717 18.1728 17.8108 18.2028 17.8425C18.2345 17.8725 18.2728 17.8975 18.3178 17.9175C18.3645 17.9358 18.4295 17.9575 18.5128 17.9825C18.6262 18.0158 18.7187 18.0492 18.7903 18.0825C18.862 18.1158 18.9237 18.1658 18.9753 18.2325C19.027 18.2992 19.0528 18.3867 19.0528 18.495C19.0528 18.5883 19.0287 18.675 18.9803 18.755C18.932 18.835 18.8612 18.8992 18.7678 18.9475C18.6745 18.9942 18.5637 19.0175 18.4353 19.0175ZM21.8838 17.255V19H21.5338V17.865L21.0663 19H20.8013L20.3313 17.865V19H19.9813V17.255H20.3788L20.9338 18.5525L21.4888 17.255H21.8838ZM23.8398 19L23.2048 18.2225V19H22.8548V17.255H23.2048V18.0375L23.8398 17.255H24.2623L23.5423 18.12L24.2823 19H23.8398Z" fill="#FF0006"/>
<path d="M20.5249 21.105C20.6849 20.9717 20.8124 20.8608 20.9074 20.7725C21.0024 20.6825 21.0816 20.5892 21.1449 20.4925C21.2082 20.3958 21.2399 20.3008 21.2399 20.2075C21.2399 20.1225 21.2199 20.0558 21.1799 20.0075C21.1399 19.9592 21.0782 19.935 20.9949 19.935C20.9116 19.935 20.8474 19.9633 20.8024 20.02C20.7574 20.075 20.7341 20.1508 20.7324 20.2475H20.3924C20.3991 20.0475 20.4582 19.8958 20.5699 19.7925C20.6832 19.6892 20.8266 19.6375 20.9999 19.6375C21.1899 19.6375 21.3357 19.6883 21.4374 19.79C21.5391 19.89 21.5899 20.0225 21.5899 20.1875C21.5899 20.3175 21.5549 20.4417 21.4849 20.56C21.4149 20.6783 21.3349 20.7817 21.2449 20.87C21.1549 20.9567 21.0374 21.0617 20.8924 21.185H21.6299V21.475H20.3949V21.215L20.5249 21.105Z" fill="#FF0006"/>
<path d="M20.9464 32.9463L21.2471 32.9043L21.838 32.8047L22.1563 32.6338L22.2833 32.5654C22.2991 32.5569 22.3199 32.5462 22.3477 32.5312V32.5303L22.3536 32.5273L23.127 32.1123L24.2227 31.2607C24.2234 31.2588 24.224 31.2568 24.2247 31.2549V31.2539C24.2391 31.2117 24.2576 31.1176 24.2784 30.9795C24.299 30.8427 24.3216 30.6664 24.3438 30.4639C24.3883 30.0585 24.4325 29.5474 24.4649 29.0332C24.4974 28.5099 24.5505 28.0008 24.6075 27.6006C24.6359 27.4007 24.6657 27.2275 24.6944 27.0928C24.7225 26.9609 24.7508 26.8589 24.7794 26.8076L24.7803 26.8057C24.8771 26.6506 24.9296 26.5372 24.9454 26.4648C24.9533 26.4283 24.9495 26.4095 24.9464 26.4023C24.9453 26.4 24.9437 26.3967 24.9317 26.3955C24.9155 26.3939 24.888 26.3978 24.8467 26.4131C24.8063 26.4281 24.7568 26.4526 24.6983 26.4873C24.5814 26.5566 24.4322 26.6647 24.2549 26.8125C24.0201 27.0081 23.9047 27.1235 23.8428 27.3027C23.7793 27.4871 23.7706 27.743 23.7706 28.2246C23.7705 28.7503 23.705 29.3588 23.6133 29.8525C23.5675 30.0993 23.5149 30.3186 23.46 30.4854C23.4326 30.5686 23.4041 30.6407 23.3751 30.6963C23.3472 30.7496 23.3148 30.7955 23.2764 30.8193V30.8203L23.2735 30.8223L23.2452 30.8301C23.2349 30.8311 23.2239 30.8301 23.213 30.8262C23.1935 30.819 23.1806 30.8044 23.1719 30.792C23.1552 30.7678 23.1438 30.7333 23.1358 30.6963C23.1194 30.6198 23.1106 30.5064 23.1065 30.3691C23.0983 30.0933 23.1113 29.7095 23.1397 29.3037C23.1682 28.8975 23.2118 28.4671 23.2647 28.0996C23.3173 27.7347 23.3798 27.4253 23.4473 27.2627C23.5137 27.0922 23.6122 26.908 23.7149 26.75C23.7914 26.6322 23.8721 26.5265 23.9444 26.4512L24.0137 26.3867C24.1006 26.3161 24.1791 26.2387 24.2354 26.1709C24.2637 26.1369 24.2853 26.1055 24.2999 26.0801C24.3061 26.0692 24.3087 26.0598 24.3116 26.0527C24.2925 26.0529 24.2637 26.0547 24.2247 26.0645C24.1323 26.0876 24.0014 26.1366 23.8546 26.2041C23.5609 26.339 23.2127 26.5408 22.9903 26.7256L22.9893 26.7266L22.6339 27.0029C22.6336 27.0075 22.6341 27.0127 22.6339 27.0186C22.6326 27.0446 22.6306 27.083 22.628 27.1318C22.6228 27.2296 22.615 27.37 22.6036 27.541C22.5807 27.883 22.5441 28.3474 22.4893 28.8369C22.4345 29.3264 22.361 29.8425 22.2647 30.2861C22.169 30.7268 22.0493 31.1055 21.8965 31.3145C21.603 31.7157 21.3068 32.0287 21.0499 32.2178C20.9219 32.3118 20.8009 32.3772 20.6924 32.4062C20.6242 32.4244 20.5585 32.4269 20.4991 32.4131L20.5889 32.8066C20.6069 32.8475 20.6281 32.8757 20.6524 32.8965C20.6771 32.9175 20.7091 32.9337 20.7559 32.9424C20.8045 32.9514 20.8664 32.9526 20.9464 32.9463Z" fill="#FF141E" stroke="#392C21" stroke-width="0.1"/>
<path d="M21.054 32.9463L20.7532 32.9043L20.1624 32.8047L19.8441 32.6338L19.7171 32.5654C19.7013 32.5569 19.6805 32.5462 19.6526 32.5312V32.5303L19.6468 32.5273L18.8734 32.1123L17.7776 31.2607C17.777 31.2588 17.7764 31.2568 17.7757 31.2549V31.2539C17.7612 31.2117 17.7428 31.1176 17.722 30.9795C17.7014 30.8427 17.6788 30.6664 17.6566 30.4639C17.6121 30.0585 17.5678 29.5474 17.5355 29.0332C17.503 28.5099 17.4498 28.0008 17.3929 27.6006C17.3644 27.4007 17.3346 27.2275 17.306 27.0928C17.2779 26.9609 17.2495 26.8589 17.221 26.8076L17.22 26.8057C17.1233 26.6506 17.0708 26.5372 17.055 26.4648C17.0471 26.4283 17.0508 26.4095 17.054 26.4023C17.055 26.4 17.0566 26.3967 17.0687 26.3955C17.0849 26.3939 17.1124 26.3978 17.1536 26.4131C17.194 26.4281 17.2436 26.4526 17.3021 26.4873C17.419 26.5566 17.5682 26.6647 17.7454 26.8125C17.9802 27.0081 18.0956 27.1235 18.1575 27.3027C18.2211 27.4871 18.2298 27.743 18.2298 28.2246C18.2298 28.7503 18.2954 29.3588 18.387 29.8525C18.4328 30.0993 18.4855 30.3186 18.5403 30.4854C18.5678 30.5686 18.5963 30.6407 18.6253 30.6963C18.6532 30.7496 18.6855 30.7955 18.7239 30.8193V30.8203L18.7269 30.8223L18.7552 30.8301C18.7655 30.8311 18.7765 30.8301 18.7874 30.8262C18.8069 30.819 18.8198 30.8044 18.8284 30.792C18.8452 30.7678 18.8566 30.7333 18.8646 30.6963C18.881 30.6198 18.8898 30.5064 18.8939 30.3691C18.902 30.0933 18.8891 29.7095 18.8607 29.3037C18.8322 28.8975 18.7886 28.4671 18.7357 28.0996C18.6831 27.7347 18.6206 27.4253 18.553 27.2627C18.4867 27.0922 18.3881 26.908 18.2855 26.75C18.2089 26.6322 18.1283 26.5265 18.056 26.4512L17.9866 26.3867C17.8998 26.3161 17.8213 26.2387 17.765 26.1709C17.7367 26.1369 17.7151 26.1055 17.7005 26.0801C17.6943 26.0692 17.6917 26.0598 17.6888 26.0527C17.7078 26.0529 17.7367 26.0547 17.7757 26.0645C17.8681 26.0876 17.999 26.1366 18.1458 26.2041C18.4394 26.339 18.7876 26.5408 19.0101 26.7256L19.011 26.7266L19.3665 27.0029C19.3667 27.0075 19.3662 27.0127 19.3665 27.0186C19.3677 27.0446 19.3698 27.083 19.3724 27.1318C19.3775 27.2296 19.3854 27.37 19.3968 27.541C19.4196 27.883 19.4562 28.3474 19.511 28.8369C19.5659 29.3264 19.6394 29.8425 19.7357 30.2861C19.8313 30.7268 19.9511 31.1055 20.1038 31.3145C20.3974 31.7157 20.6936 32.0287 20.9505 32.2178C21.0784 32.3118 21.1994 32.3772 21.3079 32.4062C21.3762 32.4244 21.4419 32.4269 21.5013 32.4131L21.4114 32.8066C21.3935 32.8475 21.3723 32.8757 21.348 32.8965C21.3233 32.9175 21.2912 32.9337 21.2444 32.9424C21.1958 32.9514 21.134 32.9526 21.054 32.9463Z" fill="#FF141E" stroke="#392C21" stroke-width="0.1"/>
<path d="M21.3857 32.2117C21.4677 32.3875 21.6153 32.4146 22.1075 32.3334L22.7145 32.2387L22.37 32.5634C22.1731 32.7257 21.8614 33.1315 21.6646 33.4562C21.4185 33.8485 21.2052 34.0244 21.0248 33.9973C20.8771 33.9702 20.4342 33.5644 20.0241 33.091L19.2859 32.2252L19.9913 32.3064C20.4998 32.3605 20.7131 32.3334 20.7787 32.1846C20.8935 31.9276 21.2544 31.9411 21.3857 32.2117Z" fill="#FF141E"/>
<path d="M21.3857 32.2117C21.4677 32.3875 21.6153 32.4146 22.1075 32.3334L22.7145 32.2387L22.37 32.5634C22.1731 32.7257 21.8614 33.1315 21.6646 33.4562C21.4185 33.8485 21.2052 34.0244 21.0248 33.9973C20.8771 33.9702 20.4342 33.5644 20.0241 33.091L19.2859 32.2252L19.9913 32.3064C20.4998 32.3605 20.7131 32.3334 20.7787 32.1846C20.8935 31.9276 21.2544 31.9411 21.3857 32.2117Z" fill="#FF141E"/>
<path d="M21.3857 32.2117C21.4677 32.3875 21.6153 32.4146 22.1075 32.3334L22.7145 32.2387L22.37 32.5634C22.1731 32.7257 21.8614 33.1315 21.6646 33.4562C21.4185 33.8485 21.2052 34.0244 21.0248 33.9973C20.8771 33.9702 20.4342 33.5644 20.0241 33.091L19.2859 32.2252L19.9913 32.3064C20.4998 32.3605 20.7131 32.3334 20.7787 32.1846C20.8935 31.9276 21.2544 31.9411 21.3857 32.2117Z" stroke="#392C21" stroke-width="0.2"/>
<path d="M16.9338 21.7197C17.0089 22.6249 16.8184 23.4596 16.3898 24.2344C15.9175 25.0884 15.8939 25.9518 16.1652 26.8916C16.374 27.6147 16.2361 28.4282 15.9553 28.9775L15.9474 28.9932L15.9514 29.0117C15.9996 29.2206 16.0565 29.4181 16.1164 29.6094L16.4865 30.7197C16.5157 30.8124 16.5441 30.9059 16.5705 31.001L16.6447 31.292C16.7181 31.6433 16.7756 31.8911 16.8166 32.1426C16.8282 32.2139 16.8445 32.3034 16.8517 32.3809C16.8554 32.4196 16.8563 32.4524 16.8537 32.4766C16.8524 32.4884 16.8506 32.4963 16.8488 32.501C16.8469 32.5058 16.8468 32.5037 16.8508 32.501C16.792 32.5417 16.7035 32.5826 16.6203 32.6045C16.5788 32.6154 16.5401 32.6217 16.509 32.6211C16.4771 32.6205 16.4592 32.6127 16.4504 32.6055C16.2539 32.4433 16.1163 32.1966 15.9572 31.9092C15.9686 31.4351 16.0106 31.0055 15.9562 30.5928C15.9399 30.469 15.8786 30.3549 15.8107 30.249C15.7403 30.1392 15.6669 30.0432 15.6076 29.9385L15.5861 29.9014L15.5471 29.916L15.3127 29.998L15.3185 30.0381C15.3834 30.4965 15.3262 30.8894 15.1701 31.2236C15.014 31.5579 14.7574 31.8371 14.4162 32.0654C13.9375 32.3856 13.5934 32.7428 12.9641 32.9023C11.4936 33.2748 10.3918 32.3296 9.4201 31.2354C9.15251 30.9339 9.03152 30.6326 9.05292 30.3057C9.07458 29.9762 9.24149 29.6119 9.56952 29.1875C9.93657 28.7127 10.4001 28.3294 10.8586 27.8652C11.5412 27.424 12.1018 27.2522 12.717 27.3633C13.3373 27.4754 14.0223 27.8772 14.9484 28.6084L14.9865 28.6387L15.0178 28.6006C15.3857 28.1549 15.5897 27.5278 15.6271 26.8945C15.6645 26.2614 15.5354 25.6156 15.2277 25.1309C14.5061 23.9944 14.1487 22.8202 14.6691 21.4521C14.7736 21.1776 14.8272 20.8824 14.8674 20.5879C14.9042 20.3173 14.9309 20.0516 14.9709 19.7939C15.1461 19.9137 15.2603 20.095 15.3176 20.3477C15.3819 20.6316 15.3743 21.0027 15.3029 21.4678C15.1964 22.1622 15.22 22.878 15.2883 23.584L15.3039 23.7451L15.382 23.6035C16.0234 22.4414 16.0541 21.2046 15.8996 19.96C15.7978 19.1395 15.7305 18.3447 16.131 17.6133C16.1871 17.5109 16.2664 17.4206 16.3586 17.3281C16.426 17.2605 16.4999 17.1875 16.5754 17.1113C16.6995 18.7217 16.8095 20.2215 16.9338 21.7197Z" fill="#F8E801" stroke="#5D4623" stroke-width="0.1"/>
<path d="M25.0666 21.7197C24.9915 22.6249 25.1819 23.4596 25.6105 24.2344C26.0829 25.0884 26.1065 25.9518 25.8351 26.8916C25.6264 27.6147 25.7643 28.4282 26.0451 28.9775L26.0529 28.9932L26.049 29.0117C26.0007 29.2206 25.9439 29.4181 25.884 29.6094L25.5139 30.7197C25.4847 30.8124 25.4563 30.9059 25.4299 31.001L25.3557 31.292C25.2823 31.6433 25.2248 31.8911 25.1838 32.1426C25.1722 32.2139 25.1559 32.3034 25.1486 32.3809C25.145 32.4196 25.1441 32.4524 25.1467 32.4766C25.1479 32.4884 25.1498 32.4963 25.1516 32.501C25.1534 32.5058 25.1536 32.5037 25.1496 32.501C25.2083 32.5417 25.2968 32.5826 25.3801 32.6045C25.4216 32.6154 25.4603 32.6217 25.4914 32.6211C25.5233 32.6205 25.5412 32.6127 25.55 32.6055C25.7464 32.4433 25.8841 32.1966 26.0432 31.9092C26.0317 31.4351 25.9898 31.0055 26.0441 30.5928C26.0604 30.469 26.1218 30.3549 26.1896 30.249C26.2601 30.1392 26.3334 30.0432 26.3928 29.9385L26.4142 29.9014L26.4533 29.916L26.6877 29.998L26.6818 30.0381C26.617 30.4965 26.6742 30.8894 26.8303 31.2236C26.9863 31.5579 27.2429 31.8371 27.5842 32.0654C28.0629 32.3856 28.4069 32.7428 29.0363 32.9023C30.5068 33.2748 31.6085 32.3296 32.5803 31.2354C32.8479 30.9339 32.9688 30.6326 32.9474 30.3057C32.9258 29.9762 32.7589 29.6119 32.4308 29.1875C32.0638 28.7127 31.6003 28.3294 31.1418 27.8652C30.4592 27.424 29.8986 27.2522 29.2834 27.3633C28.6631 27.4754 27.9781 27.8772 27.0519 28.6084L27.0139 28.6387L26.9826 28.6006C26.6147 28.1549 26.4107 27.5278 26.3732 26.8945C26.3358 26.2614 26.465 25.6156 26.7726 25.1309C27.4943 23.9944 27.8517 22.8202 27.3312 21.4521C27.2268 21.1776 27.1731 20.8824 27.133 20.5879C27.0961 20.3173 27.0694 20.0516 27.0295 19.7939C26.8543 19.9137 26.7401 20.095 26.6828 20.3477C26.6185 20.6316 26.6261 21.0027 26.6974 21.4678C26.804 22.1622 26.7804 22.878 26.7121 23.584L26.6965 23.7451L26.6183 23.6035C25.977 22.4414 25.9463 21.2046 26.1008 19.96C26.2026 19.1395 26.2698 18.3447 25.8693 17.6133C25.8132 17.5109 25.734 17.4206 25.6418 17.3281C25.5744 17.2605 25.5004 17.1875 25.425 17.1113C25.3009 18.7217 25.1909 20.2215 25.0666 21.7197Z" fill="#F8E801" stroke="#5D4623" stroke-width="0.1"/>
<path d="M20.6053 28.4309V28.629C20.6053 28.8227 20.6053 29.1842 20.6303 29.3704C20.6569 29.5694 20.7565 29.6066 20.7814 29.6821C20.8062 29.7572 20.9076 29.7577 20.9824 29.8332C21.038 29.8894 21.2068 29.8589 21.2838 29.834C21.386 29.8009 21.4357 29.7078 21.5491 29.6205C21.6246 29.5623 21.5876 29.3587 21.5627 29.2688C21.5314 29.1561 21.4365 29.129 21.4115 29.0535C21.4003 29.0195 21.3367 29.0278 21.2986 29.0153C21.2604 29.0029 21.2355 28.9779 21.2226 28.8529C21.2098 28.7278 21.2098 28.5034 21.3345 28.3878C21.4591 28.2722 21.7085 28.2722 21.8369 28.2473C21.9654 28.2223 21.9654 28.1725 21.928 28.1468C21.8906 28.1211 21.8158 28.1211 21.7772 28.0837C21.6921 28.0011 21.6888 27.8944 21.6133 27.857C21.5101 27.806 21.5627 27.6677 21.5249 27.6303C21.4446 27.5509 21.4871 27.4161 21.4493 27.3659C21.4182 27.3244 21.3866 27.29 21.311 27.0219C21.238 26.7627 21.2854 26.2178 21.3103 25.9416C21.3352 25.6655 21.3851 25.6655 21.4108 25.4847C21.4365 25.3039 21.4365 24.9424 21.3991 24.7561C21.3617 24.5699 21.2869 24.5699 21.2483 24.3891C21.2098 24.2083 21.2098 23.8468 21.2347 23.6605C21.2597 23.4743 21.3095 23.4743 21.3352 23.3434C21.3609 23.2125 21.3609 22.9507 21.336 22.8158C21.3079 22.6641 21.2098 22.631 21.1973 22.543C21.187 22.4704 21.1342 22.4293 21.1093 22.3915C21.0939 22.3681 21.0345 22.3787 21.0088 22.3538C20.8945 22.2428 20.9076 22.1021 20.8826 22.0266C20.8714 21.9926 20.8078 22.0009 20.7946 22.0009C20.7814 22.0009 20.8063 22.0009 20.8192 22.2066C20.832 22.4123 20.832 22.8237 20.8195 23.0357C20.8071 23.2476 20.7821 23.2476 20.7818 23.2476C20.7814 23.2476 20.8063 23.2476 20.8192 23.2725C20.8539 23.34 20.7821 23.3987 20.744 23.5993C20.7282 23.6825 20.6809 23.7259 20.656 23.7637C20.6405 23.7871 20.5812 23.7765 20.5555 23.9323C20.5298 24.0882 20.5298 24.3999 20.5547 24.5604C20.5819 24.7355 20.6809 24.7709 20.6934 24.8464C20.698 24.8746 20.7308 24.8721 20.7436 24.9469C20.7565 25.0217 20.7565 25.1713 20.7191 25.2484C20.6817 25.3254 20.6068 25.3254 20.5683 25.6371C20.5298 25.9488 20.5298 26.5722 20.5173 26.8933C20.5048 27.2144 20.4799 27.2144 20.4671 27.2518C20.4542 27.2892 20.4542 27.364 20.4293 27.4025C20.4044 27.4411 20.3545 27.4411 20.3288 27.4785C20.2042 27.6599 20.2275 27.7682 20.2026 27.806C20.1872 27.8294 20.1278 27.8189 20.1021 27.845C20.0442 27.904 20.0515 27.9775 20.0137 28.0274C19.9826 28.0684 20.0009 28.177 20.1131 28.2284C20.2253 28.2798 20.4497 28.2798 20.5528 28.2798C20.656 28.2798 20.631 28.2798 20.6182 28.3047C20.6053 28.3296 20.6053 28.3795 20.6053 28.4309Z" fill="#3D2521"/>
<path d="M19.0002 35.2593H20.0961C20.644 35.2593 21.0824 36 21.0824 36C21.0824 36 21.5755 35.2593 22.0687 35.2593H23.0002V34.9227C23.0002 34.9227 22.8906 34.99 22.6166 34.9227C22.3426 34.8553 22.0687 34.788 21.7399 34.8553C21.4111 34.9227 21.0824 35.4613 21.0824 35.4613C21.0824 35.4613 20.5562 34.9436 20.1509 34.8553C19.8341 34.7864 19.6029 34.8553 19.329 34.9227C19.055 34.99 19.0002 34.9227 19.0002 34.9227V35.2593Z" fill="#FEFEFE"/>
<path d="M23.0002 34.9227L22.3974 34.0473C22.3974 34.0473 21.9876 33.9643 21.7399 34.0473C21.4422 34.1471 21.0824 34.586 21.0824 34.586C21.0824 34.586 20.6846 34.1557 20.37 34.0473C20.061 33.9408 19.5481 34.0473 19.5481 34.0473L19.0002 34.9227C19.0002 34.9227 19.055 34.99 19.329 34.9227C19.6029 34.8553 19.8341 34.7864 20.1509 34.8553C20.5562 34.9436 21.0824 35.4613 21.0824 35.4613C21.0824 35.4613 21.4111 34.9227 21.7399 34.8553C22.0687 34.788 22.3426 34.8553 22.6166 34.9227C22.8906 34.99 23.0002 34.9227 23.0002 34.9227Z" fill="#FEFEFE"/>
<path d="M19.0002 35.2593C19.0002 35.2593 19.5481 35.2593 20.0961 35.2593M19.0002 35.2593V34.9227M19.0002 35.2593H20.0961M20.0961 35.2593C20.644 35.2593 21.0824 36 21.0824 36C21.0824 36 21.5755 35.2593 22.0687 35.2593M22.0687 35.2593C22.5618 35.2593 23.0002 35.2593 23.0002 35.2593M22.0687 35.2593H23.0002M23.0002 35.2593V34.9227M23.0002 34.9227L22.3974 34.0473C22.3974 34.0473 21.9876 33.9643 21.7399 34.0473C21.4422 34.1471 21.0824 34.586 21.0824 34.586C21.0824 34.586 20.6846 34.1557 20.37 34.0473C20.061 33.9408 19.5481 34.0473 19.5481 34.0473L19.0002 34.9227M23.0002 34.9227C23.0002 34.9227 22.8906 34.99 22.6166 34.9227C22.3426 34.8553 22.0687 34.788 21.7399 34.8553C21.4111 34.9227 21.0824 35.4613 21.0824 35.4613C21.0824 35.4613 20.5562 34.9436 20.1509 34.8553C19.8341 34.7864 19.6029 34.8553 19.329 34.9227C19.055 34.99 19.0002 34.9227 19.0002 34.9227" stroke="black" stroke-width="0.1"/>
<path d="M9.40763 16.6001L9.0826 17.2144L9.32272 17.4716L9.15085 17.7964L7.89969 16.4245L8.09026 16.0643L9.92835 16.3269L9.75531 16.654L9.40763 16.6001ZM9.11571 16.5531L8.35237 16.4349L8.87954 16.9995L9.11571 16.5531ZM12.1578 11.1028L13.0849 12.5812L12.7883 12.7671L12.1854 11.8056L12.3923 13.0155L12.1678 13.1563L11.1666 12.4444L11.7696 13.406L11.4731 13.5919L10.546 12.1136L10.8828 11.9024L12.0423 12.7068L11.8232 11.3127L12.1578 11.1028ZM16.7019 9.81683C16.8019 9.81581 16.8908 9.84842 16.9684 9.91466C17.046 9.9809 17.0948 10.0647 17.1147 10.1661C17.1328 10.2577 17.1259 10.3431 17.0939 10.4225C17.0633 10.4998 17.0094 10.5665 16.9321 10.6225C16.8548 10.6785 16.7581 10.718 16.642 10.7409L15.9037 10.8864L15.5663 9.1743L16.2727 9.03508C16.3888 9.0122 16.4922 9.01135 16.583 9.03252C16.6755 9.05337 16.7496 9.09313 16.8053 9.1518C16.8626 9.21014 16.8997 9.28183 16.9165 9.36686C16.9361 9.46661 16.9256 9.55532 16.8848 9.633C16.8457 9.71035 16.7847 9.77163 16.7019 9.81683ZM16.0489 9.81304L16.3628 9.75116C16.4446 9.73505 16.504 9.70465 16.5411 9.65998C16.5778 9.61367 16.5894 9.55617 16.5759 9.48749C16.5623 9.41881 16.5298 9.37002 16.4782 9.34111C16.4267 9.3122 16.36 9.3058 16.2782 9.32192L15.9643 9.38379L16.0489 9.81304ZM16.5378 10.4709C16.6212 10.4545 16.6819 10.4221 16.72 10.3739C16.7597 10.3253 16.7724 10.265 16.7582 10.193C16.7437 10.1195 16.7079 10.0671 16.6508 10.0359C16.5934 10.003 16.523 9.9948 16.4396 10.0112L16.1011 10.0779L16.192 10.5391L16.5378 10.4709ZM21.5036 9.82833L20.8122 9.75778L20.6641 10.0769L20.2985 10.0396L21.1001 8.36481L21.5055 8.40618L21.9524 10.2083L21.5843 10.1708L21.5036 9.82833ZM21.4375 9.54014L21.2604 8.78828L20.9351 9.48887L21.4375 9.54014ZM25.5678 10.4697L26.0956 10.6978L25.9855 10.9525L25.1364 10.5855L25.8288 8.98374L26.15 9.1226L25.5678 10.4697ZM29.8672 12.8173L29.3846 12.3171L29.0655 12.4652L28.8104 12.2008L30.5037 11.4391L30.7866 11.7323L29.9646 13.3972L29.7077 13.1309L29.8672 12.8173ZM30.0027 12.5546L30.3528 11.866L29.6521 12.1911L30.0027 12.5546ZM32.6902 17.1008L32.5563 16.7774L33.3597 15.5871L32.2532 16.0452L32.1194 15.7218L33.734 15.0534L33.8679 15.3768L33.0622 16.568L34.171 16.109L34.3048 16.4324L32.6902 17.1008Z" fill="#3D221D"/>
<path d="M12.055 34.8103C11.4643 34.8103 15.8527 37.7414 15.5152 37.1379C15.1776 36.5345 15.1206 36.4529 14.6712 35.931L15.262 34.8103C15.262 34.8103 13.6585 34.1207 13.2365 33C13.2365 33 13.0677 34.3793 13.5741 34.8103H12.055Z" fill="#FEFEFE"/>
<path d="M14.6712 35.931C16.6122 37.7414 20.8319 38 20.8319 38C20.8319 38 25.2204 37.6552 27.1614 35.931L26.5707 34.8103L25.9799 34.2931C24.8828 35.7586 20.8319 35.931 20.8319 35.931C20.8319 35.931 16.6966 35.6724 15.684 34.2931L15.262 34.8103L14.6712 35.931Z" fill="#FEFEFE"/>
<path d="M27.1614 35.931C26.8648 36.4024 26.7395 36.6207 26.4019 37.1379C26.0643 37.6552 30.5371 34.8103 29.9464 34.8103H28.2585C28.2585 34.8103 29.1025 33.4311 28.6805 33C28.6805 33 27.6678 34.4655 26.5707 34.8103L27.1614 35.931Z" fill="#FEFEFE"/>
<path d="M12.055 34.8103C11.4643 34.8103 15.8527 37.7414 15.5152 37.1379C15.1776 36.5345 15.1206 36.4529 14.6712 35.931M12.055 34.8103C12.6458 34.8103 13.5741 34.8103 13.5741 34.8103M12.055 34.8103H13.5741M14.6712 35.931C16.6122 37.7414 20.8319 38 20.8319 38C20.8319 38 25.2204 37.6552 27.1614 35.931M14.6712 35.931C14.9019 35.4934 15.262 34.8103 15.262 34.8103M14.6712 35.931L15.262 34.8103M27.1614 35.931C26.8648 36.4024 26.7395 36.6207 26.4019 37.1379C26.0643 37.6552 30.5371 34.8103 29.9464 34.8103M27.1614 35.931C26.9307 35.4934 26.5707 34.8103 26.5707 34.8103M27.1614 35.931L26.5707 34.8103M29.9464 34.8103C29.3557 34.8103 28.5961 34.8103 28.2585 34.8103M29.9464 34.8103H28.2585M28.2585 34.8103C28.2585 34.8103 29.1025 33.4311 28.6805 33C28.6805 33 27.6678 34.4655 26.5707 34.8103M26.5707 34.8103L25.9799 34.2931C24.8828 35.7586 20.8319 35.931 20.8319 35.931C20.8319 35.931 16.6966 35.6724 15.684 34.2931L15.262 34.8103M15.262 34.8103C15.262 34.8103 13.6585 34.1207 13.2365 33C13.2365 33 13.0677 34.3793 13.5741 34.8103" stroke="#4E3735" stroke-width="0.1"/>
<path d="M17.1075 35.5353C17.207 35.5821 17.2853 35.6426 17.3421 35.7167C17.3999 35.7914 17.4321 35.8744 17.4389 35.966C17.4469 36.057 17.4287 36.1501 17.384 36.2451C17.3394 36.3402 17.2795 36.4137 17.2043 36.4657C17.1304 36.5172 17.0463 36.5445 16.952 36.5477C16.8586 36.5514 16.7621 36.5299 16.6625 36.4831L16.3312 36.3276L16.7761 35.3798L17.1075 35.5353ZM16.7316 36.3183C16.8312 36.3651 16.9209 36.374 17.0007 36.3452C17.0805 36.3164 17.1436 36.2527 17.1899 36.154C17.2362 36.0553 17.2452 35.9656 17.2168 35.8849C17.1888 35.8033 17.125 35.7391 17.0255 35.6924L16.891 35.6293L16.5972 36.2552L16.7316 36.3183ZM17.9122 36.0733L17.8224 36.3199L18.1536 36.4406L18.0966 36.597L17.7654 36.4764L17.6704 36.7371L18.0439 36.8732L17.9854 37.0338L17.4146 36.8259L17.7735 35.8407L18.3443 36.0487L18.2857 36.2093L17.9122 36.0733ZM19.8528 36.3581L19.3692 37.3317L19.1261 37.2853L19.0728 36.5162L18.7312 37.21L18.4893 37.1653L18.4088 36.0825L18.6299 36.1247L18.6587 36.9579L19.0203 36.1992L19.2502 36.2431L19.296 37.0749L19.6303 36.3156L19.8528 36.3581ZM20.199 36.3954L20.1177 37.4393L19.9083 37.4229L19.9896 36.3791L20.199 36.3954ZM22.0026 36.38L22.0601 37.4254L21.8504 37.4369L21.813 36.7569L21.5703 37.4523L21.4116 37.461L21.0926 36.7965L21.13 37.4765L20.9203 37.4881L20.8628 36.4426L21.101 36.4295L21.4762 37.1886L21.766 36.393L22.0026 36.38ZM22.9772 37.0762L22.5677 37.1551L22.5377 37.364L22.3212 37.4058L22.4925 36.305L22.7326 36.2587L23.3007 37.217L23.0827 37.259L22.9772 37.0762ZM22.8895 36.922L22.6578 36.5206L22.5919 36.9793L22.8895 36.922ZM23.584 36.0474C23.6888 36.014 23.7873 36.0053 23.8794 36.0211C23.9725 36.0366 24.0526 36.0756 24.1198 36.1382C24.1876 36.1995 24.2374 36.2802 24.2692 36.3803C24.301 36.4804 24.307 36.575 24.2871 36.6642C24.2679 36.7522 24.2248 36.8294 24.1578 36.8959C24.0917 36.962 24.0063 37.0117 23.9015 37.0451L23.5527 37.1561L23.2352 36.1584L23.584 36.0474ZM23.8402 36.8773C23.945 36.8439 24.0169 36.7896 24.0559 36.7142C24.0949 36.6388 24.0979 36.5492 24.0648 36.4453C24.0318 36.3415 23.9774 36.2696 23.9017 36.2296C23.8257 36.1887 23.7354 36.185 23.6305 36.2183L23.489 36.2634L23.6987 36.9223L23.8402 36.8773ZM25.1888 36.3375L24.8086 36.5088L24.8276 36.719L24.6266 36.8096L24.5391 35.699L24.762 35.5986L25.536 36.3998L25.3336 36.491L25.1888 36.3375ZM25.0678 36.2077L24.7497 35.8707L24.7915 36.3322L25.0678 36.2077Z" fill="#2C120E"/>
<defs>
<clipPath id="clip0_1340_5598">
<path d="M11.0001 26C11.0001 20.4772 15.4772 16 21.0001 16V16C26.5229 16 31.0001 20.4772 31.0001 26V26H11.0001V26Z" fill="white"/>
</clipPath>
</defs>
</svg>
