<svg width="179" height="57" viewBox="0 0 179 57" fill="none" xmlns="http://www.w3.org/2000/svg">
<path d="M19.9805 8.56934C21.7831 9.3518 23.6855 9.98756 25.4648 10.6768C27.3337 11.4006 29.1131 12.2006 30.6924 13.3428V13.3438C32.3998 14.587 33.8684 16.1307 35.2988 17.7734C36.6656 19.3431 38.019 21.0269 39.4775 22.5596C39.2573 24.4808 39.2263 26.4529 39.1113 28.3359C38.9903 30.3176 38.7735 32.2414 38.1611 34.082L38.1602 34.0879C37.5213 36.0771 36.4992 37.927 35.3604 39.7725C34.272 41.5362 33.057 43.3271 32.0254 45.1729C30.1141 45.5837 28.1976 46.169 26.3496 46.6416C24.407 47.1384 22.4945 47.5234 20.5605 47.5234C18.4258 47.5234 16.3137 47.136 14.1816 46.6387C12.144 46.1634 10.0467 45.5784 7.96582 45.168C6.98363 43.4914 5.8284 41.8753 4.80469 40.2881C3.72807 38.6188 2.77033 36.9397 2.18164 35.0996L2.17969 35.0947L2.05957 34.7197C1.4823 32.8411 1.229 30.8713 1.05859 28.8486C0.885009 26.7881 0.793526 24.6376 0.523438 22.5498C1.83602 21.1134 3.03666 19.5354 4.25098 18.0781C5.52805 16.5455 6.84882 15.1143 8.42969 13.9707L8.42871 13.9697C10.1596 12.7269 12.0914 11.8178 14.1016 10.9854C16.0238 10.1893 18.0571 9.44794 19.9805 8.56934Z" stroke="white"/>
<mask id="path-2-inside-1_2222_997" fill="white">
<path fill-rule="evenodd" clip-rule="evenodd" d="M20.0241 28.2157C20.1216 27.9266 20.5113 27.2519 20.6575 27.0109C20.8037 26.8181 20.9011 26.6254 21.2421 26.6254C20.7549 27.8302 20.9011 29.4687 21.5832 30.6736C22.0217 31.3964 22.8499 31.9748 23.7269 32.1675C23.8244 32.5049 23.8731 32.6977 23.8731 33.0832C24.9449 32.8422 25.1885 32.0711 25.0911 31.2037C24.9449 30.5772 24.7501 29.8061 24.8962 29.276C25.0911 28.794 25.286 28.4085 26.0655 28.6013C25.8219 29.2278 25.7245 29.9025 25.8706 30.6254C26.3579 32.8904 27.8195 33.8543 26.6502 36.1193C26.0168 37.3724 24.4577 37.7579 23.532 37.8543C22.2166 37.9989 21.7781 38.9627 21.3883 39.3001C21.437 38.9627 21.3883 38.5772 21.2909 38.1434C21.0473 37.276 20.56 36.5531 20.0241 36.2639C19.4395 36.5531 18.9522 37.276 18.7086 38.1434C18.6112 38.5772 18.5625 38.9627 18.6112 39.3001C18.2214 38.9627 17.7829 37.9989 16.4675 37.8543C15.5418 37.7579 13.9827 37.3724 13.3493 36.1193C12.18 33.8543 13.6417 32.8904 14.1289 30.6254C14.275 29.9025 14.1776 29.2278 13.934 28.6013C14.7135 28.4085 14.9084 28.794 15.1033 29.276C15.2494 29.8061 15.0546 30.5772 14.9084 31.2037C14.811 32.0711 15.0546 32.8422 16.1264 33.0832C16.1264 32.6977 16.1751 32.5049 16.2726 32.1675C17.1496 31.9748 17.9778 31.3964 18.4163 30.6736C19.0984 29.4687 19.2446 27.8302 18.7574 26.6254C19.0984 26.6254 19.1959 26.8181 19.342 27.0109C19.4882 27.2519 19.878 27.9266 20.0241 28.2157ZM20.0241 23.4446C19.8292 23.8302 18.7086 24.6495 18.5625 24.8422C18.3676 25.0832 18.1727 25.6133 18.5625 26.1434C19.2446 26.1434 19.7318 26.9627 20.0241 27.4928C20.2677 26.9627 20.7549 26.1434 21.437 26.1434C21.8268 25.6133 21.6319 25.0832 21.437 24.8422C21.2909 24.6495 20.1703 23.8302 20.0241 23.4446ZM21.3396 28.2639C21.2421 29.3724 21.6806 31.0591 23.6295 31.8302C23.3859 30.8181 22.3627 28.7458 21.3396 28.2639ZM18.6599 28.2639C17.6368 28.7458 16.6136 30.8181 16.37 31.8302C18.3189 31.0591 18.7574 29.3724 18.6599 28.2639ZM20.0241 42.3362C18.0265 41.3724 16.5649 41.1796 15.0058 41.7579C13.7878 42.1916 12.5698 42.9627 11.1569 43.3965L11.1082 43.9748C12.5211 43.6374 13.4955 42.8663 14.7135 42.3844C16.2726 41.8061 17.9778 41.9989 20.0241 42.9145C22.0217 41.9989 23.7269 41.8061 25.286 42.3844C26.504 42.8663 27.4784 43.6374 28.8913 43.9748L28.8426 43.3965C27.4297 42.9627 26.2117 42.1916 24.9937 41.7579C23.4346 41.1796 21.973 41.3724 20.0241 42.3362ZM20.0241 16.5049C20.0728 16.6977 20.4626 16.9386 20.8037 17.1314C21.2421 17.4205 21.4857 17.8543 21.437 18.529L21.1447 22.7218L21.3883 23.0109L22.0217 17.1314C22.2166 17.4687 22.5576 18.1916 22.8499 18.4808C23.2884 18.8663 23.4346 19.4446 23.2884 20.023L22.3627 24.1193L22.6551 24.4567L23.9218 19.2519C24.2141 18.7218 24.409 18.4326 24.9449 18.3844C25.5296 18.3362 26.1142 18.7699 26.7476 19.3483C26.0168 19.4446 25.627 19.4446 25.4322 20.2639L22.9961 29.5169C22.5089 28.8904 22.1678 28.1675 21.3883 27.9266C21.437 27.0109 21.8755 26.3362 22.0217 25.4687C22.2653 24.4085 20.0241 23.5892 20.0241 22.6254C20.0241 23.5892 17.7342 24.4085 17.9778 25.4687C18.124 26.3362 18.5625 27.0109 18.6112 27.9266C17.8317 28.1675 17.4906 28.8904 17.0034 29.5169L14.5674 20.2639C14.3725 19.4446 13.9827 19.4446 13.2519 19.3483C13.8853 18.7699 14.4699 18.3362 15.0546 18.3844C15.5905 18.4326 15.7854 18.7218 16.0777 19.2519L17.3445 24.4567L17.6368 24.1193L16.7111 20.023C16.5649 19.4446 16.7111 18.8663 17.1496 18.4808C17.4419 18.1916 17.7829 17.4687 17.9778 17.1314L18.6112 23.0109L18.8548 22.7218L18.5625 18.529C18.5138 17.8543 18.7574 17.4205 19.1959 17.1314C19.5369 16.9386 19.9267 16.6977 20.0241 16.5049ZM28.3554 38.8181C27.6246 38.5772 26.7476 38.2398 24.3603 38.1434C25.4322 37.8061 26.3579 37.4687 26.8451 36.6977C27.4297 35.8302 27.5272 34.5772 27.4784 34.0952C27.381 33.276 26.9912 32.5531 26.6015 31.7338C26.2117 30.7699 25.9681 29.7097 26.3579 28.6977C26.5527 28.3121 27.0887 28.2639 27.722 28.4085C28.4529 28.6013 29.7683 29.5169 30.4504 29.7579C31.0838 29.9507 32.8865 29.9989 33.5686 29.4205C34.0071 29.035 34.2507 28.0711 34.0558 27.3964C33.7635 26.6254 33.325 26.2398 33.2762 25.1796C33.5199 25.8061 34.3481 26.7218 34.5917 27.2037C35.1276 27.7338 35.1764 29.3724 34.9328 30.0952C34.7866 30.529 34.2994 30.9627 33.9096 31.2037C32.9839 31.782 32.3505 31.6856 31.571 31.782L31.3761 32.2157C31.6197 32.2639 32.448 32.2157 33.1788 31.9266C33.8609 31.7338 34.3968 31.3483 34.4943 31.2519C34.4943 31.9748 34.0558 32.8422 33.2762 33.276C32.6429 33.6615 31.8633 33.8061 31.3274 33.8061L31.1325 34.1916C32.2044 34.1916 33.5199 33.7579 34.1532 33.0832C34.0558 34.0952 33.7635 34.7699 32.789 35.2519C32.1557 35.541 31.0351 35.6374 30.6453 35.6856L30.4017 36.1193C30.9376 36.0711 31.3274 36.0711 31.7659 35.9748C32.2044 35.8784 32.9352 35.6856 33.2762 35.4928C33.1301 36.023 32.9352 36.6013 32.3018 36.9386C31.571 37.3242 30.6453 37.5169 29.9145 37.5651L29.7196 37.9025C30.4991 37.9989 31.6684 37.6133 32.0095 37.3724C31.8633 37.9989 31.1812 38.9627 30.4504 39.0591C30.0119 39.1555 29.135 39.0591 28.3554 38.8181ZM11.6441 38.8181C12.3749 38.5772 13.2519 38.2398 15.6392 38.1434C14.5674 37.8061 13.6417 37.4687 13.1544 36.6977C12.5698 35.8302 12.4723 34.5772 12.5211 34.0952C12.6185 33.276 13.0083 32.5531 13.398 31.7338C13.7878 30.7699 14.0314 29.7097 13.6417 28.6977C13.4468 28.3121 12.9108 28.2639 12.2775 28.4085C11.5466 28.6013 10.2312 29.5169 9.54908 29.7579C8.91571 29.9507 7.11303 29.9989 6.43093 29.4205C5.99244 29.035 5.74884 28.0711 5.94372 27.3964C6.23605 26.6254 6.67454 26.2398 6.72326 25.1796C6.47965 25.8061 5.6514 26.7218 5.40779 27.2037C4.87186 27.7338 4.82314 29.3724 5.06674 30.0952C5.21291 30.529 5.70012 30.9627 6.08988 31.2037C7.01559 31.782 7.64896 31.6856 8.4285 31.782L8.62338 32.2157C8.37978 32.2639 7.55152 32.2157 6.8207 31.9266C6.13861 31.7338 5.60267 31.3483 5.50523 31.2519C5.50523 31.9748 5.94372 32.8422 6.72326 33.276C7.35663 33.6615 8.13617 33.8061 8.6721 33.8061L8.86699 34.1916C7.79512 34.1916 6.47965 33.7579 5.84628 33.0832C5.94372 34.0952 6.23605 34.7699 7.21047 35.2519C7.84384 35.541 8.96443 35.6374 9.3542 35.6856L9.5978 36.1193C9.06187 36.0711 8.6721 36.0711 8.23361 35.9748C7.79512 35.8784 7.06431 35.6856 6.72326 35.4928C6.86942 36.023 7.06431 36.6013 7.69768 36.9386C8.4285 37.3242 9.3542 37.5169 10.085 37.5651L10.2799 37.9025C9.50036 37.9989 8.33105 37.6133 7.99001 37.3724C8.13617 37.9989 8.81827 38.9627 9.54908 39.0591C9.98757 39.1555 10.8646 39.0591 11.6441 38.8181ZM20.7549 40.0711C20.8524 39.8784 20.9985 39.6856 21.0473 39.4446C21.096 39.1073 21.1447 38.9145 20.9985 38.288C20.8524 37.7097 20.4139 36.8904 20.0241 36.6495C19.5856 36.8904 19.1959 37.5169 19.001 38.288C18.9035 38.7218 18.9035 39.1073 18.9522 39.4446C19.0984 39.8302 19.2933 40.1675 19.4882 40.3603C19.6831 40.5049 19.8292 40.6495 20.0241 40.7458C20.2677 40.6013 20.5113 40.3603 20.7549 40.0711ZM20.0241 41.9507C21.973 40.9868 23.5808 40.8422 25.0911 41.4205C26.4066 41.9025 27.4297 42.7699 28.7939 43.0591L28.599 41.8061C27.1374 41.5651 26.1142 40.6013 24.7988 40.0711C23.6295 39.6374 22.3627 39.6374 20.9011 40.2157C20.6575 40.6013 20.3164 40.9386 20.0241 41.0832C19.6831 40.9386 19.342 40.6013 19.0984 40.2157C17.6368 39.6374 16.37 39.6374 15.2007 40.0711C13.8853 40.6013 12.8621 41.5651 11.4005 41.8061L11.2056 43.0591C12.5698 42.7699 13.5929 41.9025 14.9084 41.4205C16.4188 40.8422 18.0265 40.9868 20.0241 41.9507ZM20.0241 35.9748C20.6575 35.9748 20.9498 36.2639 21.3883 36.6013C22.2166 36.1193 22.8012 34.8663 22.6551 33.9507C22.5089 33.1796 21.7294 31.9266 21.1447 30.9145C20.7062 30.1434 20.2677 29.0832 20.0241 28.5531C19.7318 29.0832 19.2933 30.1434 18.8548 30.9145C18.2702 31.9266 17.4906 33.1796 17.3445 33.9507C17.1983 34.8663 17.7829 36.1193 18.6112 36.6013C19.0497 36.2639 19.342 35.9748 20.0241 35.9748Z"/>
</mask>
<path fill-rule="evenodd" clip-rule="evenodd" d="M20.0241 28.2157C20.1216 27.9266 20.5113 27.2519 20.6575 27.0109C20.8037 26.8181 20.9011 26.6254 21.2421 26.6254C20.7549 27.8302 20.9011 29.4687 21.5832 30.6736C22.0217 31.3964 22.8499 31.9748 23.7269 32.1675C23.8244 32.5049 23.8731 32.6977 23.8731 33.0832C24.9449 32.8422 25.1885 32.0711 25.0911 31.2037C24.9449 30.5772 24.7501 29.8061 24.8962 29.276C25.0911 28.794 25.286 28.4085 26.0655 28.6013C25.8219 29.2278 25.7245 29.9025 25.8706 30.6254C26.3579 32.8904 27.8195 33.8543 26.6502 36.1193C26.0168 37.3724 24.4577 37.7579 23.532 37.8543C22.2166 37.9989 21.7781 38.9627 21.3883 39.3001C21.437 38.9627 21.3883 38.5772 21.2909 38.1434C21.0473 37.276 20.56 36.5531 20.0241 36.2639C19.4395 36.5531 18.9522 37.276 18.7086 38.1434C18.6112 38.5772 18.5625 38.9627 18.6112 39.3001C18.2214 38.9627 17.7829 37.9989 16.4675 37.8543C15.5418 37.7579 13.9827 37.3724 13.3493 36.1193C12.18 33.8543 13.6417 32.8904 14.1289 30.6254C14.275 29.9025 14.1776 29.2278 13.934 28.6013C14.7135 28.4085 14.9084 28.794 15.1033 29.276C15.2494 29.8061 15.0546 30.5772 14.9084 31.2037C14.811 32.0711 15.0546 32.8422 16.1264 33.0832C16.1264 32.6977 16.1751 32.5049 16.2726 32.1675C17.1496 31.9748 17.9778 31.3964 18.4163 30.6736C19.0984 29.4687 19.2446 27.8302 18.7574 26.6254C19.0984 26.6254 19.1959 26.8181 19.342 27.0109C19.4882 27.2519 19.878 27.9266 20.0241 28.2157ZM20.0241 23.4446C19.8292 23.8302 18.7086 24.6495 18.5625 24.8422C18.3676 25.0832 18.1727 25.6133 18.5625 26.1434C19.2446 26.1434 19.7318 26.9627 20.0241 27.4928C20.2677 26.9627 20.7549 26.1434 21.437 26.1434C21.8268 25.6133 21.6319 25.0832 21.437 24.8422C21.2909 24.6495 20.1703 23.8302 20.0241 23.4446ZM21.3396 28.2639C21.2421 29.3724 21.6806 31.0591 23.6295 31.8302C23.3859 30.8181 22.3627 28.7458 21.3396 28.2639ZM18.6599 28.2639C17.6368 28.7458 16.6136 30.8181 16.37 31.8302C18.3189 31.0591 18.7574 29.3724 18.6599 28.2639ZM20.0241 42.3362C18.0265 41.3724 16.5649 41.1796 15.0058 41.7579C13.7878 42.1916 12.5698 42.9627 11.1569 43.3965L11.1082 43.9748C12.5211 43.6374 13.4955 42.8663 14.7135 42.3844C16.2726 41.8061 17.9778 41.9989 20.0241 42.9145C22.0217 41.9989 23.7269 41.8061 25.286 42.3844C26.504 42.8663 27.4784 43.6374 28.8913 43.9748L28.8426 43.3965C27.4297 42.9627 26.2117 42.1916 24.9937 41.7579C23.4346 41.1796 21.973 41.3724 20.0241 42.3362ZM20.0241 16.5049C20.0728 16.6977 20.4626 16.9386 20.8037 17.1314C21.2421 17.4205 21.4857 17.8543 21.437 18.529L21.1447 22.7218L21.3883 23.0109L22.0217 17.1314C22.2166 17.4687 22.5576 18.1916 22.8499 18.4808C23.2884 18.8663 23.4346 19.4446 23.2884 20.023L22.3627 24.1193L22.6551 24.4567L23.9218 19.2519C24.2141 18.7218 24.409 18.4326 24.9449 18.3844C25.5296 18.3362 26.1142 18.7699 26.7476 19.3483C26.0168 19.4446 25.627 19.4446 25.4322 20.2639L22.9961 29.5169C22.5089 28.8904 22.1678 28.1675 21.3883 27.9266C21.437 27.0109 21.8755 26.3362 22.0217 25.4687C22.2653 24.4085 20.0241 23.5892 20.0241 22.6254C20.0241 23.5892 17.7342 24.4085 17.9778 25.4687C18.124 26.3362 18.5625 27.0109 18.6112 27.9266C17.8317 28.1675 17.4906 28.8904 17.0034 29.5169L14.5674 20.2639C14.3725 19.4446 13.9827 19.4446 13.2519 19.3483C13.8853 18.7699 14.4699 18.3362 15.0546 18.3844C15.5905 18.4326 15.7854 18.7218 16.0777 19.2519L17.3445 24.4567L17.6368 24.1193L16.7111 20.023C16.5649 19.4446 16.7111 18.8663 17.1496 18.4808C17.4419 18.1916 17.7829 17.4687 17.9778 17.1314L18.6112 23.0109L18.8548 22.7218L18.5625 18.529C18.5138 17.8543 18.7574 17.4205 19.1959 17.1314C19.5369 16.9386 19.9267 16.6977 20.0241 16.5049ZM28.3554 38.8181C27.6246 38.5772 26.7476 38.2398 24.3603 38.1434C25.4322 37.8061 26.3579 37.4687 26.8451 36.6977C27.4297 35.8302 27.5272 34.5772 27.4784 34.0952C27.381 33.276 26.9912 32.5531 26.6015 31.7338C26.2117 30.7699 25.9681 29.7097 26.3579 28.6977C26.5527 28.3121 27.0887 28.2639 27.722 28.4085C28.4529 28.6013 29.7683 29.5169 30.4504 29.7579C31.0838 29.9507 32.8865 29.9989 33.5686 29.4205C34.0071 29.035 34.2507 28.0711 34.0558 27.3964C33.7635 26.6254 33.325 26.2398 33.2762 25.1796C33.5199 25.8061 34.3481 26.7218 34.5917 27.2037C35.1276 27.7338 35.1764 29.3724 34.9328 30.0952C34.7866 30.529 34.2994 30.9627 33.9096 31.2037C32.9839 31.782 32.3505 31.6856 31.571 31.782L31.3761 32.2157C31.6197 32.2639 32.448 32.2157 33.1788 31.9266C33.8609 31.7338 34.3968 31.3483 34.4943 31.2519C34.4943 31.9748 34.0558 32.8422 33.2762 33.276C32.6429 33.6615 31.8633 33.8061 31.3274 33.8061L31.1325 34.1916C32.2044 34.1916 33.5199 33.7579 34.1532 33.0832C34.0558 34.0952 33.7635 34.7699 32.789 35.2519C32.1557 35.541 31.0351 35.6374 30.6453 35.6856L30.4017 36.1193C30.9376 36.0711 31.3274 36.0711 31.7659 35.9748C32.2044 35.8784 32.9352 35.6856 33.2762 35.4928C33.1301 36.023 32.9352 36.6013 32.3018 36.9386C31.571 37.3242 30.6453 37.5169 29.9145 37.5651L29.7196 37.9025C30.4991 37.9989 31.6684 37.6133 32.0095 37.3724C31.8633 37.9989 31.1812 38.9627 30.4504 39.0591C30.0119 39.1555 29.135 39.0591 28.3554 38.8181ZM11.6441 38.8181C12.3749 38.5772 13.2519 38.2398 15.6392 38.1434C14.5674 37.8061 13.6417 37.4687 13.1544 36.6977C12.5698 35.8302 12.4723 34.5772 12.5211 34.0952C12.6185 33.276 13.0083 32.5531 13.398 31.7338C13.7878 30.7699 14.0314 29.7097 13.6417 28.6977C13.4468 28.3121 12.9108 28.2639 12.2775 28.4085C11.5466 28.6013 10.2312 29.5169 9.54908 29.7579C8.91571 29.9507 7.11303 29.9989 6.43093 29.4205C5.99244 29.035 5.74884 28.0711 5.94372 27.3964C6.23605 26.6254 6.67454 26.2398 6.72326 25.1796C6.47965 25.8061 5.6514 26.7218 5.40779 27.2037C4.87186 27.7338 4.82314 29.3724 5.06674 30.0952C5.21291 30.529 5.70012 30.9627 6.08988 31.2037C7.01559 31.782 7.64896 31.6856 8.4285 31.782L8.62338 32.2157C8.37978 32.2639 7.55152 32.2157 6.8207 31.9266C6.13861 31.7338 5.60267 31.3483 5.50523 31.2519C5.50523 31.9748 5.94372 32.8422 6.72326 33.276C7.35663 33.6615 8.13617 33.8061 8.6721 33.8061L8.86699 34.1916C7.79512 34.1916 6.47965 33.7579 5.84628 33.0832C5.94372 34.0952 6.23605 34.7699 7.21047 35.2519C7.84384 35.541 8.96443 35.6374 9.3542 35.6856L9.5978 36.1193C9.06187 36.0711 8.6721 36.0711 8.23361 35.9748C7.79512 35.8784 7.06431 35.6856 6.72326 35.4928C6.86942 36.023 7.06431 36.6013 7.69768 36.9386C8.4285 37.3242 9.3542 37.5169 10.085 37.5651L10.2799 37.9025C9.50036 37.9989 8.33105 37.6133 7.99001 37.3724C8.13617 37.9989 8.81827 38.9627 9.54908 39.0591C9.98757 39.1555 10.8646 39.0591 11.6441 38.8181ZM20.7549 40.0711C20.8524 39.8784 20.9985 39.6856 21.0473 39.4446C21.096 39.1073 21.1447 38.9145 20.9985 38.288C20.8524 37.7097 20.4139 36.8904 20.0241 36.6495C19.5856 36.8904 19.1959 37.5169 19.001 38.288C18.9035 38.7218 18.9035 39.1073 18.9522 39.4446C19.0984 39.8302 19.2933 40.1675 19.4882 40.3603C19.6831 40.5049 19.8292 40.6495 20.0241 40.7458C20.2677 40.6013 20.5113 40.3603 20.7549 40.0711ZM20.0241 41.9507C21.973 40.9868 23.5808 40.8422 25.0911 41.4205C26.4066 41.9025 27.4297 42.7699 28.7939 43.0591L28.599 41.8061C27.1374 41.5651 26.1142 40.6013 24.7988 40.0711C23.6295 39.6374 22.3627 39.6374 20.9011 40.2157C20.6575 40.6013 20.3164 40.9386 20.0241 41.0832C19.6831 40.9386 19.342 40.6013 19.0984 40.2157C17.6368 39.6374 16.37 39.6374 15.2007 40.0711C13.8853 40.6013 12.8621 41.5651 11.4005 41.8061L11.2056 43.0591C12.5698 42.7699 13.5929 41.9025 14.9084 41.4205C16.4188 40.8422 18.0265 40.9868 20.0241 41.9507ZM20.0241 35.9748C20.6575 35.9748 20.9498 36.2639 21.3883 36.6013C22.2166 36.1193 22.8012 34.8663 22.6551 33.9507C22.5089 33.1796 21.7294 31.9266 21.1447 30.9145C20.7062 30.1434 20.2677 29.0832 20.0241 28.5531C19.7318 29.0832 19.2933 30.1434 18.8548 30.9145C18.2702 31.9266 17.4906 33.1796 17.3445 33.9507C17.1983 34.8663 17.7829 36.1193 18.6112 36.6013C19.0497 36.2639 19.342 35.9748 20.0241 35.9748Z" stroke="white" stroke-width="0.6" mask="url(#path-2-inside-1_2222_997)"/>
<path d="M20.0195 30.0146C20.157 30.2927 20.3431 30.6296 20.5391 30.9688C20.9221 31.6318 21.3528 32.319 21.5576 32.625H21.5586C21.7212 32.9237 21.8964 33.3291 22.0127 33.7373C22.1296 34.1478 22.1769 34.529 22.1201 34.8047C21.9717 35.313 21.7268 35.5409 21.4834 35.8301C21.3187 35.7162 21.1556 35.6077 20.9746 35.5254C20.7127 35.4063 20.4206 35.3398 20.0244 35.3398C19.6062 35.3398 19.3028 35.4055 19.0342 35.5244C18.8473 35.6071 18.6814 35.7157 18.5156 35.8301C18.2731 35.542 18.0294 35.3143 17.8809 34.8096C17.8225 34.5335 17.8697 34.1502 17.9873 33.7373C18.1025 33.3329 18.2752 32.9317 18.4365 32.6338C18.5681 32.4548 18.7868 32.0993 19.0146 31.7246C19.3036 31.9794 19.4892 32.226 19.5908 32.4873C19.713 32.895 19.6832 33.4125 19.3945 34.4121L19.3242 34.6543L19.5664 34.7227L19.9072 34.8184L20.1494 34.8877L20.2168 34.6445C20.4889 33.6575 20.615 32.9368 20.4434 32.3438L20.4053 32.2266C20.2496 31.7273 19.9128 31.3741 19.4229 30.9932C19.605 30.6726 19.7842 30.3595 19.9277 30.0957C19.9519 30.0512 19.9728 30.0066 19.9951 29.9648C20.003 29.9812 20.0113 29.998 20.0195 30.0146Z" stroke="white" stroke-width="0.5"/>
<path d="M7.21025 19.5415L7.40514 19.6379L7.21025 20.0716L8.96421 20.8427L8.67189 21.4692L6.91793 20.6499L6.72304 21.1319L6.52816 21.0355L7.21025 19.5415ZM8.33084 17.8066L9.50014 18.5777C9.93863 18.8186 9.98735 19.156 9.69503 19.6379C9.4027 20.0716 9.06165 20.168 8.67189 19.9271L7.45386 19.156L7.79491 18.6258L9.01293 19.3969C9.1591 19.4933 9.25654 19.5415 9.35398 19.5415C9.45142 19.5415 9.54887 19.4451 9.59759 19.3487C9.74375 19.1078 9.69503 18.915 9.4027 18.7222L8.18467 17.9993L8.33084 17.8066ZM9.74375 16.168L9.88991 16.3126L9.54887 16.6981L10.9618 17.9511L10.572 18.4331L9.11038 17.1801L8.76933 17.6138L8.62316 17.4692L9.74375 16.168ZM12.9593 13.8066L13.5927 15.8789L13.2517 16.0716L12.3747 15.3005L12.7645 16.409L12.4234 16.6018L10.8156 15.156L11.3515 14.8186L12.326 15.7343L11.8875 14.4813L12.1798 14.2885L13.1542 15.2042L12.7157 13.903L12.9593 13.8066ZM14.8107 12.9391L15.3954 14.1921C15.5903 14.6258 15.4441 14.9632 14.9569 15.2042C14.4697 15.3969 14.1286 15.3005 13.9338 14.8668L13.3491 13.6138L13.885 13.3246L14.5184 14.6258C14.5671 14.8186 14.6646 14.915 14.7133 14.9632C14.8107 14.9632 14.9082 14.9632 15.0543 14.915C15.298 14.8186 15.3467 14.5777 15.2005 14.2885L14.6159 12.9873L14.8107 12.9391ZM15.98 14.7222L15.5416 12.6499L16.4185 12.4572C16.6621 12.409 16.857 12.409 17.0032 12.5054C17.1494 12.5536 17.2468 12.6499 17.2955 12.8427C17.3442 13.0837 17.2468 13.2764 16.9545 13.421C17.1494 13.421 17.2468 13.4692 17.2955 13.5174C17.3442 13.5656 17.4417 13.7102 17.4904 13.903C17.5391 14.1439 17.6366 14.2885 17.6853 14.3367L17.0519 14.4813C17.0032 14.3849 16.9545 14.2885 16.9057 14.1439L16.857 13.9993V13.8548C16.7596 13.6138 16.6621 13.5174 16.4673 13.5656L16.3698 13.6138L16.6134 14.5777L15.98 14.7222ZM16.3211 13.421L16.4673 13.3728C16.6621 13.3246 16.7596 13.1801 16.7109 12.9873C16.6621 12.7463 16.516 12.6499 16.2724 12.6981H16.1749L16.3211 13.421ZM18.2699 12.1198L18.5623 14.1921L17.9776 14.2885L17.6853 12.2162L18.2699 12.1198ZM20.5598 13.1319L20.5111 14.1439H19.9265L20.0239 12.0234L20.6573 12.0716L20.6085 12.8909L21.0958 12.9391L21.1445 12.0716L21.7779 12.1198L21.6317 14.2403L20.9983 14.1921L21.0958 13.1319H20.5598ZM23.3856 12.4572L23.5318 14.674L22.8984 14.5295V14.0475L22.2651 13.903L22.0215 14.3367L21.7779 14.2885L22.8497 12.3608L23.3856 12.4572ZM22.3625 13.7102L22.8497 13.8548V12.8909L22.3625 13.7102ZM25.8704 13.2764L25.0909 15.2524L24.6524 15.1078L24.3113 13.5656L23.8241 14.8186L23.6293 14.7222L24.3601 12.7463L24.7498 12.8909L25.1396 14.5777L25.6755 13.2283L25.8704 13.2764ZM25.4319 15.4451L26.5038 13.662L27.2833 14.0957C27.8193 14.4331 27.9167 14.915 27.5269 15.4933C27.1859 16.0716 26.6987 16.2162 26.1628 15.8789L25.4319 15.4451ZM26.0653 15.6379L26.1628 15.7343C26.3089 15.7825 26.4064 15.7825 26.5525 15.6861C26.65 15.6379 26.7961 15.4451 26.991 15.156C27.1372 14.8668 27.2346 14.674 27.2833 14.5295C27.2833 14.3849 27.2346 14.2885 27.0885 14.1921L26.9423 14.1439L26.0653 15.6379ZM29.2809 15.5897L28.3552 17.5656L27.868 17.1801L28.0629 16.7463L27.5757 16.3126L27.1859 16.6018L26.991 16.409L28.8424 15.2524L29.2809 15.5897ZM27.7705 16.2162L28.1603 16.5536L28.5988 15.6861L27.7705 16.2162ZM31.0349 17.421L29.7194 17.903L29.1347 18.4331L28.6962 17.9511L29.2809 17.421L29.9143 16.1198L30.3528 16.6018L29.8656 17.6138L30.8887 17.2283L31.0349 17.421ZM31.8144 18.5295L30.4015 20.168L30.0604 19.6379L30.3528 19.3005L30.0117 18.7704L29.5245 18.915L29.4271 18.7222L31.5221 18.0957L31.8144 18.5295ZM30.2066 18.7222L30.4989 19.156L31.1323 18.4331L30.2066 18.7222ZM33.0324 20.7945L31.1323 21.7102L30.9374 21.2764L31.7657 19.9271L30.5476 20.5054L30.4502 20.3126L32.3503 19.3969L32.5452 19.7343L31.6682 21.2283L32.9837 20.6018L33.0324 20.7945ZM33.4709 21.903L31.4733 22.6258L31.2785 22.0475L33.276 21.3246L33.4709 21.903ZM20.0239 42.3367C18.0263 41.3728 16.5647 41.1801 15.0056 41.7584C13.7876 42.1921 12.5696 42.9632 11.1567 43.3969L11.1079 43.9752C12.5209 43.6379 13.4953 42.8668 14.7133 42.3849C16.2724 41.8066 17.9776 41.9993 20.0239 42.915C22.0215 41.9993 23.7267 41.8066 25.2858 42.3849C26.5038 42.8668 27.4782 43.6379 28.8911 43.9752L28.8424 43.3969C27.4295 42.9632 26.2115 42.1921 24.9934 41.7584C23.4344 41.1801 21.9727 41.3728 20.0239 42.3367ZM20.0239 41.9511C21.9727 40.9873 23.5805 40.8427 25.0909 41.421C26.4064 41.903 27.4295 42.7704 28.7937 43.0596L28.5988 41.8066C27.1372 41.5656 26.114 40.6017 24.7986 40.0716C23.6293 39.6379 22.3625 39.6379 20.9009 40.2162C20.6573 40.6018 20.3162 40.9391 20.0239 41.0837C19.6828 40.9391 19.3418 40.6018 19.0982 40.2162C17.6366 39.6379 16.3698 39.6379 15.2005 40.0716C13.885 40.6017 12.8619 41.5656 11.4003 41.8066L11.2054 43.0596C12.5696 42.7704 13.5927 41.903 14.9082 41.421C16.4185 40.8427 18.0263 40.9873 20.0239 41.9511ZM20.7547 40.0716C20.8522 39.8789 20.9983 39.6861 21.047 39.4451C21.0958 39.1078 21.1445 38.915 20.9983 38.2885C20.8522 37.7102 20.4137 36.8909 20.0239 36.6499C19.5854 36.8909 19.1956 37.5174 19.0008 38.2885C18.9033 38.7222 18.9033 39.1078 18.952 39.4451C19.0982 39.8307 19.2931 40.168 19.488 40.3608C19.6828 40.5054 19.829 40.6499 20.0239 40.7463C20.2675 40.6017 20.5111 40.3608 20.7547 40.0716ZM20.0239 29.3246C19.9752 29.5174 19.5367 30.2885 19.0982 31.0596C19.6828 31.4933 20.0239 31.8307 20.1701 32.3126C20.3649 32.8427 20.2675 33.5174 19.9752 34.5777L19.6341 34.4813C19.9265 33.4692 19.9752 32.8909 19.829 32.409C19.6828 32.0234 19.3905 31.6861 18.952 31.3487C18.6597 31.8307 18.3674 32.3126 18.2212 32.5054C17.8802 33.1319 17.4904 34.1921 17.6366 34.8668C17.8314 35.5415 18.2212 35.8307 18.4648 36.168C18.952 35.8307 19.2444 35.5897 20.0239 35.5897C20.7547 35.5897 21.047 35.8307 21.5342 36.168C21.7779 35.8307 22.1676 35.5415 22.3625 34.8668C22.5087 34.1921 22.1189 33.1319 21.7779 32.5054C21.3881 31.9271 20.0239 29.7102 20.0239 29.3246ZM20.0239 23.4451C19.829 23.8307 18.7084 24.6499 18.5623 24.8427C18.3674 25.0837 18.1725 25.6138 18.5623 26.1439C19.2444 26.1439 19.7316 26.9632 20.0239 27.4933C20.2675 26.9632 20.7547 26.1439 21.4368 26.1439C21.8266 25.6138 21.6317 25.0837 21.4368 24.8427C21.2906 24.6499 20.1701 23.8307 20.0239 23.4451ZM21.3394 28.2644C21.2419 29.3728 21.6804 31.0596 23.6293 31.8307C23.3856 30.8186 22.3625 28.7463 21.3394 28.2644ZM18.6597 28.2644C17.6366 28.7463 16.6134 30.8186 16.3698 31.8307C18.3187 31.0596 18.7571 29.3728 18.6597 28.2644ZM20.0239 16.5054C19.9265 16.6981 19.5367 16.9391 19.1956 17.1319C18.7571 17.421 18.5135 17.8548 18.5623 18.5295L18.8546 22.7222L18.611 23.0114L17.9776 17.1319C17.7827 17.4692 17.4417 18.1921 17.1494 18.4813C16.7109 18.8668 16.5647 19.4451 16.7109 20.0234L17.6366 24.1198L17.3442 24.4572L16.0775 19.2524C15.7852 18.7222 15.5903 18.4331 15.0543 18.3849C14.4697 18.3367 13.885 18.7704 13.2517 19.3487C13.9825 19.4451 14.3723 19.4451 14.5671 20.2644L17.0032 29.5174C17.4904 28.8909 17.8314 28.168 18.611 27.9271C18.5623 27.0114 18.1238 26.3367 17.9776 25.4692C17.734 24.409 20.0239 23.5897 20.0239 22.6258C20.0239 23.5897 22.2651 24.409 22.0215 25.4692C21.8753 26.3367 21.4368 27.0114 21.3881 27.9271C22.1676 28.168 22.5087 28.8909 22.9959 29.5174L25.4319 20.2644C25.6268 19.4451 26.0166 19.4451 26.7474 19.3487C26.114 18.7704 25.5294 18.3367 24.9447 18.3849C24.4088 18.4331 24.2139 18.7222 23.9216 19.2524L22.6548 24.4572L22.3625 24.1198L23.2882 20.0234C23.4344 19.4451 23.2882 18.8668 22.8497 18.4813C22.5574 18.1921 22.2163 17.4692 22.0215 17.1319L21.3881 23.0114L21.1445 22.7222L21.4368 18.5295C21.4855 17.8548 21.2419 17.421 20.8034 17.1319C20.4624 16.9391 20.0726 16.6981 20.0239 16.5054ZM28.3552 38.8186C29.1347 39.0596 30.0117 39.156 30.4502 39.0596C31.181 38.9632 31.8631 37.9993 32.0093 37.3728C31.6682 37.6138 30.4989 37.9993 29.7194 37.903L29.9143 37.5656C30.6451 37.5174 31.5708 37.3246 32.3016 36.9391C32.935 36.6017 33.1299 36.0234 33.276 35.4933C32.935 35.6861 32.2042 35.8789 31.7657 35.9752C31.3272 36.0716 30.9374 36.0716 30.4015 36.1198L30.6451 35.6861C31.0349 35.6379 32.1554 35.5415 32.7888 35.2524C33.7632 34.7704 34.0556 34.0957 34.153 33.0837C33.5196 33.7584 32.2042 34.1921 31.1323 34.1921L31.3272 33.8066C31.8631 33.8066 32.6427 33.662 33.276 33.2764C34.0556 32.8427 34.4941 31.9752 34.4941 31.2524C34.3966 31.3487 33.8607 31.7343 33.1786 31.9271C32.4478 32.2162 31.6195 32.2644 31.3759 32.2162L31.5708 31.7825C32.3503 31.6861 32.9837 31.7825 33.9094 31.2042C34.2992 30.9632 34.7864 30.5295 34.9325 30.0957C35.1761 29.3728 35.1274 27.7343 34.5915 27.2042C34.3479 26.7222 33.5196 25.8066 33.276 25.1801C33.3247 26.2403 33.7632 26.6258 34.0556 27.3969C34.2504 28.0716 34.0068 29.0355 33.5684 29.421C32.8863 29.9993 31.0836 29.9511 30.4502 29.7584C29.7681 29.5174 28.4526 28.6017 27.7218 28.409C27.0885 28.2644 26.5525 28.3126 26.3576 28.6981C25.9679 29.7102 26.2115 30.7704 26.6012 31.7343C26.991 32.5536 27.3808 33.2764 27.4782 34.0957C27.5269 34.5777 27.4295 35.8307 26.8448 36.6981C26.3576 37.4692 25.4319 37.8066 24.3601 38.1439C26.7474 38.2403 27.6244 38.5777 28.3552 38.8186ZM20.0239 35.9752C19.3418 35.9752 19.0495 36.2644 18.611 36.6018C17.7827 36.1198 17.1981 34.8668 17.3442 33.9511C17.4904 33.1801 18.2699 31.9271 18.8546 30.915C19.2931 30.1439 19.7316 29.0837 20.0239 28.5536C20.2675 29.0837 20.706 30.1439 21.1445 30.915C21.7291 31.9271 22.5087 33.1801 22.6548 33.9511C22.801 34.8668 22.2163 36.1198 21.3881 36.6018C20.9496 36.2644 20.6573 35.9752 20.0239 35.9752ZM20.0239 28.2162C19.8777 27.9271 19.488 27.2524 19.3418 27.0114C19.1956 26.8186 19.0982 26.6258 18.7571 26.6258C19.2444 27.8307 19.0982 29.4692 18.4161 30.674C17.9776 31.3969 17.1494 31.9752 16.2724 32.168C16.1749 32.5054 16.1262 32.6981 16.1262 33.0837C15.0543 32.8427 14.8107 32.0716 14.9082 31.2042C15.0543 30.5777 15.2492 29.8066 15.1031 29.2764C14.9082 28.7945 14.7133 28.409 13.9338 28.6018C14.1774 29.2283 14.2748 29.903 14.1286 30.6258C13.6414 32.8909 12.1798 33.8548 13.3491 36.1198C13.9825 37.3728 15.5416 37.7584 16.4673 37.8548C17.7827 37.9993 18.2212 38.9632 18.611 39.3005C18.5623 38.9632 18.611 38.5777 18.7084 38.1439C18.952 37.2764 19.4392 36.5536 20.0239 36.2644C20.5598 36.5536 21.047 37.2764 21.2906 38.1439C21.3881 38.5777 21.4368 38.9632 21.3881 39.3005C21.7779 38.9632 22.2163 37.9993 23.5318 37.8548C24.4575 37.7584 26.0166 37.3728 26.65 36.1198C27.8193 33.8548 26.3576 32.8909 25.8704 30.6258C25.7243 29.903 25.8217 29.2283 26.0653 28.6018C25.2858 28.409 25.0909 28.7945 24.896 29.2764C24.7498 29.8066 24.9447 30.5777 25.0909 31.2042C25.1883 32.0716 24.9447 32.8427 23.8729 33.0837C23.8729 32.6981 23.8241 32.5054 23.7267 32.168C22.8497 31.9752 22.0215 31.3969 21.583 30.674C20.9009 29.4692 20.7547 27.8307 21.2419 26.6258C20.9009 26.6258 20.8034 26.8186 20.6573 27.0114C20.5111 27.2524 20.1213 27.9271 20.0239 28.2162ZM11.6439 38.8186C12.3747 38.5777 13.2517 38.2403 15.639 38.1439C14.5671 37.8066 13.6414 37.4692 13.1542 36.6981C12.5696 35.8307 12.4721 34.5777 12.5209 34.0957C12.6183 33.2764 13.0081 32.5536 13.3978 31.7343C13.7876 30.7704 14.0312 29.7102 13.6414 28.6981C13.4466 28.3126 12.9106 28.2644 12.2772 28.409C11.5464 28.6017 10.231 29.5174 9.54887 29.7584C8.91549 29.9511 7.11281 29.9993 6.43072 29.421C5.99223 29.0355 5.74862 28.0716 5.94351 27.3969C6.23583 26.6258 6.67432 26.2403 6.72304 25.1801C6.47944 25.8066 5.65118 26.7222 5.40757 27.2042C4.87164 27.7343 4.82292 29.3728 5.06653 30.0957C5.21269 30.5295 5.6999 30.9632 6.08967 31.2042C7.01537 31.7825 7.64874 31.6861 8.42828 31.7825L8.62316 32.2162C8.37956 32.2644 7.5513 32.2162 6.82048 31.9271C6.13839 31.7343 5.60246 31.3487 5.50502 31.2524C5.50502 31.9752 5.94351 32.8427 6.72304 33.2764C7.35642 33.662 8.13595 33.8066 8.67189 33.8066L8.86677 34.1921C7.79491 34.1921 6.47944 33.7584 5.84606 33.0837C5.94351 34.0957 6.23583 34.7704 7.21025 35.2524C7.84363 35.5415 8.96421 35.6379 9.35398 35.6861L9.59759 36.1198C9.06165 36.0716 8.67189 36.0716 8.2334 35.9752C7.79491 35.8789 7.06409 35.6861 6.72304 35.4933C6.86921 36.0234 7.06409 36.6017 7.69746 36.9391C8.42828 37.3246 9.35398 37.5174 10.0848 37.5656L10.2797 37.903C9.50014 37.9993 8.33084 37.6138 7.98979 37.3728C8.13595 37.9993 8.81805 38.9632 9.54887 39.0596C9.98736 39.156 10.8643 39.0596 11.6439 38.8186ZM16.0775 31.9752L16.1749 31.6379L16.2237 31.5415V31.4451L16.2724 31.3005L16.3211 31.2042L16.3698 31.0596L16.4185 30.915L16.4673 30.8186L16.516 30.674L16.6134 30.5295L16.6621 30.3849L16.7109 30.2403L16.8083 30.1439L16.857 29.9993L16.9057 29.9511L14.3235 20.3126V20.2644V20.2162L14.2748 20.1198V20.0716L14.2261 20.0234V19.9752H14.1774V19.9271V19.8789H14.1286V19.8307H14.0799V19.7825H14.0312L13.9825 19.7343H13.9338L13.885 19.6861H13.8363H13.7876H13.7389L13.6902 19.6379H13.6414H13.5927H13.544H13.4953H13.4466L13.3491 19.5897H13.3004L12.7645 19.5415L13.1542 19.156L13.2029 19.0596L13.2517 19.0114L13.3004 18.9632L13.3978 18.915L13.4466 18.8668L13.4953 18.8186L13.544 18.7704L13.6414 18.7222L13.6902 18.674L13.7389 18.6258L13.7876 18.5777L13.8363 18.5295L13.9338 18.4813H13.9825L14.0312 18.4331L14.0799 18.3849L14.1774 18.3367H14.2261L14.2748 18.2885H14.3235L14.421 18.2403H14.4697L14.5184 18.1921H14.6159H14.6646H14.7133L14.8107 18.1439H14.8595H14.9082H15.0056H15.0543H15.1031L15.1518 18.1921H15.2492H15.298H15.3467L15.3954 18.2403H15.4441H15.4928L15.5416 18.2885H15.5903L15.639 18.3367H15.6877L15.7364 18.3849L15.7852 18.4331L15.8339 18.4813L15.8826 18.5295L15.9313 18.5777L15.98 18.6258V18.674L16.0288 18.7222L16.0775 18.7704L16.1262 18.8186V18.8668L16.1749 18.915V18.9632L16.2237 19.0114V19.0596L16.2724 19.1078V19.2042L16.4185 19.7343V19.6861V19.6379V19.5897V19.5415V19.4451V19.3969V19.3487V19.3005L16.4673 19.2042V19.156V19.1078V19.0596L16.516 19.0114V18.915L16.5647 18.8668V18.8186L16.6134 18.7704V18.7222L16.6621 18.674L16.7109 18.6258V18.5777L16.7596 18.5295L16.8083 18.4813L16.857 18.4331L16.9057 18.3849L16.9545 18.3367V18.2885H17.0032V18.2403H17.0519V18.1921L17.1006 18.1439L17.1494 18.0957V18.0475L17.1981 17.9993L17.2468 17.9511L17.2955 17.903V17.8548L17.3442 17.8066V17.7584L17.393 17.7102V17.662L17.4417 17.6138L17.4904 17.5656V17.5174L17.5391 17.4692V17.421L17.5878 17.3728V17.3246L17.6366 17.2764V17.2283L17.6853 17.1801L17.734 17.1319V17.0837L17.7827 17.0355L18.1725 16.4572L18.3187 18.0475V17.9511L18.3674 17.903V17.8548V17.8066L18.4161 17.7584V17.662L18.4648 17.6138V17.5656L18.5135 17.5174V17.4692L18.5623 17.421L18.611 17.3728V17.3246L18.6597 17.2764H18.7084L18.7571 17.2283V17.1801L18.8059 17.1319L18.8546 17.0837H18.9033L18.952 17.0355L19.0008 16.9873H19.0495L19.0982 16.9391L19.1469 16.8909L19.1956 16.8427H19.2444L19.3418 16.7945L19.3905 16.7463L19.4392 16.6981L19.488 16.6499H19.5367L19.5854 16.6018L19.6341 16.5536L19.6828 16.5054H19.7316V16.4572H19.7803V16.409L20.0239 15.9752L20.2188 16.409V16.4572H20.2675V16.5054H20.3162L20.3649 16.5536L20.4137 16.6018L20.4624 16.6499H20.5111L20.5598 16.6981L20.6085 16.7463L20.6573 16.7945L20.7547 16.8427H20.8034L20.8522 16.8909L20.9009 16.9391L20.9496 16.9873H20.9983L21.047 17.0355L21.0958 17.0837H21.1445L21.1932 17.1319L21.2419 17.1801V17.2283L21.2906 17.2764H21.3394L21.3881 17.3246V17.3728L21.4368 17.421L21.4855 17.4692V17.5174L21.5342 17.5656V17.6138L21.583 17.662V17.7584L21.6317 17.8066V17.8548V17.903L21.6804 17.9511V18.0475L21.8266 16.4572L22.2163 17.0355L22.2651 17.0837V17.1319L22.3138 17.1801L22.3625 17.2283V17.2764L22.4112 17.3246V17.3728L22.4599 17.421V17.4692L22.5087 17.5174V17.5656L22.5574 17.6138L22.6061 17.662V17.7102L22.6548 17.7584V17.8066L22.7036 17.8548V17.903L22.7523 17.9511L22.801 17.9993L22.8497 18.0475V18.0957L22.8984 18.1439L22.9472 18.1921V18.2403H22.9959V18.2885H23.0446V18.3367L23.0933 18.3849L23.142 18.4331L23.1908 18.4813L23.2395 18.5295L23.2882 18.5777V18.6258L23.3369 18.674L23.3856 18.7222V18.7704L23.4344 18.8186V18.8668L23.4831 18.915V19.0114L23.5318 19.0596V19.1078V19.156V19.2042L23.5805 19.3005V19.3487V19.3969V19.4451V19.5415V19.5897V19.6379V19.6861V19.7343L23.7267 19.2042V19.1078L23.7754 19.0596V19.0114L23.8241 18.9632V18.915L23.8729 18.8668V18.8186L23.9216 18.7704L23.9703 18.7222L24.019 18.674V18.6258L24.0677 18.5777L24.1165 18.5295L24.1652 18.4813L24.2139 18.4331L24.2626 18.3849L24.3113 18.3367H24.3601L24.4088 18.2885H24.4575L24.5062 18.2403H24.555H24.6037L24.6524 18.1921H24.7011H24.7498H24.8473L24.896 18.1439H24.9447H24.9934H25.0909H25.1396H25.1883L25.2858 18.1921H25.3345H25.3832H25.4807L25.5294 18.2403H25.5781L25.6755 18.2885H25.7243L25.773 18.3367H25.8217L25.9191 18.3849L25.9679 18.4331L26.0166 18.4813H26.0653L26.1628 18.5295L26.2115 18.5777L26.2602 18.6258L26.3089 18.674L26.3576 18.7222L26.4551 18.7704L26.5038 18.8186L26.5525 18.8668L26.6012 18.915L26.6987 18.9632L26.7474 19.0114L26.7961 19.0596L26.8448 19.156L27.2346 19.5415L26.6987 19.5897H26.65L26.5525 19.6379H26.5038H26.4551H26.4064H26.3576H26.3089L26.2602 19.6861H26.2115H26.1628H26.114L26.0653 19.7343H26.0166L25.9679 19.7825H25.9191V19.8307H25.8704V19.8789H25.8217V19.9271V19.9752H25.773V20.0234L25.7243 20.0716V20.1198L25.6755 20.2162V20.2644V20.3126L23.0933 29.9511L23.142 29.9993L23.1908 30.1439L23.2882 30.2403L23.3369 30.3849L23.3856 30.5295L23.4831 30.674L23.5318 30.8186L23.5805 30.915L23.6293 31.0596L23.678 31.2042L23.7267 31.3005L23.7754 31.4451V31.5415L23.8241 31.6379L23.9216 31.9752L23.9703 32.168L24.019 32.2162V32.3126V32.3608L24.0677 32.409V32.4572V32.5054V32.6018V32.6499V32.6981V32.7463H24.1165L24.2139 32.6981H24.2626L24.3113 32.6499L24.3601 32.6018L24.4088 32.5536L24.4575 32.5054H24.5062L24.555 32.4572L24.6037 32.409L24.6524 32.3608V32.3126L24.7011 32.2644L24.7498 32.2162V32.168L24.7986 32.0716V32.0234V31.9752L24.8473 31.9271V31.8789V31.7825V31.7343V31.6861V31.5897V31.5415V31.4451V31.3969V31.3005V31.2524L24.7986 31.2042V31.1078V31.0596V31.0114L24.7498 30.8186V30.7222V30.674L24.7011 30.6258V30.5295V30.4813V30.4331L24.6524 30.3367V30.2885V30.2403V30.1439V30.0957V30.0475V29.9511L24.6037 29.903V29.8548V29.7584V29.7102V29.662V29.5656L24.6524 29.5174V29.4692V29.421V29.3246V29.2764L24.7011 29.2283V29.1801V29.1319L24.7498 29.0837V29.0355V28.9873L24.7986 28.9391V28.8909L24.8473 28.8427V28.7945L24.896 28.7463V28.6981L24.9447 28.6499L24.9934 28.6018H25.0422V28.5536L25.0909 28.5054L25.1396 28.4572H25.1883L25.2371 28.409H25.2858L25.3832 28.3608H25.4319H25.4807L25.5294 28.3126H25.6268H25.6755H25.7243H25.8217H25.8704L25.9679 28.3608H26.0166L26.2602 28.409L26.3089 28.3608L26.3576 28.3126L26.4064 28.2644L26.4551 28.2162H26.5038L26.5525 28.168H26.6012H26.65L26.6987 28.1198H26.7474H26.8448H26.8936H26.9423H26.991L27.0397 28.0716H27.0885H27.1372H27.2346L27.2833 28.1198H27.3321H27.3808H27.4782H27.5269H27.5757H27.6244L27.7218 28.168H27.7705L27.868 28.2162H27.9654L28.0142 28.2644L28.1116 28.3126H28.209L28.3065 28.3608L28.4039 28.409L28.4526 28.4572L28.5501 28.5054L28.6475 28.5536L28.745 28.6018L28.8424 28.6499L28.9399 28.6981L29.0373 28.7463L29.1347 28.7945L29.2322 28.8909L29.3296 28.9391L29.4271 28.9873L29.5245 29.0355L29.6219 29.0837L29.7194 29.1319L29.7681 29.1801L29.8656 29.2283L29.963 29.2764L30.0604 29.3246L30.1092 29.3728H30.2066L30.2553 29.421L30.3528 29.4692H30.4015L30.4989 29.5174H30.5476L30.5964 29.5656H30.6451H30.7425H30.7913L30.8887 29.6138H30.9374H31.0349H31.1323H31.2297L31.3272 29.662H31.4246H31.5221H31.6682H31.7657H31.8631L31.9606 29.6138H32.1067H32.2042H32.3016H32.399L32.4965 29.5656H32.6427L32.7401 29.5174H32.8375L32.8863 29.4692H32.9837L33.0811 29.421L33.1786 29.3728L33.2273 29.3246H33.276L33.3735 29.2764L33.4222 29.2283V29.1801H33.4709L33.5196 29.1319V29.0837L33.5684 29.0355V28.9873H33.6171V28.9391L33.6658 28.8427L33.7145 28.7945V28.7463V28.6981L33.7632 28.6499V28.6018L33.812 28.5054V28.4572V28.409L33.8607 28.3126V28.2644V28.2162V28.1198V28.0716V28.0234V27.9271V27.8789V27.8307V27.7825V27.6861V27.6379V27.5897L33.812 27.5415V27.4933V27.4451L33.7632 27.3487V27.3005L33.7145 27.2524V27.156L33.6658 27.1078L33.6171 27.0596V27.0114L33.5684 26.915V26.8668L33.5196 26.8186L33.4709 26.7704V26.674L33.4222 26.6258L33.3735 26.5777V26.5295L33.3247 26.4331V26.3849L33.276 26.2885L33.2273 26.2403V26.1921L33.1786 26.0957V25.9993L33.1299 25.9511V25.8548V25.7584L33.0811 25.7102V25.6138V25.5174L33.0324 25.421V25.3246L32.935 23.8789L33.5196 25.1319V25.2283L33.5684 25.2764L33.6171 25.3246V25.3728L33.6658 25.421L33.7145 25.5174L33.7632 25.5656L33.812 25.6138L33.8607 25.7102L33.9094 25.7584V25.8066L33.9581 25.903L34.0068 25.9511L34.0556 26.0475L34.153 26.0957L34.2017 26.1921L34.2992 26.2885L34.3479 26.3849L34.3966 26.4331L34.4453 26.5295L34.4941 26.5777V26.6258L34.5428 26.7222L34.5915 26.7704L34.6402 26.8186L34.6889 26.8668L34.7377 26.9632V27.0114L34.7864 27.0596V27.1078H34.8351L34.8838 27.2042L34.9325 27.2524L34.9813 27.3487L35.03 27.4451L35.0787 27.5415L35.1274 27.6379V27.7343L35.1761 27.8307V27.9271L35.2249 28.0234V28.1198L35.2736 28.2162V28.3126V28.4572L35.3223 28.5536V28.6499V28.7945V28.8909V28.9873V29.0837V29.2283V29.3246V29.421V29.5174L35.2736 29.6138V29.7102V29.8066L35.2249 29.903V29.9993L35.1761 30.0957V30.1439L35.1274 30.1921V30.2403V30.2885L35.0787 30.3367V30.3849L35.03 30.4331L34.9813 30.4813V30.5295L34.9325 30.5777L34.8838 30.6258V30.674L34.8351 30.7222L34.7864 30.7704V30.8186H34.7377L34.6889 30.8668L34.6402 30.915V30.9632H34.5915L34.7377 31.156V31.3005V31.3969V31.4451V31.5415L34.6889 31.6379V31.6861V31.7825L34.6402 31.8789V31.9271L34.5915 32.0234V32.1198L34.5428 32.168L34.4941 32.2644V32.3608L34.4453 32.409L34.3966 32.5054L34.3479 32.5536L34.2992 32.6499L34.2505 32.6981L34.2017 32.7463L34.3966 32.9873V33.1801V33.2764L34.3479 33.3728V33.4692V33.5656L34.2992 33.662V33.7584L34.2505 33.8548V33.9511L34.2017 33.9993V34.0957L34.153 34.1921L34.1043 34.2403V34.3367L34.0556 34.4331L34.0068 34.4813L33.9581 34.5777L33.9094 34.6258L33.8607 34.7222L33.812 34.7704L33.7632 34.8668L33.6658 34.915L33.6171 34.9632L33.5684 35.0596L33.4709 35.1078L33.4222 35.156L33.5196 35.4451V35.5897L33.4709 35.6379V35.6861V35.7343L33.4222 35.8307V35.8789V35.9271L33.3735 35.9752V36.0234L33.3247 36.0716V36.1198L33.276 36.168V36.2644L33.2273 36.3126V36.3608L33.1786 36.409L33.1299 36.4572V36.5054L33.0811 36.5536L33.0324 36.6018L32.9837 36.6499V36.6981L32.935 36.7463L32.8863 36.7945L32.8375 36.8427L32.7888 36.8909L32.7401 36.9391L32.6427 36.9873L32.5939 37.0355L32.5452 37.0837H32.4965L32.399 37.1319L32.3503 37.1801L32.2529 37.2283V37.421V37.5174L32.2042 37.6138V37.662L32.1554 37.7584V37.8066L32.1067 37.8548L32.058 37.9511L32.0093 37.9993L31.9606 38.0957L31.9118 38.1439V38.2403L31.8631 38.2885L31.8144 38.3849L31.717 38.4331L31.6682 38.5295L31.6195 38.5777L31.5708 38.6258L31.5221 38.7222L31.4246 38.7704L31.3759 38.8186L31.3272 38.915L31.2297 38.9632L31.181 39.0114L31.1323 39.0596L31.0349 39.1078L30.9861 39.156L30.8887 39.2042H30.7913L30.7425 39.2524L30.6451 39.3005H30.5476H30.4989L30.4502 39.3487H30.3528H30.304H30.2553H30.2066H30.1579H30.1092H30.0604H29.963H29.9143H29.8656H29.7681L29.7194 39.3005H29.6219H29.5732H29.4758H29.4271H29.3296L29.2809 39.2524H29.1835H29.1347L29.0373 39.2042H28.9886H28.8911L28.7937 39.156H28.745H28.6475L28.5988 39.1078H28.5014L28.4526 39.0596H28.3552L28.3065 39.0114H28.209L28.1603 38.9632H28.0629L28.0142 38.915H27.9167L27.8193 38.8668H27.7705L27.6731 38.8186H27.5757L27.5269 38.7704H27.4295L27.3321 38.7222H27.2346L27.1372 38.674H27.0397L26.8936 38.6258H26.7961L26.6987 38.5777H26.5525H26.4064L26.3089 38.5295H26.1628L26.0166 38.4813H25.8704H25.6755L25.5294 38.4331H25.3345H25.1396H24.9447L24.7498 38.3849H24.555L22.9472 38.3367H22.7523L22.6548 38.3849L22.6061 38.4331L22.5087 38.4813L22.4599 38.5295L22.4112 38.5777L22.3625 38.6258L22.2651 38.674L22.2163 38.7222L22.1676 38.7704L22.1189 38.8186L22.0702 38.8668L22.0215 38.9632L21.9727 39.0114L21.924 39.0596L21.8753 39.1078V39.156L21.8266 39.2042L21.7779 39.2524L21.7291 39.3005L21.6804 39.3487L21.6317 39.3969L21.583 39.4451L21.1445 39.8789L21.2906 39.8307L21.4368 39.7825L21.6317 39.7343L21.7779 39.6861L21.924 39.6379H22.0702L22.2163 39.5897H22.3138L22.4599 39.5415H22.6061H22.7523H22.8984H23.0446H23.1908H23.3369H23.4344H23.5805H23.7267L23.8729 39.5897H23.9703L24.1165 39.6379H24.2626L24.4088 39.6861L24.5062 39.7343L24.6524 39.7825L24.7986 39.8307L24.896 39.8789L25.0422 39.9271L25.1396 39.9752L25.2858 40.0234L25.3832 40.0716L25.5294 40.168L25.6268 40.2162L25.773 40.2644L25.8704 40.3126L25.9679 40.409L26.114 40.4572L26.2115 40.5054L26.3089 40.6018L26.4551 40.6499L26.5525 40.6981L26.65 40.7945L26.7474 40.8427L26.8936 40.8909L26.991 40.9873L27.0885 41.0355L27.2346 41.0837L27.3321 41.1319L27.4295 41.1801L27.5757 41.2283L27.6731 41.2764L27.7705 41.3246L27.9167 41.3728L28.0142 41.421L28.1116 41.4692H28.2578L28.3552 41.5174H28.5014L28.7937 41.5656L29.0373 43.2042L29.1835 44.3126L28.6962 44.168L28.5988 44.1198L28.4526 44.0716L28.3065 44.0234H28.209L28.0629 43.9752L27.9167 43.9271L27.8193 43.8789L27.7218 43.8307L27.5757 43.7343L27.4782 43.6861L27.3321 43.6379L27.2346 43.5897L27.1372 43.5415L26.991 43.4933L26.8936 43.4451L26.7961 43.3969L26.6987 43.3005L26.6012 43.2524L26.4551 43.2042L26.3576 43.156L26.2602 43.1078L26.1628 43.0596L26.0653 43.0114L25.9679 42.9632L25.8217 42.915L25.7243 42.8668L25.6268 42.8186L25.5294 42.7704L25.4319 42.7222L25.2858 42.674L25.1883 42.6258L25.0422 42.5777L24.896 42.5295L24.7986 42.4813L24.6524 42.4331H24.5062L24.3601 42.3849H24.2139L24.0677 42.3367H23.9216H23.7754L23.6293 42.2885H23.4831H23.2882H23.142L22.9959 42.3367H22.8497H22.7036L22.5087 42.3849H22.3625L22.2163 42.4331L22.0215 42.4813H21.8753L21.6804 42.5295L21.5342 42.5777L21.3394 42.674L21.1932 42.7222L20.9983 42.7704L20.8522 42.8186L20.6573 42.915L20.4624 42.9632L20.2675 43.0596L20.0239 43.2042L19.7316 43.0596L19.5367 42.9632L19.3418 42.915L19.1469 42.8186L19.0008 42.7704L18.8059 42.7222L18.6597 42.674L18.4648 42.5777L18.3187 42.5295L18.1238 42.4813H17.9776L17.7827 42.4331L17.6366 42.3849H17.4904L17.2955 42.3367H17.1494H17.0032L16.857 42.2885H16.7109H16.516H16.3698L16.2237 42.3367H16.0775H15.9313L15.7852 42.3849H15.639L15.4928 42.4331H15.3467L15.2005 42.4813L15.1031 42.5295L14.9569 42.5777L14.8107 42.6258L14.7133 42.674L14.5671 42.7222L14.4697 42.7704L14.3723 42.8186L14.2748 42.8668L14.1774 42.915L14.0312 42.9632L13.9338 43.0114L13.8363 43.0596L13.7389 43.1078L13.6414 43.156L13.544 43.2042L13.3978 43.2524L13.3004 43.3005L13.2029 43.3969L13.1055 43.4451L13.0081 43.4933L12.8619 43.5415L12.7645 43.5897L12.667 43.6379L12.5209 43.6861L12.4234 43.7343L12.2772 43.8307L12.1798 43.8789L12.0824 43.9271L11.9362 43.9752L11.79 44.0234H11.6926L11.5464 44.0716L11.4003 44.1198L11.3028 44.168L10.8156 44.3126L10.9618 43.2042L11.2054 41.5656L11.4977 41.5174H11.6439L11.7413 41.4692H11.8875L11.9849 41.421L12.0824 41.3728L12.2285 41.3246L12.326 41.2764L12.4234 41.2283L12.5696 41.1801L12.667 41.1319L12.7645 41.0837L12.9106 41.0355L13.0081 40.9873L13.1055 40.8909L13.2517 40.8427L13.3491 40.7945L13.4466 40.6981L13.544 40.6499L13.6902 40.6018L13.7876 40.5054L13.885 40.4572L14.0312 40.409L14.1286 40.3126L14.2261 40.2644L14.3723 40.2162L14.4697 40.168L14.6159 40.0716L14.7133 40.0234L14.8595 39.9752L14.9569 39.9271L15.1031 39.8789L15.2005 39.8307L15.3467 39.7825L15.4928 39.7343L15.5903 39.6861L15.7364 39.6379H15.8826L16.0288 39.5897H16.1262L16.2724 39.5415H16.4185H16.5647H16.6621H16.8083H16.9545H17.1006H17.2468H17.393H17.5391L17.6853 39.5897H17.7827L17.9289 39.6379H18.0751L18.2212 39.6861L18.3674 39.7343L18.5623 39.7825L18.7084 39.8307L18.8546 39.8789L18.4161 39.4451L18.3674 39.3969L18.3187 39.3487L18.2699 39.3005L18.2212 39.2524L18.1725 39.2042L18.1238 39.156V39.1078L18.0751 39.0596L18.0263 39.0114L17.9776 38.9632L17.9289 38.8668L17.8802 38.8186L17.8314 38.7704L17.7827 38.7222L17.734 38.674L17.6366 38.6258L17.5878 38.5777L17.5391 38.5295L17.4904 38.4813L17.393 38.4331L17.3442 38.3849L17.2468 38.3367H17.0519L15.4441 38.3849H15.2492L15.0543 38.4331H14.8595H14.6646H14.4697L14.3235 38.4813H14.1286H13.9825L13.8363 38.5295H13.6902L13.5927 38.5777H13.4466H13.3004L13.2029 38.6258H13.1055L12.9593 38.674H12.8619L12.7645 38.7222H12.667L12.5696 38.7704H12.4721L12.4234 38.8186H12.326L12.2285 38.8668H12.1798L12.0824 38.915H11.9849L11.9362 38.9632H11.8388L11.79 39.0114H11.6926L11.6439 39.0596H11.5464L11.4977 39.1078H11.4003L11.3515 39.156H11.2541H11.2054L11.1079 39.2042H11.0105H10.9618L10.8643 39.2524H10.8156H10.7182L10.6694 39.3005H10.572H10.5233H10.4258H10.3771H10.2797L10.231 39.3487H10.1335H10.0848H10.0361H9.93863H9.88991H9.84119H9.79247H9.74375H9.69503H9.64631H9.54887L9.50014 39.3005H9.45142H9.35398L9.25654 39.2524L9.20782 39.2042H9.11038L9.01293 39.156L8.96421 39.1078L8.86677 39.0596L8.81805 39.0114L8.76933 38.9632L8.67189 38.915L8.62316 38.8186L8.57444 38.7704L8.477 38.7222L8.42828 38.6258L8.37956 38.5777L8.33084 38.5295L8.28212 38.4331L8.18467 38.3849L8.13595 38.2885L8.08723 38.2403V38.1439L8.03851 38.0957L7.98979 37.9993L7.94107 37.9511L7.89235 37.8548L7.84363 37.8066V37.7584L7.79491 37.662V37.6138L7.74619 37.5174V37.4692L7.69746 37.1801H7.64874L7.60002 37.1319L7.50258 37.0837H7.45386L7.40514 37.0355L7.35642 36.9873L7.25897 36.9391L7.21025 36.8909L7.16153 36.8427L7.11281 36.7945L7.06409 36.7463L7.01537 36.6981V36.6499L6.96665 36.6018L6.91793 36.5536L6.86921 36.5054V36.4572L6.82048 36.409L6.77176 36.3608V36.3126L6.72304 36.2644V36.168L6.67432 36.1198V36.0716L6.6256 36.0234V35.9752L6.57688 35.9271V35.8789V35.8307L6.52816 35.7343V35.6861V35.6379L6.47944 35.5897V35.4451L6.57688 35.156L6.52816 35.1078L6.43072 35.0596L6.382 34.9632L6.33327 34.915L6.23583 34.8668L6.18711 34.7704L6.13839 34.7222L6.08967 34.6258L6.04095 34.5777L5.99223 34.4813L5.94351 34.4331L5.89478 34.3367V34.2403L5.84606 34.1921L5.79734 34.0957V33.9993L5.74862 33.9511V33.8548L5.6999 33.7584V33.662L5.65118 33.5656V33.4692V33.3728L5.60246 33.2764V33.1801V32.9873L5.79734 32.7463L5.74862 32.6981L5.6999 32.6499L5.65118 32.5536L5.60246 32.5054L5.55374 32.409L5.50502 32.3608V32.2644L5.45629 32.168L5.40757 32.1198V32.0234L5.35885 31.9271V31.8789L5.31013 31.7825V31.6861V31.6379L5.26141 31.5415V31.4451V31.3969V31.3005V31.156L5.40757 30.9632H5.35885V30.915L5.31013 30.8668L5.26141 30.8186H5.21269V30.7704L5.16397 30.7222L5.11525 30.674V30.6258L5.06653 30.5777L5.01781 30.5295V30.4813L4.96908 30.4331L4.92036 30.3849V30.3367L4.87164 30.2885V30.2403V30.1921L4.82292 30.1439V30.0957L4.7742 29.9993V29.903L4.72548 29.8066V29.7102V29.6138L4.67676 29.5174V29.421V29.3246V29.2283V29.0837V28.9873V28.8909V28.7945V28.6499V28.5536L4.72548 28.4572V28.3126V28.2162L4.7742 28.1198V28.0234L4.82292 27.9271V27.8307L4.87164 27.7343V27.6379L4.92036 27.5415L4.96908 27.4451L5.01781 27.3487L5.06653 27.2524L5.11525 27.2042L5.16397 27.1078H5.21269V27.0596L5.26141 27.0114V26.9632L5.31013 26.8668L5.35885 26.8186L5.40757 26.7704L5.45629 26.7222L5.50502 26.6258V26.5777L5.55374 26.5295L5.60246 26.4331L5.65118 26.3849L5.6999 26.2885L5.79734 26.1921L5.84606 26.0957L5.94351 26.0475L5.99223 25.9511L6.04095 25.903L6.08967 25.8066V25.7584L6.13839 25.7102L6.18711 25.6138L6.23583 25.5656L6.28455 25.5174L6.33327 25.421L6.382 25.3728V25.3246L6.43072 25.2764L6.47944 25.2283V25.1319L7.06409 23.8789L6.96665 25.3246V25.421L6.91793 25.5174V25.6138V25.7102L6.86921 25.7584V25.8548V25.9511L6.82048 25.9993V26.0957L6.77176 26.1921V26.2403L6.72304 26.2885L6.67432 26.3849V26.4331L6.6256 26.5295V26.5777L6.57688 26.6258L6.52816 26.674V26.7704L6.47944 26.8186L6.43072 26.8668V26.915L6.382 27.0114V27.0596L6.33327 27.1078L6.28455 27.156V27.2524L6.23583 27.3005V27.3487L6.18711 27.4451V27.4933V27.5415L6.13839 27.5897V27.6379V27.6861V27.7825V27.8307V27.8789V27.9271V28.0234V28.0716V28.1198V28.2162V28.2644V28.3126L6.18711 28.409V28.4572V28.5054L6.23583 28.6018V28.6499L6.28455 28.6981V28.7463V28.7945L6.33327 28.8427L6.382 28.9391V28.9873H6.43072V29.0355L6.47944 29.0837V29.1319L6.52816 29.1801H6.57688V29.2283L6.6256 29.2764L6.72304 29.3246H6.77176L6.82048 29.3728L6.91793 29.421L7.01537 29.4692H7.11281L7.16153 29.5174H7.25897L7.35642 29.5656H7.50258L7.60002 29.6138H7.69746H7.79491H7.89235H8.03851L8.13595 29.662H8.2334H8.33084H8.477H8.57444H8.67189L8.76933 29.6138H8.86677H8.96421H9.06165H9.11038L9.20782 29.5656H9.25654H9.35398H9.4027L9.45142 29.5174H9.50014L9.59759 29.4692H9.64631L9.74375 29.421L9.79247 29.3728H9.88991L9.93863 29.3246L10.0361 29.2764L10.1335 29.2283L10.231 29.1801L10.2797 29.1319L10.3771 29.0837L10.4746 29.0355L10.572 28.9873L10.6694 28.9391L10.7669 28.8909L10.8643 28.7945L10.9618 28.7463L11.0592 28.6981L11.1567 28.6499L11.2541 28.6018L11.3515 28.5536L11.449 28.5054L11.5464 28.4572L11.5952 28.409L11.6926 28.3608L11.79 28.3126H11.8875L11.9849 28.2644L12.0336 28.2162H12.1311L12.2285 28.168H12.2772L12.3747 28.1198H12.4234H12.4721H12.5209H12.6183H12.667H12.7157L12.7645 28.0716H12.8619H12.9106H12.9593L13.0081 28.1198H13.0568H13.1055H13.1542H13.2517H13.3004L13.3491 28.168H13.3978H13.4466L13.4953 28.2162H13.544L13.5927 28.2644L13.6414 28.3126L13.6902 28.3608L13.7389 28.409L13.9825 28.3608H14.0312L14.1286 28.3126H14.1774H14.2748H14.3235H14.3723H14.4697L14.5184 28.3608H14.5671H14.6159L14.7133 28.409H14.762L14.8107 28.4572H14.8595L14.9082 28.5054L14.9569 28.5536V28.6018H15.0056L15.0543 28.6499L15.1031 28.6981V28.7463L15.1518 28.7945V28.8427L15.2005 28.8909V28.9391L15.2492 28.9873V29.0355V29.0837L15.298 29.1319V29.1801V29.2283L15.3467 29.2764V29.3246V29.421V29.4692V29.5174L15.3954 29.5656V29.662V29.7102V29.7584V29.8548V29.903L15.3467 29.9511V30.0475V30.0957V30.1439V30.2403V30.2885V30.3367L15.298 30.4331V30.4813V30.5295V30.6258L15.2492 30.674V30.7222V30.8186L15.2005 31.0114V31.0596V31.1078V31.2042L15.1518 31.2524V31.3005V31.3969V31.4451V31.5415V31.5897V31.6861V31.7343V31.7825V31.8789V31.9271L15.2005 31.9752V32.0234V32.0716L15.2492 32.168V32.2162L15.298 32.2644L15.3467 32.3126V32.3608L15.3954 32.409L15.4441 32.4572L15.4928 32.5054H15.5416L15.5903 32.5536L15.639 32.6018L15.6877 32.6499L15.7364 32.6981H15.7852L15.8826 32.7463H15.9313V32.6981V32.6499V32.6018V32.5054V32.4572V32.409L15.98 32.3608V32.3126V32.2162L16.0288 32.168L16.0775 31.9752Z" fill="white"/>
<path d="M54.08 31.8834L53.44 29.1634L60.52 22.0234H64.16L54.08 31.8834ZM51.82 36.0234V22.0234H54.82V36.0234H51.82ZM60.9 36.0234L55.66 29.0634L57.72 27.2834L64.46 36.0234H60.9ZM69.2877 36.2234C68.141 36.2234 67.141 35.9901 66.2877 35.5234C65.4343 35.0568 64.7677 34.4168 64.2877 33.6034C63.8077 32.7901 63.5677 31.8568 63.5677 30.8034C63.5677 29.9901 63.701 29.2434 63.9677 28.5634C64.2343 27.8834 64.6077 27.2968 65.0877 26.8034C65.5677 26.2968 66.1343 25.9101 66.7877 25.6434C67.4543 25.3634 68.1743 25.2234 68.9477 25.2234C69.6677 25.2234 70.3343 25.3568 70.9477 25.6234C71.561 25.8768 72.0877 26.2434 72.5277 26.7234C72.981 27.1901 73.3277 27.7434 73.5677 28.3834C73.8077 29.0234 73.9143 29.7234 73.8877 30.4834L73.8677 31.3634H65.3677L64.9077 29.6234H71.5277L71.2077 29.9834V29.5434C71.181 29.1834 71.061 28.8568 70.8477 28.5634C70.6477 28.2701 70.3877 28.0434 70.0677 27.8834C69.7477 27.7234 69.3877 27.6434 68.9877 27.6434C68.401 27.6434 67.901 27.7568 67.4877 27.9834C67.0877 28.2101 66.781 28.5434 66.5677 28.9834C66.3543 29.4234 66.2477 29.9568 66.2477 30.5834C66.2477 31.2234 66.381 31.7768 66.6477 32.2434C66.9277 32.7101 67.3143 33.0768 67.8077 33.3434C68.3143 33.5968 68.9077 33.7234 69.5877 33.7234C70.0543 33.7234 70.481 33.6501 70.8677 33.5034C71.2543 33.3568 71.6677 33.1034 72.1077 32.7434L73.4677 34.6434C73.081 34.9901 72.6543 35.2834 72.1877 35.5234C71.721 35.7501 71.241 35.9234 70.7477 36.0434C70.2543 36.1634 69.7677 36.2234 69.2877 36.2234ZM74.9664 36.0234V25.4434H77.7064L77.7664 27.4634L77.3464 27.5434C77.4931 27.1968 77.6864 26.8834 77.9264 26.6034C78.1664 26.3234 78.4464 26.0834 78.7664 25.8834C79.0997 25.6834 79.4464 25.5301 79.8064 25.4234C80.1664 25.3034 80.5264 25.2434 80.8864 25.2434C81.4331 25.2434 81.9264 25.3301 82.3664 25.5034C82.8064 25.6768 83.1797 25.9501 83.4864 26.3234C83.7931 26.6834 84.0331 27.1634 84.2064 27.7634L83.7664 27.7234L83.9064 27.4034C84.0797 27.0834 84.2997 26.7968 84.5664 26.5434C84.8331 26.2768 85.1331 26.0501 85.4664 25.8634C85.7997 25.6634 86.1464 25.5101 86.5064 25.4034C86.8664 25.2968 87.2197 25.2434 87.5664 25.2434C88.3931 25.2434 89.0797 25.4101 89.6264 25.7434C90.1731 26.0634 90.5797 26.5501 90.8464 27.2034C91.1264 27.8568 91.2664 28.6568 91.2664 29.6034V36.0234H88.4264V29.8034C88.4264 29.3234 88.3597 28.9301 88.2264 28.6234C88.0931 28.3168 87.8997 28.0901 87.6464 27.9434C87.3931 27.7834 87.0664 27.7034 86.6664 27.7034C86.3597 27.7034 86.0731 27.7568 85.8064 27.8634C85.5531 27.9568 85.3264 28.0968 85.1264 28.2834C84.9397 28.4568 84.7931 28.6634 84.6864 28.9034C84.5797 29.1434 84.5264 29.4101 84.5264 29.7034V36.0234H81.6864V29.7834C81.6864 29.3434 81.6131 28.9701 81.4664 28.6634C81.3331 28.3434 81.1397 28.1034 80.8864 27.9434C80.6331 27.7834 80.3197 27.7034 79.9464 27.7034C79.6397 27.7034 79.3531 27.7568 79.0864 27.8634C78.8331 27.9568 78.6131 28.0968 78.4264 28.2834C78.2397 28.4568 78.0864 28.6634 77.9664 28.9034C77.8597 29.1434 77.8064 29.4034 77.8064 29.6834V36.0234H74.9664ZM97.9908 36.2234C96.8441 36.2234 95.8441 35.9901 94.9908 35.5234C94.1374 35.0568 93.4708 34.4168 92.9908 33.6034C92.5108 32.7901 92.2708 31.8568 92.2708 30.8034C92.2708 29.9901 92.4041 29.2434 92.6708 28.5634C92.9374 27.8834 93.3108 27.2968 93.7908 26.8034C94.2708 26.2968 94.8374 25.9101 95.4908 25.6434C96.1574 25.3634 96.8774 25.2234 97.6508 25.2234C98.3708 25.2234 99.0374 25.3568 99.6508 25.6234C100.264 25.8768 100.791 26.2434 101.231 26.7234C101.684 27.1901 102.031 27.7434 102.271 28.3834C102.511 29.0234 102.617 29.7234 102.591 30.4834L102.571 31.3634H94.0708L93.6108 29.6234H100.231L99.9108 29.9834V29.5434C99.8841 29.1834 99.7641 28.8568 99.5508 28.5634C99.3508 28.2701 99.0908 28.0434 98.7708 27.8834C98.4508 27.7234 98.0908 27.6434 97.6908 27.6434C97.1041 27.6434 96.6041 27.7568 96.1908 27.9834C95.7908 28.2101 95.4841 28.5434 95.2708 28.9834C95.0574 29.4234 94.9508 29.9568 94.9508 30.5834C94.9508 31.2234 95.0841 31.7768 95.3508 32.2434C95.6308 32.7101 96.0174 33.0768 96.5108 33.3434C97.0174 33.5968 97.6108 33.7234 98.2908 33.7234C98.7574 33.7234 99.1841 33.6501 99.5708 33.5034C99.9574 33.3568 100.371 33.1034 100.811 32.7434L102.171 34.6434C101.784 34.9901 101.357 35.2834 100.891 35.5234C100.424 35.7501 99.9441 35.9234 99.4508 36.0434C98.9574 36.1634 98.4708 36.2234 97.9908 36.2234ZM103.69 36.0234V25.4434H106.41L106.49 27.6034L105.93 27.8434C106.076 27.3634 106.336 26.9301 106.71 26.5434C107.096 26.1434 107.556 25.8234 108.09 25.5834C108.623 25.3434 109.183 25.2234 109.77 25.2234C110.57 25.2234 111.236 25.3834 111.77 25.7034C112.316 26.0234 112.723 26.5101 112.99 27.1634C113.27 27.8034 113.41 28.5968 113.41 29.5434V36.0234H110.57V29.7634C110.57 29.2834 110.503 28.8834 110.37 28.5634C110.236 28.2434 110.03 28.0101 109.75 27.8634C109.483 27.7034 109.15 27.6368 108.75 27.6634C108.43 27.6634 108.13 27.7168 107.85 27.8234C107.583 27.9168 107.35 28.0568 107.15 28.2434C106.963 28.4301 106.81 28.6434 106.69 28.8834C106.583 29.1234 106.53 29.3834 106.53 29.6634V36.0234H105.13C104.823 36.0234 104.55 36.0234 104.31 36.0234C104.07 36.0234 103.863 36.0234 103.69 36.0234ZM119.271 36.2234C118.351 36.2234 117.524 35.9901 116.791 35.5234C116.058 35.0434 115.478 34.3968 115.051 33.5834C114.638 32.7568 114.431 31.8034 114.431 30.7234C114.431 29.6701 114.638 28.7301 115.051 27.9034C115.478 27.0768 116.051 26.4234 116.771 25.9434C117.504 25.4634 118.338 25.2234 119.271 25.2234C119.764 25.2234 120.238 25.3034 120.691 25.4634C121.158 25.6101 121.571 25.8168 121.931 26.0834C122.304 26.3501 122.604 26.6501 122.831 26.9834C123.058 27.3034 123.184 27.6434 123.211 28.0034L122.491 28.1234V21.2234H125.331V36.0234H122.651L122.531 33.5834L123.091 33.6434C123.064 33.9768 122.944 34.2968 122.731 34.6034C122.518 34.9101 122.231 35.1901 121.871 35.4434C121.524 35.6834 121.124 35.8768 120.671 36.0234C120.231 36.1568 119.764 36.2234 119.271 36.2234ZM119.911 33.8634C120.444 33.8634 120.911 33.7301 121.311 33.4634C121.711 33.1968 122.024 32.8301 122.251 32.3634C122.478 31.8968 122.591 31.3501 122.591 30.7234C122.591 30.1101 122.478 29.5701 122.251 29.1034C122.024 28.6234 121.711 28.2568 121.311 28.0034C120.911 27.7368 120.444 27.6034 119.911 27.6034C119.378 27.6034 118.911 27.7368 118.511 28.0034C118.124 28.2568 117.818 28.6234 117.591 29.1034C117.378 29.5701 117.271 30.1101 117.271 30.7234C117.271 31.3501 117.378 31.8968 117.591 32.3634C117.818 32.8301 118.124 33.1968 118.511 33.4634C118.911 33.7301 119.378 33.8634 119.911 33.8634ZM127.34 36.0234V25.4434H130.18V36.0234H127.34ZM128.74 23.2634C128.193 23.2634 127.766 23.1301 127.46 22.8634C127.153 22.5968 127 22.2168 127 21.7234C127 21.2701 127.153 20.9034 127.46 20.6234C127.78 20.3301 128.206 20.1834 128.74 20.1834C129.286 20.1834 129.713 20.3234 130.02 20.6034C130.326 20.8701 130.48 21.2434 130.48 21.7234C130.48 22.1901 130.32 22.5634 130 22.8434C129.693 23.1234 129.273 23.2634 128.74 23.2634ZM134.913 32.8434L134.073 30.5034L139.073 25.4434H142.813L134.913 32.8434ZM132.213 36.0234V21.2234H135.053V36.0234H132.213ZM139.373 36.0234L135.573 31.2434L137.573 29.6434L142.793 36.0234H139.373ZM149.364 36.2234C148.897 36.2234 148.444 36.1568 148.004 36.0234C147.564 35.8901 147.164 35.7101 146.804 35.4834C146.444 35.2434 146.144 34.9768 145.904 34.6834C145.664 34.3768 145.51 34.0634 145.444 33.7434L146.084 33.5034L145.944 35.9834H143.264V21.2234H146.104V27.9234L145.564 27.7034C145.644 27.3834 145.797 27.0768 146.024 26.7834C146.25 26.4768 146.537 26.2101 146.884 25.9834C147.23 25.7434 147.61 25.5568 148.024 25.4234C148.437 25.2901 148.864 25.2234 149.304 25.2234C150.224 25.2234 151.044 25.4634 151.764 25.9434C152.484 26.4101 153.05 27.0568 153.464 27.8834C153.89 28.7101 154.104 29.6568 154.104 30.7234C154.104 31.7901 153.897 32.7368 153.484 33.5634C153.07 34.3901 152.504 35.0434 151.784 35.5234C151.077 35.9901 150.27 36.2234 149.364 36.2234ZM148.684 33.8034C149.217 33.8034 149.677 33.6768 150.064 33.4234C150.464 33.1568 150.777 32.7968 151.004 32.3434C151.23 31.8768 151.344 31.3368 151.344 30.7234C151.344 30.1234 151.23 29.5901 151.004 29.1234C150.79 28.6568 150.484 28.2968 150.084 28.0434C149.684 27.7901 149.217 27.6634 148.684 27.6634C148.15 27.6634 147.684 27.7901 147.284 28.0434C146.884 28.2968 146.57 28.6568 146.344 29.1234C146.117 29.5901 146.004 30.1234 146.004 30.7234C146.004 31.3368 146.117 31.8768 146.344 32.3434C146.57 32.7968 146.884 33.1568 147.284 33.4234C147.684 33.6768 148.15 33.8034 148.684 33.8034ZM158.892 36.2234C158.119 36.2234 157.452 36.0568 156.892 35.7234C156.345 35.3768 155.919 34.8901 155.612 34.2634C155.319 33.6234 155.172 32.8568 155.172 31.9634V25.4434H158.012V31.5034C158.012 31.9834 158.092 32.4034 158.252 32.7634C158.412 33.1101 158.639 33.3768 158.932 33.5634C159.225 33.7501 159.585 33.8434 160.012 33.8434C160.319 33.8434 160.605 33.7968 160.872 33.7034C161.139 33.5968 161.365 33.4501 161.552 33.2634C161.739 33.0768 161.885 32.8568 161.992 32.6034C162.099 32.3501 162.152 32.0768 162.152 31.7834V25.4434H164.992V36.0234H162.292L162.192 33.8434L162.712 33.6034C162.552 34.0968 162.285 34.5434 161.912 34.9434C161.539 35.3434 161.092 35.6568 160.572 35.8834C160.052 36.1101 159.492 36.2234 158.892 36.2234ZM170.99 36.2234C170.07 36.2234 169.243 35.9901 168.51 35.5234C167.776 35.0434 167.196 34.3968 166.77 33.5834C166.356 32.7568 166.15 31.8034 166.15 30.7234C166.15 29.6701 166.356 28.7301 166.77 27.9034C167.196 27.0768 167.77 26.4234 168.49 25.9434C169.223 25.4634 170.056 25.2234 170.99 25.2234C171.483 25.2234 171.956 25.3034 172.41 25.4634C172.876 25.6101 173.29 25.8168 173.65 26.0834C174.023 26.3501 174.323 26.6501 174.55 26.9834C174.776 27.3034 174.903 27.6434 174.93 28.0034L174.21 28.1234V21.2234H177.05V36.0234H174.37L174.25 33.5834L174.81 33.6434C174.783 33.9768 174.663 34.2968 174.45 34.6034C174.236 34.9101 173.95 35.1901 173.59 35.4434C173.243 35.6834 172.843 35.8768 172.39 36.0234C171.95 36.1568 171.483 36.2234 170.99 36.2234ZM171.63 33.8634C172.163 33.8634 172.63 33.7301 173.03 33.4634C173.43 33.1968 173.743 32.8301 173.97 32.3634C174.196 31.8968 174.31 31.3501 174.31 30.7234C174.31 30.1101 174.196 29.5701 173.97 29.1034C173.743 28.6234 173.43 28.2568 173.03 28.0034C172.63 27.7368 172.163 27.6034 171.63 27.6034C171.096 27.6034 170.63 27.7368 170.23 28.0034C169.843 28.2568 169.536 28.6234 169.31 29.1034C169.096 29.5701 168.99 30.1101 168.99 30.7234C168.99 31.3501 169.096 31.8968 169.31 32.3634C169.536 32.8301 169.843 33.1968 170.23 33.4634C170.63 33.7301 171.096 33.8634 171.63 33.8634Z" fill="white"/>
</svg>
