<svg width="146" height="57" viewBox="0 0 146 57" fill="none" xmlns="http://www.w3.org/2000/svg">
<g clip-path="url(#clip0_2222_980)">
<path fill-rule="evenodd" clip-rule="evenodd" d="M2.60595 5.82882C2.54934 5.68151 2.65861 5.52344 2.81702 5.52344H36.8487C37.0073 5.52344 37.1167 5.68189 37.0595 5.82928L19.9883 49.9762C19.9139 50.1686 19.6404 50.1684 19.5664 49.9758L2.60595 5.82882ZM34.5743 7.51654C34.6311 7.36919 34.5217 7.21094 34.3633 7.21094H5.19027C5.03176 7.21094 4.92249 7.3692 4.97928 7.51655L19.5658 45.3635C19.64 45.5561 19.9135 45.5561 19.9877 45.3635L34.5743 7.51654Z" fill="#EAEAEA"/>
<path d="M31.9799 9.12305H7.68604L19.8894 41.298L31.9799 9.12305Z" fill="#EAEAEA"/>
<path d="M19.5071 29.9826L18.5475 29.7708C18.5475 29.7708 18.4799 29.1854 18.5475 28.8182C18.6452 28.2879 18.6895 28.1011 19.0273 27.654C19.2672 27.3365 19.6883 27.1416 20.1069 27.1248C20.5678 27.1064 20.8266 27.2308 21.1864 27.5482C21.5463 27.8656 21.7862 28.8182 21.6662 29.9826C21.5463 31.1467 21.5736 30.912 21.4264 31.4642C21.2864 31.9893 21.0869 32.2463 20.8266 32.7343C20.6657 33.0358 20.5191 33.1787 20.3468 33.4752C20.1363 33.8375 19.867 34.4277 19.867 34.4277H21.5463V36.1212L18.3076 36.123V35.4881C18.3076 35.4881 18.3379 35.0374 18.4276 34.7472C18.5799 34.2537 18.712 33.9583 18.9074 33.477C19.0277 33.1807 19.1214 33.0234 19.2672 32.7361C19.5313 32.2159 19.7537 31.9533 19.9869 31.4217C20.2263 30.876 20.4496 30.5694 20.4667 29.9844C20.4855 29.3429 20.4667 28.395 20.1069 28.395C19.747 28.395 19.5071 29.0299 19.5071 29.9826Z" fill="#2D2825"/>
<path d="M9.26806 30.7234L3.16636 29.1484L5.42625 31.6234L0.228516 32.1859L9.15507 34.5484L7.79913 32.0734C7.79913 32.0734 9.66019 32.6823 10.737 32.8609C14.1268 33.4234 16.4901 33.5456 20.3415 33.5359C23.7936 33.5272 25.7642 33.5056 29.1551 32.8609C30.3115 32.6411 32.093 32.1859 32.093 32.1859L30.7371 34.5484L39.4376 32.1859L34.4659 31.6234L36.6128 29.1484L30.5111 30.7234L29.1551 29.2609C29.1551 29.2609 23.8058 30.2145 20.3415 30.2734C16.4868 30.3391 10.511 29.3734 10.511 29.3734L9.26806 30.7234Z" fill="#C1C1C1"/>
<path d="M7.79932 32.0732L9.15525 34.5482L10.7372 32.8607C9.66038 32.6821 7.79932 32.0732 7.79932 32.0732Z" fill="#C1C1C1"/>
<path d="M29.1553 32.8605L30.7372 34.548L32.0931 32.1855L29.1553 32.8605Z" fill="#949494"/>
<path d="M10.7373 32.8605L9.15533 34.548L8.02539 32.1855L10.7373 32.8605Z" fill="#949494"/>
<path d="M39.4439 13.623H0.340479C0.179546 13.623 0.0701866 13.7858 0.131581 13.9339L2.88291 20.5714C2.9178 20.6556 3.00029 20.7105 3.09179 20.7105H36.7985C36.8912 20.7105 36.9743 20.6543 37.0084 20.5685L39.6541 13.931C39.7129 13.7833 39.6035 13.623 39.4439 13.623Z" fill="#EAEAEA"/>
<path d="M3.6931 18.603C3.47269 18.603 3.27518 18.5674 3.10056 18.4961C2.92593 18.4249 2.78569 18.3195 2.67977 18.1798C2.57671 18.0401 2.52232 17.872 2.5166 17.6753H3.29807C3.30953 17.7865 3.34817 17.872 3.414 17.9318C3.47983 17.9888 3.56571 18.0173 3.67163 18.0173C3.7804 18.0173 3.86627 17.9931 3.92926 17.9447C3.99224 17.8934 4.02372 17.8236 4.02372 17.7352C4.02372 17.6611 3.99796 17.5998 3.94643 17.5514C3.89778 17.5029 3.83622 17.463 3.7618 17.4317C3.69023 17.4003 3.58718 17.3647 3.45265 17.3248C3.258 17.2649 3.09913 17.2051 2.97604 17.1452C2.85294 17.0854 2.74704 16.997 2.6583 16.8802C2.56955 16.7634 2.52519 16.6109 2.52519 16.4228C2.52519 16.1435 2.62682 15.9255 2.83005 15.7687C3.03328 15.6091 3.29807 15.5293 3.6244 15.5293C3.95644 15.5293 4.2241 15.6091 4.42734 15.7687C4.63057 15.9255 4.73936 16.1449 4.75366 16.427H3.95931C3.9536 16.3301 3.9178 16.2546 3.85197 16.2005C3.78614 16.1435 3.70169 16.115 3.59864 16.115C3.50989 16.115 3.43834 16.1392 3.38395 16.1876C3.32955 16.2333 3.30236 16.3002 3.30236 16.3886C3.30236 16.4855 3.34817 16.561 3.43977 16.6151C3.53136 16.6693 3.6745 16.7277 3.86914 16.7904C4.06379 16.856 4.22123 16.9187 4.34146 16.9785C4.46456 17.0384 4.57045 17.1253 4.6592 17.2393C4.74795 17.3533 4.79231 17.5001 4.79231 17.6796C4.79231 17.8506 4.74795 18.0059 4.6592 18.1456C4.57332 18.2853 4.44738 18.3964 4.28135 18.479C4.11531 18.5617 3.91925 18.603 3.6931 18.603ZM5.87963 15.572V17.3675C5.87963 17.5471 5.92401 17.6853 6.01274 17.7822C6.10148 17.8791 6.23172 17.9276 6.40347 17.9276C6.57522 17.9276 6.70691 17.8791 6.7985 17.7822C6.89012 17.6853 6.9359 17.5471 6.9359 17.3675V15.572H7.67014V17.3633C7.67014 17.6312 7.6129 17.8578 7.49839 18.043C7.3839 18.2282 7.22932 18.3679 7.03466 18.4619C6.84288 18.556 6.62819 18.603 6.39059 18.603C6.15301 18.603 5.93974 18.5574 5.75082 18.4662C5.56476 18.3722 5.41735 18.2325 5.30856 18.0473C5.19979 17.8592 5.14539 17.6312 5.14539 17.3633V15.572H5.87963ZM9.63703 18.5731L9.01014 17.4402H8.83409V18.5731H8.09986V15.572H9.33217C9.56978 15.572 9.77158 15.6134 9.9376 15.696C10.1065 15.7787 10.2324 15.8927 10.3154 16.038C10.3985 16.1805 10.44 16.3401 10.44 16.5168C10.44 16.7163 10.3827 16.8944 10.2682 17.0512C10.1566 17.208 9.99057 17.3191 9.77014 17.3846L10.4657 18.5731H9.63703ZM8.83409 16.9229H9.28923C9.42379 16.9229 9.52397 16.8902 9.5898 16.8246C9.6585 16.7591 9.69285 16.6664 9.69285 16.5467C9.69285 16.4327 9.6585 16.343 9.5898 16.2774C9.52397 16.2119 9.42379 16.1791 9.28923 16.1791H8.83409V16.9229ZM12.6914 18.043H11.5664L11.3861 18.5731H10.6175L11.7081 15.572H12.5583L13.6489 18.5731H12.8717L12.6914 18.043ZM12.5025 17.4787L12.1289 16.38L11.7597 17.4787H12.5025Z" fill="#2D2825"/>
<path d="M27.9196 17.0343C28.0943 17.0714 28.2346 17.1583 28.3404 17.2951C28.4464 17.429 28.4992 17.5829 28.4992 17.7568C28.4992 18.0076 28.4107 18.2071 28.233 18.3553C28.0586 18.5006 27.8138 18.5733 27.4988 18.5733H26.0947V15.5723H27.4516C27.758 15.5723 27.9969 15.6421 28.1686 15.7817C28.3433 15.9214 28.4305 16.1109 28.4305 16.3503C28.4305 16.527 28.3833 16.6738 28.2889 16.7906C28.1973 16.9075 28.0742 16.9887 27.9196 17.0343ZM26.829 16.7864H27.3099C27.4301 16.7864 27.5218 16.7607 27.5847 16.7094C27.6507 16.6553 27.6834 16.5769 27.6834 16.4743C27.6834 16.3717 27.6507 16.2933 27.5847 16.2392C27.5218 16.185 27.4301 16.1579 27.3099 16.1579H26.829V16.7864ZM27.37 17.9834C27.4931 17.9834 27.5876 17.9563 27.6534 17.9021C27.7221 17.8451 27.7564 17.7639 27.7564 17.6585C27.7564 17.553 27.7207 17.4704 27.6491 17.4105C27.5804 17.3507 27.4846 17.3207 27.3614 17.3207H26.829V17.9834H27.37ZM30.5869 18.0432H29.462L29.2816 18.5733H28.513L29.6037 15.5723H30.4538L31.5444 18.5733H30.7673L30.5869 18.0432ZM30.398 17.4789L30.0244 16.3802L29.6552 17.4789H30.398ZM34.2464 15.5723L33.203 17.5815V18.5733H32.4687V17.5815L31.4253 15.5723H32.2583L32.8423 16.8291L33.422 15.5723H34.2464ZM36.2039 18.0432H35.0789L34.8986 18.5733H34.13L35.2206 15.5723H36.0708L37.1614 18.5733H36.3842L36.2039 18.0432ZM36.015 17.4789L35.6414 16.3802L35.2721 17.4789H36.015Z" fill="#2D2825"/>
<path d="M13.7236 32.5946L14.4197 30.4034L14.9685 30.4569L15.3285 32.1568L15.3408 32.1579C15.3523 32.1147 15.3671 32.0591 15.3852 31.9907C15.4035 31.9214 15.4229 31.8501 15.4436 31.777C15.4654 31.703 15.4854 31.6368 15.5035 31.5788L15.8341 30.5417L16.2554 30.5829L15.5593 32.7744L15.0335 32.7229L14.6534 30.9764L14.638 30.9749C14.6358 30.987 14.6287 31.0163 14.6169 31.0624C14.6061 31.1087 14.5924 31.1645 14.5756 31.23C14.5599 31.2944 14.543 31.3603 14.525 31.4276C14.5071 31.4937 14.4899 31.5529 14.4734 31.6049L14.1464 32.636L13.7236 32.5946ZM16.5402 32.8642L17.1142 30.638L18.3767 30.692L18.2765 31.0788L17.4863 31.0451L17.3616 31.5338L18.0978 31.5655L17.996 31.952L17.2598 31.9205L17.1113 32.4945L17.9015 32.5285L17.8011 32.9182L16.5402 32.8642ZM19.6255 32.9819C19.3629 32.9819 19.1579 32.9076 19.0105 32.7589C18.8632 32.6093 18.7895 32.3919 18.7894 32.1068C18.7893 31.9541 18.8073 31.8065 18.8433 31.6638C18.8793 31.5214 18.9328 31.3902 19.0038 31.2701C19.0748 31.149 19.1633 31.0435 19.2694 30.9533C19.3764 30.8628 19.5 30.7926 19.6401 30.7422C19.7801 30.692 19.9371 30.6668 20.1112 30.6668C20.2276 30.6666 20.3368 30.679 20.4387 30.7035C20.5407 30.728 20.6427 30.7665 20.7446 30.8187L20.5671 31.2048C20.4919 31.1639 20.4157 31.1312 20.3385 31.1065C20.2623 31.082 20.1793 31.0698 20.0897 31.0698C19.9507 31.0698 19.8297 31.0995 19.7267 31.1591C19.6248 31.2176 19.5399 31.2955 19.4719 31.3929C19.404 31.4894 19.3531 31.5965 19.3191 31.7144C19.2862 31.8323 19.2698 31.9509 19.2698 32.0697C19.2698 32.1806 19.2853 32.2745 19.3163 32.3512C19.3472 32.4272 19.3961 32.4846 19.4631 32.5235C19.5311 32.5625 19.6186 32.5818 19.7257 32.5818C19.7783 32.5818 19.8241 32.5782 19.8632 32.571C19.9024 32.5638 19.9441 32.555 19.9884 32.5447L20.0901 32.0848L19.6776 32.085L19.764 31.6881L20.6338 31.6879L20.3839 32.8599C20.281 32.8948 20.1718 32.924 20.0565 32.9477C19.9411 32.9704 19.7975 32.9816 19.6255 32.9819ZM21.2938 32.9459L21.6725 30.6785L22.935 30.6239L22.8687 31.0178L22.0785 31.052L21.9967 31.5497L22.7329 31.5178L22.6651 31.912L21.9289 31.9437L21.8307 32.5285L22.6208 32.4943L22.5548 32.8912L21.2938 32.9459ZM23.4403 32.8475L23.7083 30.5647L24.2606 30.5141C24.4861 30.4934 24.6687 30.5255 24.8079 30.6106C24.9481 30.6945 25.0281 30.8448 25.0482 31.0613C25.0592 31.1796 25.0473 31.2854 25.0122 31.3781C24.9774 31.4708 24.9255 31.5509 24.8561 31.6179C24.7878 31.685 24.7076 31.7392 24.6152 31.7806L25.1047 32.6948L24.5939 32.7418L24.196 31.9118L24.0129 31.9284L23.9094 32.8046L23.4403 32.8475ZM24.0588 31.5351L24.1788 31.5241C24.2455 31.518 24.3042 31.5054 24.3553 31.4863C24.4073 31.466 24.4502 31.4399 24.4846 31.408C24.5187 31.3749 24.5431 31.3355 24.5573 31.2901C24.5727 31.2433 24.5777 31.1904 24.5722 31.1312C24.5643 31.0473 24.5341 30.9868 24.4809 30.9494C24.4278 30.9121 24.3494 30.8984 24.2459 30.9078L24.132 30.9182L24.0588 31.5351ZM25.7689 32.6311L25.9698 30.3406L26.4389 30.2832L26.2364 32.5737L25.7689 32.6311Z" fill="#2D2825"/>
<path d="M14.4412 18.4055L13.7881 18.16L13.824 18.6834L14.1255 20.0629C14.6491 22.46 15.6021 23.7742 16.4785 23.3074C16.7359 23.1701 17.0753 22.8452 17.1499 22.5084C17.2245 22.1715 17.3816 21.8692 17.4039 21.4959C17.4526 20.683 17.4179 20.1726 17.4039 19.3584C17.3945 18.8083 17.3469 18.3689 17.2909 18.0084C17.09 16.7153 16.539 16.6028 16.0441 16.0063C15.549 15.4099 15.0933 15.4207 15.144 14.8523C15.1607 14.6653 15.2111 14.6084 15.2934 14.3951C15.4328 14.0335 15.4629 14.0351 15.7454 14.4199C15.9117 14.6464 16.048 15.0265 16.048 15.2645C16.048 15.6171 16.1732 15.6787 16.7259 15.598L17.4039 15.4987L17.3508 15.0834L17.1671 13.9933C16.8835 12.3112 16.0473 11.6692 14.9212 12.2691C14.2914 12.6048 13.9368 13.944 14.1038 15.3579C14.2543 16.633 14.5352 17.3143 15.4855 18.7086C16.0742 19.5721 16.217 20.4654 15.8068 20.7176C15.4484 20.9381 15.3289 20.7226 15.2057 19.6345C15.1115 18.8024 14.9935 18.613 14.4412 18.4055Z" fill="#2D2825"/>
<path d="M17.404 12.0488H19.0989L19.5509 18.5738L20.1159 12.0488H21.8108C21.8108 12.0488 21.9238 24.4238 21.9238 24.6488C21.9238 24.8738 21.2458 24.9863 20.7938 24.9863L20.6808 17.6738L20.1159 25.0988H19.0989L18.534 17.6738L18.421 24.8738C17.969 24.8738 17.291 24.6488 17.291 24.4238C17.291 24.1988 17.404 12.0488 17.404 12.0488Z" fill="#2D2825"/>
<path d="M21.9233 12.0488L22.0363 24.6488C22.0363 24.6488 23.3923 24.0534 23.3923 23.7488V20.8238L23.8443 19.1363L24.6353 22.8488L26.1042 21.2738L24.7483 16.0988L26.1042 12.0488H24.2963L23.2793 15.8738V12.0488H21.9233Z" fill="#2D2825"/>
</g>
<path d="M61.36 27.2234C60.4933 27.2234 59.7 27.1168 58.98 26.9034C58.2733 26.6901 57.64 26.3768 57.08 25.9634C56.5333 25.5501 56.04 25.0501 55.6 24.4634L57.48 22.3234C58.1333 23.2301 58.78 23.8501 59.42 24.1834C60.0733 24.5034 60.78 24.6634 61.54 24.6634C61.9533 24.6634 62.32 24.6101 62.64 24.5034C62.9733 24.3834 63.2333 24.2168 63.42 24.0034C63.6067 23.7901 63.7 23.5368 63.7 23.2434C63.7 23.0301 63.6533 22.8368 63.56 22.6634C63.4667 22.4768 63.3333 22.3168 63.16 22.1834C62.9867 22.0368 62.78 21.9101 62.54 21.8034C62.3 21.6834 62.0333 21.5834 61.74 21.5034C61.4467 21.4101 61.1267 21.3368 60.78 21.2834C60.0333 21.1101 59.38 20.9034 58.82 20.6634C58.26 20.4101 57.7933 20.1034 57.42 19.7434C57.0467 19.3701 56.7667 18.9501 56.58 18.4834C56.4067 18.0168 56.32 17.4901 56.32 16.9034C56.32 16.3034 56.4533 15.7501 56.72 15.2434C56.9867 14.7234 57.3533 14.2768 57.82 13.9034C58.3 13.5301 58.8467 13.2434 59.46 13.0434C60.0867 12.8434 60.7467 12.7434 61.44 12.7434C62.2933 12.7434 63.04 12.8434 63.68 13.0434C64.32 13.2301 64.8733 13.5034 65.34 13.8634C65.82 14.2234 66.22 14.6634 66.54 15.1834L64.64 17.0234C64.36 16.6501 64.0533 16.3368 63.72 16.0834C63.4 15.8301 63.0467 15.6434 62.66 15.5234C62.2867 15.3901 61.9 15.3234 61.5 15.3234C61.06 15.3234 60.68 15.3834 60.36 15.5034C60.04 15.6101 59.7867 15.7701 59.6 15.9834C59.4267 16.1968 59.34 16.4568 59.34 16.7634C59.34 17.0034 59.4 17.2168 59.52 17.4034C59.64 17.5901 59.8133 17.7568 60.04 17.9034C60.2667 18.0368 60.54 18.1568 60.86 18.2634C61.18 18.3701 61.5333 18.4634 61.92 18.5434C62.6533 18.6901 63.3133 18.8834 63.9 19.1234C64.4867 19.3634 64.9867 19.6568 65.4 20.0034C65.8267 20.3368 66.1533 20.7368 66.38 21.2034C66.6067 21.6568 66.72 22.1701 66.72 22.7434C66.72 23.6901 66.4933 24.4968 66.04 25.1634C65.5867 25.8301 64.96 26.3434 64.16 26.7034C63.36 27.0501 62.4267 27.2234 61.36 27.2234ZM68.4372 27.0234V13.0234H71.1772L76.2772 21.3234L74.4772 21.3034L79.6372 13.0234H82.2572V27.0234H79.3172V22.2234C79.3172 21.0234 79.3439 19.9434 79.3972 18.9834C79.4639 18.0234 79.5705 17.0701 79.7172 16.1234L80.0772 17.0634L75.9772 23.4234H74.6572L70.6372 17.1034L70.9772 16.1234C71.1239 17.0168 71.2239 17.9368 71.2772 18.8834C71.3439 19.8168 71.3772 20.9301 71.3772 22.2234V27.0234H68.4372ZM87.1581 22.8834L86.5181 20.1634L93.5981 13.0234H97.2381L87.1581 22.8834ZM84.8981 27.0234V13.0234H87.8981V27.0234H84.8981ZM93.9781 27.0234L88.7381 20.0634L90.7981 18.2834L97.5381 27.0234H93.9781ZM98.6442 27.0234V13.0234H101.324L109.064 23.4834H108.504C108.451 23.0701 108.404 22.6701 108.364 22.2834C108.324 21.8834 108.284 21.4834 108.244 21.0834C108.218 20.6701 108.191 20.2501 108.164 19.8234C108.151 19.3834 108.138 18.9234 108.124 18.4434C108.111 17.9501 108.104 17.4168 108.104 16.8434V13.0234H111.044V27.0234H108.324L100.424 16.4634L101.184 16.4834C101.251 17.1768 101.304 17.7701 101.344 18.2634C101.398 18.7434 101.438 19.1634 101.464 19.5234C101.491 19.8834 101.511 20.1968 101.524 20.4634C101.551 20.7301 101.564 20.9834 101.564 21.2234C101.578 21.4634 101.584 21.7168 101.584 21.9834V27.0234H98.6442ZM118.392 27.0234L117.732 25.3834L121.872 20.8034C122.099 20.5634 122.339 20.2834 122.592 19.9634C122.859 19.6434 123.112 19.3168 123.352 18.9834C123.606 18.6368 123.806 18.3034 123.952 17.9834C124.099 17.6501 124.172 17.3501 124.172 17.0834C124.172 16.7768 124.106 16.5101 123.972 16.2834C123.839 16.0434 123.646 15.8568 123.392 15.7234C123.139 15.5901 122.826 15.5234 122.452 15.5234C122.106 15.5234 121.779 15.6168 121.472 15.8034C121.166 15.9768 120.879 16.2368 120.612 16.5834C120.346 16.9301 120.112 17.3501 119.912 17.8434L117.672 16.5834C117.939 15.8101 118.319 15.1368 118.812 14.5634C119.306 13.9901 119.892 13.5434 120.572 13.2234C121.252 12.9034 121.979 12.7434 122.752 12.7434C123.566 12.7568 124.299 12.9301 124.952 13.2634C125.606 13.5968 126.119 14.0634 126.492 14.6634C126.866 15.2634 127.052 15.9568 127.052 16.7434C127.052 17.0368 127.019 17.3368 126.952 17.6434C126.899 17.9501 126.799 18.2701 126.652 18.6034C126.519 18.9368 126.339 19.2901 126.112 19.6634C125.899 20.0234 125.632 20.4101 125.312 20.8234C125.006 21.2234 124.652 21.6434 124.252 22.0834L121.072 25.5434L120.672 24.3234H127.632V27.0234H118.392ZM61.36 45.2234C60.4933 45.2234 59.7 45.1168 58.98 44.9034C58.2733 44.6901 57.64 44.3768 57.08 43.9634C56.5333 43.5501 56.04 43.0501 55.6 42.4634L57.48 40.3234C58.1333 41.2301 58.78 41.8501 59.42 42.1834C60.0733 42.5034 60.78 42.6634 61.54 42.6634C61.9533 42.6634 62.32 42.6101 62.64 42.5034C62.9733 42.3834 63.2333 42.2168 63.42 42.0034C63.6067 41.7901 63.7 41.5368 63.7 41.2434C63.7 41.0301 63.6533 40.8368 63.56 40.6634C63.4667 40.4768 63.3333 40.3168 63.16 40.1834C62.9867 40.0368 62.78 39.9101 62.54 39.8034C62.3 39.6834 62.0333 39.5834 61.74 39.5034C61.4467 39.4101 61.1267 39.3368 60.78 39.2834C60.0333 39.1101 59.38 38.9034 58.82 38.6634C58.26 38.4101 57.7933 38.1034 57.42 37.7434C57.0467 37.3701 56.7667 36.9501 56.58 36.4834C56.4067 36.0168 56.32 35.4901 56.32 34.9034C56.32 34.3034 56.4533 33.7501 56.72 33.2434C56.9867 32.7234 57.3533 32.2768 57.82 31.9034C58.3 31.5301 58.8467 31.2434 59.46 31.0434C60.0867 30.8434 60.7467 30.7434 61.44 30.7434C62.2933 30.7434 63.04 30.8434 63.68 31.0434C64.32 31.2301 64.8733 31.5034 65.34 31.8634C65.82 32.2234 66.22 32.6634 66.54 33.1834L64.64 35.0234C64.36 34.6501 64.0533 34.3368 63.72 34.0834C63.4 33.8301 63.0467 33.6434 62.66 33.5234C62.2867 33.3901 61.9 33.3234 61.5 33.3234C61.06 33.3234 60.68 33.3834 60.36 33.5034C60.04 33.6101 59.7867 33.7701 59.6 33.9834C59.4267 34.1968 59.34 34.4568 59.34 34.7634C59.34 35.0034 59.4 35.2168 59.52 35.4034C59.64 35.5901 59.8133 35.7568 60.04 35.9034C60.2667 36.0368 60.54 36.1568 60.86 36.2634C61.18 36.3701 61.5333 36.4634 61.92 36.5434C62.6533 36.6901 63.3133 36.8834 63.9 37.1234C64.4867 37.3634 64.9867 37.6568 65.4 38.0034C65.8267 38.3368 66.1533 38.7368 66.38 39.2034C66.6067 39.6568 66.72 40.1701 66.72 40.7434C66.72 41.6901 66.4933 42.4968 66.04 43.1634C65.5867 43.8301 64.96 44.3434 64.16 44.7034C63.36 45.0501 62.4267 45.2234 61.36 45.2234ZM71.6772 45.2234C70.9039 45.2234 70.2372 45.0568 69.6772 44.7234C69.1305 44.3768 68.7039 43.8901 68.3972 43.2634C68.1039 42.6234 67.9572 41.8568 67.9572 40.9634V34.4434H70.7972V40.5034C70.7972 40.9834 70.8772 41.4034 71.0372 41.7634C71.1972 42.1101 71.4239 42.3768 71.7172 42.5634C72.0105 42.7501 72.3705 42.8434 72.7972 42.8434C73.1039 42.8434 73.3905 42.7968 73.6572 42.7034C73.9239 42.5968 74.1505 42.4501 74.3372 42.2634C74.5239 42.0768 74.6705 41.8568 74.7772 41.6034C74.8839 41.3501 74.9372 41.0768 74.9372 40.7834V34.4434H77.7772V45.0234H75.0772L74.9772 42.8434L75.4972 42.6034C75.3372 43.0968 75.0705 43.5434 74.6972 43.9434C74.3239 44.3434 73.8772 44.6568 73.3572 44.8834C72.8372 45.1101 72.2772 45.2234 71.6772 45.2234ZM79.6348 45.0234V34.4434H82.3748L82.4748 37.8434L81.9948 37.1434C82.1548 36.5968 82.4148 36.1034 82.7748 35.6634C83.1348 35.2101 83.5548 34.8568 84.0348 34.6034C84.5282 34.3501 85.0415 34.2234 85.5748 34.2234C85.8015 34.2234 86.0215 34.2434 86.2348 34.2834C86.4482 34.3234 86.6282 34.3701 86.7748 34.4234L86.0148 37.5434C85.8548 37.4634 85.6615 37.3968 85.4348 37.3434C85.2082 37.2768 84.9748 37.2434 84.7348 37.2434C84.4148 37.2434 84.1148 37.3034 83.8348 37.4234C83.5682 37.5301 83.3348 37.6901 83.1348 37.9034C82.9348 38.1034 82.7748 38.3434 82.6548 38.6234C82.5482 38.9034 82.4948 39.2101 82.4948 39.5434V45.0234H79.6348ZM90.9152 45.2234C90.0352 45.2234 89.2418 44.9834 88.5352 44.5034C87.8285 44.0234 87.2685 43.3701 86.8552 42.5434C86.4418 41.7168 86.2352 40.7701 86.2352 39.7034C86.2352 38.6368 86.4418 37.6968 86.8552 36.8834C87.2818 36.0568 87.8552 35.4101 88.5752 34.9434C89.2952 34.4634 90.1152 34.2234 91.0352 34.2234C91.5552 34.2234 92.0285 34.3034 92.4552 34.4634C92.8952 34.6101 93.2752 34.8168 93.5952 35.0834C93.9285 35.3501 94.2085 35.6568 94.4352 36.0034C94.6618 36.3501 94.8218 36.7234 94.9152 37.1234L94.3152 37.0234V34.4434H97.1352V45.0234H94.2752V42.4834L94.9152 42.4234C94.8085 42.7968 94.6352 43.1501 94.3952 43.4834C94.1552 43.8168 93.8552 44.1168 93.4952 44.3834C93.1485 44.6368 92.7552 44.8434 92.3152 45.0034C91.8752 45.1501 91.4085 45.2234 90.9152 45.2234ZM91.6952 42.7634C92.2285 42.7634 92.6952 42.6368 93.0952 42.3834C93.4952 42.1301 93.8018 41.7768 94.0152 41.3234C94.2418 40.8568 94.3552 40.3168 94.3552 39.7034C94.3552 39.1034 94.2418 38.5768 94.0152 38.1234C93.8018 37.6701 93.4952 37.3168 93.0952 37.0634C92.6952 36.7968 92.2285 36.6634 91.6952 36.6634C91.1752 36.6634 90.7152 36.7968 90.3152 37.0634C89.9285 37.3168 89.6218 37.6701 89.3952 38.1234C89.1685 38.5768 89.0552 39.1034 89.0552 39.7034C89.0552 40.3168 89.1685 40.8568 89.3952 41.3234C89.6218 41.7768 89.9285 42.1301 90.3152 42.3834C90.7152 42.6368 91.1752 42.7634 91.6952 42.7634ZM105.083 45.2234C104.616 45.2234 104.163 45.1568 103.723 45.0234C103.283 44.8901 102.883 44.7101 102.523 44.4834C102.163 44.2434 101.863 43.9768 101.623 43.6834C101.383 43.3768 101.229 43.0634 101.163 42.7434L101.803 42.5034L101.663 44.9834H98.9825V30.2234H101.823V36.9234L101.283 36.7034C101.363 36.3834 101.516 36.0768 101.743 35.7834C101.969 35.4768 102.256 35.2101 102.603 34.9834C102.949 34.7434 103.329 34.5568 103.743 34.4234C104.156 34.2901 104.583 34.2234 105.023 34.2234C105.943 34.2234 106.763 34.4634 107.483 34.9434C108.203 35.4101 108.769 36.0568 109.183 36.8834C109.609 37.7101 109.823 38.6568 109.823 39.7234C109.823 40.7901 109.616 41.7368 109.203 42.5634C108.789 43.3901 108.223 44.0434 107.503 44.5234C106.796 44.9901 105.989 45.2234 105.083 45.2234ZM104.403 42.8034C104.936 42.8034 105.396 42.6768 105.783 42.4234C106.183 42.1568 106.496 41.7968 106.723 41.3434C106.949 40.8768 107.063 40.3368 107.063 39.7234C107.063 39.1234 106.949 38.5901 106.723 38.1234C106.509 37.6568 106.203 37.2968 105.803 37.0434C105.403 36.7901 104.936 36.6634 104.403 36.6634C103.869 36.6634 103.403 36.7901 103.003 37.0434C102.603 37.2968 102.289 37.6568 102.063 38.1234C101.836 38.5901 101.723 39.1234 101.723 39.7234C101.723 40.3368 101.836 40.8768 102.063 41.3434C102.289 41.7968 102.603 42.1568 103.003 42.4234C103.403 42.6768 103.869 42.8034 104.403 42.8034ZM114.931 45.2234C114.051 45.2234 113.257 44.9834 112.551 44.5034C111.844 44.0234 111.284 43.3701 110.871 42.5434C110.457 41.7168 110.251 40.7701 110.251 39.7034C110.251 38.6368 110.457 37.6968 110.871 36.8834C111.297 36.0568 111.871 35.4101 112.591 34.9434C113.311 34.4634 114.131 34.2234 115.051 34.2234C115.571 34.2234 116.044 34.3034 116.471 34.4634C116.911 34.6101 117.291 34.8168 117.611 35.0834C117.944 35.3501 118.224 35.6568 118.451 36.0034C118.677 36.3501 118.837 36.7234 118.931 37.1234L118.331 37.0234V34.4434H121.151V45.0234H118.291V42.4834L118.931 42.4234C118.824 42.7968 118.651 43.1501 118.411 43.4834C118.171 43.8168 117.871 44.1168 117.511 44.3834C117.164 44.6368 116.771 44.8434 116.331 45.0034C115.891 45.1501 115.424 45.2234 114.931 45.2234ZM115.711 42.7634C116.244 42.7634 116.711 42.6368 117.111 42.3834C117.511 42.1301 117.817 41.7768 118.031 41.3234C118.257 40.8568 118.371 40.3168 118.371 39.7034C118.371 39.1034 118.257 38.5768 118.031 38.1234C117.817 37.6701 117.511 37.3168 117.111 37.0634C116.711 36.7968 116.244 36.6634 115.711 36.6634C115.191 36.6634 114.731 36.7968 114.331 37.0634C113.944 37.3168 113.637 37.6701 113.411 38.1234C113.184 38.5768 113.071 39.1034 113.071 39.7034C113.071 40.3168 113.184 40.8568 113.411 41.3234C113.637 41.7768 113.944 42.1301 114.331 42.3834C114.731 42.6368 115.191 42.7634 115.711 42.7634ZM124.244 49.6234L126.564 44.1834L126.604 45.8234L121.444 34.4434H124.664L127.244 40.5434C127.35 40.7701 127.45 41.0368 127.544 41.3434C127.65 41.6368 127.737 41.9234 127.804 42.2034L127.324 42.4034C127.404 42.1768 127.497 41.9168 127.604 41.6234C127.71 41.3301 127.817 41.0168 127.924 40.6834L130.144 34.4434H133.384L128.944 45.0234L127.124 49.6234H124.244ZM137.677 45.2234C136.797 45.2234 136.004 44.9834 135.297 44.5034C134.59 44.0234 134.03 43.3701 133.617 42.5434C133.204 41.7168 132.997 40.7701 132.997 39.7034C132.997 38.6368 133.204 37.6968 133.617 36.8834C134.044 36.0568 134.617 35.4101 135.337 34.9434C136.057 34.4634 136.877 34.2234 137.797 34.2234C138.317 34.2234 138.79 34.3034 139.217 34.4634C139.657 34.6101 140.037 34.8168 140.357 35.0834C140.69 35.3501 140.97 35.6568 141.197 36.0034C141.424 36.3501 141.584 36.7234 141.677 37.1234L141.077 37.0234V34.4434H143.897V45.0234H141.037V42.4834L141.677 42.4234C141.57 42.7968 141.397 43.1501 141.157 43.4834C140.917 43.8168 140.617 44.1168 140.257 44.3834C139.91 44.6368 139.517 44.8434 139.077 45.0034C138.637 45.1501 138.17 45.2234 137.677 45.2234ZM138.457 42.7634C138.99 42.7634 139.457 42.6368 139.857 42.3834C140.257 42.1301 140.564 41.7768 140.777 41.3234C141.004 40.8568 141.117 40.3168 141.117 39.7034C141.117 39.1034 141.004 38.5768 140.777 38.1234C140.564 37.6701 140.257 37.3168 139.857 37.0634C139.457 36.7968 138.99 36.6634 138.457 36.6634C137.937 36.6634 137.477 36.7968 137.077 37.0634C136.69 37.3168 136.384 37.6701 136.157 38.1234C135.93 38.5768 135.817 39.1034 135.817 39.7034C135.817 40.3168 135.93 40.8568 136.157 41.3234C136.384 41.7768 136.69 42.1301 137.077 42.3834C137.477 42.6368 137.937 42.7634 138.457 42.7634Z" fill="white"/>
<defs>
<clipPath id="clip0_2222_980">
<rect width="40" height="45" fill="white" transform="translate(0 5.52344)"/>
</clipPath>
</defs>
</svg>
