<svg width="113" height="57" viewBox="0 0 113 57" fill="none" xmlns="http://www.w3.org/2000/svg">
<g clip-path="url(#clip0_2222_1004)">
<path fill-rule="evenodd" clip-rule="evenodd" d="M27.6158 20.8808C26.5184 18.9375 27.6237 16.6079 25.3631 13.8587C25.851 16.0257 24.3584 19.1234 24.6731 21.4988C24.9813 23.826 26.009 25.319 27.1338 27.7839C27.7445 29.1222 28.5575 31.3115 28.8699 32.7891C29.1377 34.056 29.3493 37.1926 28.7028 38.2362C28.5894 37.7886 26.8898 32.0724 21.6901 32.4894C16.6703 32.892 14.4248 38.6036 13.2463 38.8295C15.2818 40.5125 14.5131 47.4074 22.6331 47.0927C25.2516 46.9913 27.5825 45.5431 28.5635 42.5817C29.2388 42.8131 29.1413 45.0536 29.8137 46.6921C30.049 47.2656 30.9376 48.5717 31.6387 47.7681C31.6855 47.7145 31.7537 47.5687 31.7537 47.4957C30.0904 46.1424 30.3659 43.2963 29.308 41.0322C30.7791 39.8837 31.5125 37.7639 30.8556 34.6249C30.6243 33.5196 30.2287 32.5145 30.0187 31.4086C29.6023 29.8464 30.0738 27.9768 30.6075 26.0934C33.5576 15.6847 28.407 14.3245 28.695 8.02344C27.2968 9.37069 27.1927 11.9733 27.3491 14.6205C27.4345 16.0665 27.8779 17.5263 27.9506 18.8017C27.9915 19.5205 27.7936 20.3296 27.6158 20.8808Z" fill="white"/>
</g>
<path d="M49.74 27.0234V15.7234H45.66V13.0234H56.94V15.7234H52.74V27.0234H49.74ZM59.6655 27.2234C58.8921 27.2234 58.2255 27.0568 57.6655 26.7234C57.1188 26.3768 56.6921 25.8901 56.3855 25.2634C56.0921 24.6234 55.9455 23.8568 55.9455 22.9634V16.4434H58.7855V22.5034C58.7855 22.9834 58.8655 23.4034 59.0255 23.7634C59.1855 24.1101 59.4121 24.3768 59.7055 24.5634C59.9988 24.7501 60.3588 24.8434 60.7855 24.8434C61.0921 24.8434 61.3788 24.7968 61.6455 24.7034C61.9121 24.5968 62.1388 24.4501 62.3255 24.2634C62.5121 24.0768 62.6588 23.8568 62.7655 23.6034C62.8721 23.3501 62.9255 23.0768 62.9255 22.7834V16.4434H65.7655V27.0234H63.0655L62.9655 24.8434L63.4855 24.6034C63.3255 25.0968 63.0588 25.5434 62.6855 25.9434C62.3121 26.3434 61.8655 26.6568 61.3455 26.8834C60.8255 27.1101 60.2655 27.2234 59.6655 27.2234ZM67.6231 27.0234V16.4434H70.3431L70.4231 18.6034L69.8631 18.8434C70.0098 18.3634 70.2698 17.9301 70.6431 17.5434C71.0298 17.1434 71.4898 16.8234 72.0231 16.5834C72.5565 16.3434 73.1165 16.2234 73.7031 16.2234C74.5031 16.2234 75.1698 16.3834 75.7031 16.7034C76.2498 17.0234 76.6565 17.5101 76.9231 18.1634C77.2031 18.8034 77.3431 19.5968 77.3431 20.5434V27.0234H74.5031V20.7634C74.5031 20.2834 74.4365 19.8834 74.3031 19.5634C74.1698 19.2434 73.9631 19.0101 73.6831 18.8634C73.4165 18.7034 73.0831 18.6368 72.6831 18.6634C72.3631 18.6634 72.0631 18.7168 71.7831 18.8234C71.5165 18.9168 71.2831 19.0568 71.0831 19.2434C70.8965 19.4301 70.7431 19.6434 70.6231 19.8834C70.5165 20.1234 70.4631 20.3834 70.4631 20.6634V27.0234H69.0631C68.7565 27.0234 68.4831 27.0234 68.2431 27.0234C68.0031 27.0234 67.7965 27.0234 67.6231 27.0234ZM83.0245 27.2234C82.1445 27.2234 81.3512 26.9834 80.6445 26.5034C79.9379 26.0234 79.3779 25.3701 78.9645 24.5434C78.5512 23.7168 78.3445 22.7701 78.3445 21.7034C78.3445 20.6368 78.5512 19.6968 78.9645 18.8834C79.3912 18.0568 79.9645 17.4101 80.6845 16.9434C81.4045 16.4634 82.2245 16.2234 83.1445 16.2234C83.6645 16.2234 84.1379 16.3034 84.5645 16.4634C85.0045 16.6101 85.3845 16.8168 85.7045 17.0834C86.0379 17.3501 86.3179 17.6568 86.5445 18.0034C86.7712 18.3501 86.9312 18.7234 87.0245 19.1234L86.4245 19.0234V16.4434H89.2445V27.0234H86.3845V24.4834L87.0245 24.4234C86.9179 24.7968 86.7445 25.1501 86.5045 25.4834C86.2645 25.8168 85.9645 26.1168 85.6045 26.3834C85.2579 26.6368 84.8645 26.8434 84.4245 27.0034C83.9845 27.1501 83.5179 27.2234 83.0245 27.2234ZM83.8045 24.7634C84.3379 24.7634 84.8045 24.6368 85.2045 24.3834C85.6045 24.1301 85.9112 23.7768 86.1245 23.3234C86.3512 22.8568 86.4645 22.3168 86.4645 21.7034C86.4645 21.1034 86.3512 20.5768 86.1245 20.1234C85.9112 19.6701 85.6045 19.3168 85.2045 19.0634C84.8045 18.7968 84.3379 18.6634 83.8045 18.6634C83.2845 18.6634 82.8245 18.7968 82.4245 19.0634C82.0379 19.3168 81.7312 19.6701 81.5045 20.1234C81.2779 20.5768 81.1645 21.1034 81.1645 21.7034C81.1645 22.3168 81.2779 22.8568 81.5045 23.3234C81.7312 23.7768 82.0379 24.1301 82.4245 24.3834C82.8245 24.6368 83.2845 24.7634 83.8045 24.7634ZM94.6519 27.2234C93.6652 27.2234 92.7852 27.0634 92.0119 26.7434C91.2519 26.4101 90.6385 25.9568 90.1719 25.3834L91.9319 23.8634C92.3452 24.3034 92.8052 24.6234 93.3119 24.8234C93.8185 25.0101 94.3252 25.1034 94.8319 25.1034C95.0319 25.1034 95.2119 25.0834 95.3719 25.0434C95.5452 24.9901 95.6919 24.9234 95.8119 24.8434C95.9319 24.7501 96.0185 24.6434 96.0719 24.5234C96.1385 24.3901 96.1719 24.2501 96.1719 24.1034C96.1719 23.8101 96.0519 23.5768 95.8119 23.4034C95.6785 23.3368 95.4719 23.2568 95.1919 23.1634C94.9119 23.0568 94.5519 22.9434 94.1119 22.8234C93.4319 22.6501 92.8519 22.4501 92.3719 22.2234C91.9052 21.9834 91.5319 21.7168 91.2519 21.4234C91.0119 21.1434 90.8252 20.8434 90.6919 20.5234C90.5719 20.1901 90.5119 19.8234 90.5119 19.4234C90.5119 18.9434 90.6185 18.5101 90.8319 18.1234C91.0452 17.7234 91.3385 17.3834 91.7119 17.1034C92.0985 16.8234 92.5385 16.6101 93.0319 16.4634C93.5252 16.3034 94.0452 16.2234 94.5919 16.2234C95.1385 16.2234 95.6719 16.2901 96.1919 16.4234C96.7119 16.5568 97.1919 16.7501 97.6319 17.0034C98.0852 17.2434 98.4785 17.5301 98.8119 17.8634L97.2919 19.5434C97.0519 19.3168 96.7785 19.1101 96.4719 18.9234C96.1785 18.7368 95.8719 18.5901 95.5519 18.4834C95.2319 18.3768 94.9452 18.3234 94.6919 18.3234C94.4652 18.3234 94.2585 18.3434 94.0719 18.3834C93.8985 18.4234 93.7519 18.4834 93.6319 18.5634C93.5119 18.6434 93.4185 18.7501 93.3519 18.8834C93.2985 19.0034 93.2719 19.1368 93.2719 19.2834C93.2719 19.4301 93.3052 19.5701 93.3719 19.7034C93.4519 19.8368 93.5585 19.9501 93.6919 20.0434C93.8385 20.1234 94.0519 20.2168 94.3319 20.3234C94.6252 20.4301 95.0185 20.5501 95.5119 20.6834C96.1519 20.8568 96.6919 21.0501 97.1319 21.2634C97.5852 21.4768 97.9452 21.7234 98.2119 22.0034C98.4385 22.2434 98.6052 22.5168 98.7119 22.8234C98.8185 23.1301 98.8719 23.4701 98.8719 23.8434C98.8719 24.4968 98.6852 25.0834 98.3119 25.6034C97.9519 26.1101 97.4519 26.5101 96.8119 26.8034C96.1719 27.0834 95.4519 27.2234 94.6519 27.2234ZM104.649 22.6034V19.9634H111.189V22.6034H104.649ZM49.08 40.8834L48.44 38.1634L55.52 31.0234H59.16L49.08 40.8834ZM46.82 45.0234V31.0234H49.82V45.0234H46.82ZM55.9 45.0234L50.66 38.0634L52.72 36.2834L59.46 45.0234H55.9ZM64.2877 45.2234C63.141 45.2234 62.141 44.9901 61.2877 44.5234C60.4343 44.0568 59.7677 43.4168 59.2877 42.6034C58.8077 41.7901 58.5677 40.8568 58.5677 39.8034C58.5677 38.9901 58.701 38.2434 58.9677 37.5634C59.2343 36.8834 59.6077 36.2968 60.0877 35.8034C60.5677 35.2968 61.1343 34.9101 61.7877 34.6434C62.4543 34.3634 63.1743 34.2234 63.9477 34.2234C64.6677 34.2234 65.3343 34.3568 65.9477 34.6234C66.561 34.8768 67.0877 35.2434 67.5277 35.7234C67.981 36.1901 68.3277 36.7434 68.5677 37.3834C68.8077 38.0234 68.9143 38.7234 68.8877 39.4834L68.8677 40.3634H60.3677L59.9077 38.6234H66.5277L66.2077 38.9834V38.5434C66.181 38.1834 66.061 37.8568 65.8477 37.5634C65.6477 37.2701 65.3877 37.0434 65.0677 36.8834C64.7477 36.7234 64.3877 36.6434 63.9877 36.6434C63.401 36.6434 62.901 36.7568 62.4877 36.9834C62.0877 37.2101 61.781 37.5434 61.5677 37.9834C61.3543 38.4234 61.2477 38.9568 61.2477 39.5834C61.2477 40.2234 61.381 40.7768 61.6477 41.2434C61.9277 41.7101 62.3143 42.0768 62.8077 42.3434C63.3143 42.5968 63.9077 42.7234 64.5877 42.7234C65.0543 42.7234 65.481 42.6501 65.8677 42.5034C66.2543 42.3568 66.6677 42.1034 67.1077 41.7434L68.4677 43.6434C68.081 43.9901 67.6543 44.2834 67.1877 44.5234C66.721 44.7501 66.241 44.9234 65.7477 45.0434C65.2543 45.1634 64.7677 45.2234 64.2877 45.2234ZM70.0064 45.0234V30.2234H72.8464V45.0234H70.0064ZM78.4933 45.2234C77.6133 45.2234 76.8199 44.9834 76.1133 44.5034C75.4066 44.0234 74.8466 43.3701 74.4333 42.5434C74.0199 41.7168 73.8133 40.7701 73.8133 39.7034C73.8133 38.6368 74.0199 37.6968 74.4333 36.8834C74.8599 36.0568 75.4333 35.4101 76.1533 34.9434C76.8733 34.4634 77.6933 34.2234 78.6133 34.2234C79.1333 34.2234 79.6066 34.3034 80.0333 34.4634C80.4733 34.6101 80.8533 34.8168 81.1733 35.0834C81.5066 35.3501 81.7866 35.6568 82.0133 36.0034C82.2399 36.3501 82.3999 36.7234 82.4933 37.1234L81.8933 37.0234V34.4434H84.7133V45.0234H81.8533V42.4834L82.4933 42.4234C82.3866 42.7968 82.2133 43.1501 81.9733 43.4834C81.7333 43.8168 81.4333 44.1168 81.0733 44.3834C80.7266 44.6368 80.3333 44.8434 79.8933 45.0034C79.4533 45.1501 78.9866 45.2234 78.4933 45.2234ZM79.2733 42.7634C79.8066 42.7634 80.2733 42.6368 80.6733 42.3834C81.0733 42.1301 81.3799 41.7768 81.5933 41.3234C81.8199 40.8568 81.9333 40.3168 81.9333 39.7034C81.9333 39.1034 81.8199 38.5768 81.5933 38.1234C81.3799 37.6701 81.0733 37.3168 80.6733 37.0634C80.2733 36.7968 79.8066 36.6634 79.2733 36.6634C78.7533 36.6634 78.2933 36.7968 77.8933 37.0634C77.5066 37.3168 77.1999 37.6701 76.9733 38.1234C76.7466 38.5768 76.6333 39.1034 76.6333 39.7034C76.6333 40.3168 76.7466 40.8568 76.9733 41.3234C77.1999 41.7768 77.5066 42.1301 77.8933 42.3834C78.2933 42.6368 78.7533 42.7634 79.2733 42.7634ZM86.5606 49.4234V34.4434H89.3006L89.3806 36.8234L88.8606 36.6434C88.954 36.2168 89.1806 35.8234 89.5406 35.4634C89.914 35.1034 90.374 34.8101 90.9206 34.5834C91.4673 34.3568 92.0406 34.2434 92.6406 34.2434C93.5606 34.2434 94.374 34.4834 95.0806 34.9634C95.8006 35.4301 96.3673 36.0768 96.7806 36.9034C97.2073 37.7168 97.4206 38.6568 97.4206 39.7234C97.4206 40.7768 97.214 41.7168 96.8006 42.5434C96.3873 43.3701 95.8206 44.0234 95.1006 44.5034C94.3806 44.9701 93.5606 45.2034 92.6406 45.2034C92.0273 45.2034 91.4406 45.0901 90.8806 44.8634C90.334 44.6234 89.8673 44.3101 89.4806 43.9234C89.094 43.5368 88.854 43.1234 88.7606 42.6834L89.4206 42.4034V49.4234H86.5606ZM92.0006 42.7634C92.5206 42.7634 92.9806 42.6368 93.3806 42.3834C93.7806 42.1301 94.094 41.7768 94.3206 41.3234C94.5473 40.8568 94.6606 40.3234 94.6606 39.7234C94.6606 39.1234 94.5473 38.5968 94.3206 38.1434C94.094 37.6901 93.7806 37.3368 93.3806 37.0834C92.994 36.8301 92.534 36.7034 92.0006 36.7034C91.4673 36.7034 91.0006 36.8301 90.6006 37.0834C90.2006 37.3234 89.8873 37.6768 89.6606 38.1434C89.434 38.5968 89.3206 39.1234 89.3206 39.7234C89.3206 40.3234 89.434 40.8568 89.6606 41.3234C89.8873 41.7768 90.2006 42.1301 90.6006 42.3834C91.0006 42.6368 91.4673 42.7634 92.0006 42.7634ZM102.528 45.2234C101.648 45.2234 100.855 44.9834 100.148 44.5034C99.4418 44.0234 98.8818 43.3701 98.4684 42.5434C98.0551 41.7168 97.8484 40.7701 97.8484 39.7034C97.8484 38.6368 98.0551 37.6968 98.4684 36.8834C98.8951 36.0568 99.4684 35.4101 100.188 34.9434C100.908 34.4634 101.728 34.2234 102.648 34.2234C103.168 34.2234 103.642 34.3034 104.068 34.4634C104.508 34.6101 104.888 34.8168 105.208 35.0834C105.542 35.3501 105.822 35.6568 106.048 36.0034C106.275 36.3501 106.435 36.7234 106.528 37.1234L105.928 37.0234V34.4434H108.748V45.0234H105.888V42.4834L106.528 42.4234C106.422 42.7968 106.248 43.1501 106.008 43.4834C105.768 43.8168 105.468 44.1168 105.108 44.3834C104.762 44.6368 104.368 44.8434 103.928 45.0034C103.488 45.1501 103.022 45.2234 102.528 45.2234ZM103.308 42.7634C103.842 42.7634 104.308 42.6368 104.708 42.3834C105.108 42.1301 105.415 41.7768 105.628 41.3234C105.855 40.8568 105.968 40.3168 105.968 39.7034C105.968 39.1034 105.855 38.5768 105.628 38.1234C105.415 37.6701 105.108 37.3168 104.708 37.0634C104.308 36.7968 103.842 36.6634 103.308 36.6634C102.788 36.6634 102.328 36.7968 101.928 37.0634C101.542 37.3168 101.235 37.6701 101.008 38.1234C100.782 38.5768 100.668 39.1034 100.668 39.7034C100.668 40.3168 100.782 40.8568 101.008 41.3234C101.235 41.7768 101.542 42.1301 101.928 42.3834C102.328 42.6368 102.788 42.7634 103.308 42.7634Z" fill="white"/>
<defs>
<clipPath id="clip0_2222_1004">
<rect width="45" height="40" fill="white" transform="translate(0 8.02344)"/>
</clipPath>
</defs>
</svg>
