<svg width="118" height="57" viewBox="0 0 118 57" fill="none" xmlns="http://www.w3.org/2000/svg">
<rect y="8.02344" width="40" height="40" rx="20" fill="white"/>
<path d="M19.5678 42.8795C18.4341 42.2952 17.3951 41.3894 16.4964 40.2014C16.0902 39.6645 15.9249 39.3669 15.9528 39.222C15.9528 39.1762 16.102 38.9052 16.2638 38.6202C16.8757 37.5451 17.1978 36.7749 17.4773 35.7194C17.6044 35.2402 17.6819 35.021 17.7503 34.9426C17.791 34.8961 17.8265 34.8939 18.2751 34.9081C18.7871 34.9258 19.4658 35.0116 19.5583 35.0715C19.626 35.1159 19.6295 35.1499 19.7042 36.4329C19.8058 38.236 19.8517 38.8246 19.9208 39.0136C19.9526 39.107 20.0106 39.1239 20.0479 39.0517C20.0838 38.9796 20.0984 38.7972 20.1989 37.1337C20.309 35.2866 20.326 35.1149 20.3975 35.0557C20.4617 35.0014 20.6349 34.9852 21.5173 34.9513C22.0836 34.9309 22.2288 34.9309 22.254 34.9584C22.2823 34.9789 22.3371 35.2076 22.3998 35.4708C22.6966 36.7163 23.2114 37.9429 23.8501 38.9233L24.0399 39.2132L23.9093 39.4546C23.6276 39.9794 23.3012 40.427 22.8135 40.9602C22.3153 41.5044 21.6555 42.0724 21.0834 42.4496C20.8133 42.6284 20.0846 42.9976 19.9572 43.0211C19.8909 43.0323 19.8148 43.0063 19.5705 42.8792L19.5678 42.8795ZM13.4071 39.1375C12.8963 39.0331 12.4894 38.8042 12.0867 38.3943C11.7267 38.0281 11.4842 37.6083 11.3712 37.1545C11.3153 36.929 11.2847 36.6123 11.3166 36.592C11.345 36.5836 11.5156 36.6245 11.7271 36.6834C12.3837 36.8652 12.9028 36.8546 13.3987 36.6489C14.0455 36.3809 14.5329 35.8114 14.7932 35.0187C14.927 34.6088 14.9771 34.565 15.2871 34.5937C15.8203 34.643 16.972 34.825 17.0645 34.8744C17.1748 34.9322 17.115 35.2726 16.8687 36.0132C16.6048 36.8094 16.39 37.2698 16.0518 37.7559C15.7207 38.2316 15.2921 38.6821 14.981 38.8821C14.5899 39.1336 13.9185 39.2422 13.4048 39.1371L13.4071 39.1375ZM25.6703 39.1261C25.1465 39.0309 24.7486 38.7811 24.2728 38.2485C23.7198 37.6291 23.3326 36.8744 23.0054 35.777C22.9155 35.4827 22.8951 35.3651 22.8833 35.1221L22.8529 34.826L22.9309 34.8105C23.0343 34.79 24.1442 34.6423 24.4544 34.608C24.7364 34.577 24.8883 34.5997 24.9829 34.6884C25.0188 34.7209 25.0846 34.8504 25.1287 34.9763C25.4578 35.8866 26.0521 36.4843 26.8552 36.7125C27.1792 36.8047 27.621 36.7948 28.0862 36.6857C28.5316 36.5805 28.5901 36.579 28.6132 36.6709C28.676 36.9177 28.4673 37.4756 28.1159 38.0099C27.7531 38.5603 27.275 38.8979 26.6226 39.0645C26.3409 39.1361 25.8695 39.167 25.6534 39.128L25.6703 39.1261ZM18.8231 34.3799C17.725 34.3291 17.1352 34.2774 16.2884 34.1559C15.2536 34.0075 14.561 33.8367 14.1456 33.6272C13.8484 33.4774 13.7934 33.4121 13.8193 33.2393C13.9057 32.6677 15.2523 32.3158 17.9559 32.1586C18.6866 32.1163 21.3277 32.1163 22.0778 32.1586C24.2084 32.2801 25.4438 32.5244 25.9356 32.9222C26.1404 33.088 26.1967 33.341 26.0593 33.4705C25.8966 33.6222 25.515 33.7791 24.9679 33.9185C24.2626 34.0982 23.2545 34.2383 22.0111 34.3296C21.4871 34.3677 19.3147 34.402 18.8231 34.3796V34.3799ZM21.7442 33.6514C23.1637 33.5921 24.5312 33.4577 24.8856 33.3428C25.0366 33.2934 25.0874 33.2266 25.0163 33.1634C24.7164 32.8929 21.5295 32.7183 18.4098 32.8011C17.089 32.8364 16.1938 32.9024 15.4889 33.0177C14.8457 33.1229 14.7011 33.2432 15.0934 33.3477C15.566 33.4737 16.6931 33.5892 18.0364 33.6497C18.7226 33.6807 21.0204 33.6814 21.7443 33.6497L21.7442 33.6514ZM8.92545 32.1983C7.66 32.0655 6.52367 31.3496 5.77016 30.2102C5.32953 29.5444 5.10403 28.9067 5.03196 28.124C4.88952 26.5924 5.22181 25.3504 6.05731 24.2838C6.2797 23.9984 6.86616 23.4376 7.15183 23.2353C7.73056 22.8255 8.28068 22.6013 9.01885 22.4743C9.34872 22.4172 10.2826 22.4095 10.6596 22.4596C11.3008 22.5455 11.7387 22.6774 12.2561 22.9407C13.6719 23.6608 14.9195 25.0505 15.847 26.941C16.3781 28.0232 16.7421 29.1139 16.9786 30.3293C17.1007 30.947 17.1566 31.6033 17.0939 31.6417C17.0939 31.6501 16.9218 31.6742 16.7406 31.6974C16.5597 31.7207 16.0623 31.7885 15.6394 31.8484C14.8811 31.9557 14.8688 31.9566 14.8035 31.9076C14.7627 31.8752 14.6458 31.6585 14.4751 31.2865C14.0844 30.4352 13.8957 30.121 13.5499 29.7468C13.2155 29.3848 12.7206 29.0749 12.2854 28.9554C12.0481 28.8905 11.5096 28.8919 11.2903 28.9625C10.7321 29.1324 10.3009 29.4866 9.95726 30.0578C9.7377 30.4245 9.69024 30.6404 9.64548 31.4628C9.613 32.0782 9.59781 32.1511 9.47932 32.1915C9.40306 32.2175 9.13162 32.2239 8.92446 32.1999L8.92545 32.1983ZM30.4613 32.1496C30.3629 32.0819 30.3392 31.9409 30.2951 31.1627C30.2474 30.3633 30.1357 30.0763 29.6887 29.6095C29.3656 29.2725 29.0849 29.0924 28.6938 28.9714C28.4119 28.8845 27.9441 28.8834 27.6463 28.9714C27.1132 29.1242 26.5942 29.4934 26.2032 29.998C25.8858 30.4075 25.7375 30.6777 25.4934 31.2905C25.3185 31.7296 25.262 31.8281 25.1454 31.8878C25.0301 31.9477 24.8961 31.9378 23.9005 31.7943C23.3943 31.7214 22.9706 31.6614 22.9587 31.6614C22.9111 31.6614 22.9083 31.5578 22.9283 31.095C22.9726 30.2564 23.1806 29.3558 23.5861 28.2358C24.0674 26.9075 24.6383 25.8633 25.4329 24.8582C25.7236 24.4921 26.4647 23.765 26.8107 23.5091C27.5329 22.9749 28.3411 22.6076 29.0783 22.4786C29.8102 22.3506 31.0324 22.4335 31.6714 22.6545C33.1879 23.1791 34.3936 24.5186 34.8389 26.1736C34.9881 26.728 35 26.8269 35 27.4891C35 28.0664 35 28.1397 34.9254 28.4591C34.7863 29.1115 34.551 29.6888 34.2137 30.1997C33.9853 30.5474 33.79 30.7779 33.4616 31.0928C33.0094 31.5263 32.4436 31.865 31.9197 32.016C31.3775 32.1719 30.5931 32.2453 30.4595 32.1518L30.4613 32.1496ZM17.6974 31.5437C17.6497 31.4958 17.6332 31.407 17.6075 31.0741C17.5364 30.0895 17.0288 28.5085 16.0881 26.3439C15.9509 26.0296 15.7235 25.5094 15.5814 25.1879C14.9169 23.6855 14.7009 23.0815 14.5276 22.2414C14.4005 21.6203 14.3555 20.7587 14.4208 20.1917C14.6136 18.5554 15.4031 17.0575 16.7442 15.7822C16.9251 15.6102 17.3195 15.27 17.6197 15.0267C18.4418 14.3606 18.9428 13.9422 19.4832 13.47C19.7533 13.235 19.9871 13.0345 20.0054 13.0242C20.0338 13.0128 20.1648 13.125 20.3843 13.3298C20.9063 13.8202 21.3163 14.1765 22.1959 14.9037C23.6967 16.1446 24.3751 16.9165 24.9051 17.9859C25.2448 18.6717 25.4667 19.4234 25.5572 20.1956C25.6674 21.1301 25.5289 22.0876 25.1554 23.2881C24.9181 24.0291 24.6439 24.7058 23.7989 26.6579C22.9644 28.5857 22.6128 29.6658 22.3834 31.0078C22.3448 31.2271 22.3037 31.4393 22.2851 31.4795L22.2547 31.5524H21.8912C21.4998 31.5524 20.4261 31.4882 20.4033 31.4656C20.4033 31.4572 20.3729 30.7481 20.3646 29.8882C20.31 26.3427 20.2272 23.0088 20.1391 20.7774C20.0886 19.5422 20.0727 19.3142 20.0289 19.2561C19.9964 19.2131 19.993 19.2159 19.966 19.2857C19.9377 19.328 19.9183 19.5132 19.8983 19.6976C19.8119 20.4523 19.7678 21.8226 19.7113 25.4541C19.6215 31.0575 19.6096 31.434 19.5393 31.4719C19.4771 31.5051 18.9153 31.5488 18.282 31.5694C17.7959 31.5841 17.7294 31.5841 17.691 31.5433L17.6974 31.5437Z" fill="#2D2825"/>
<path d="M59.48 36.0234L55.22 22.0234H58.3L60.58 29.8434C60.6733 30.1234 60.7533 30.4301 60.82 30.7634C60.9 31.0834 60.96 31.3968 61 31.7034C61.0533 31.9968 61.0933 32.2768 61.12 32.5434C61.16 32.7968 61.1933 33.0101 61.22 33.1834L60.74 33.1634C60.86 32.6034 60.96 32.1368 61.04 31.7634C61.12 31.3768 61.1933 31.0368 61.26 30.7434C61.34 30.4368 61.4333 30.1301 61.54 29.8234L63.74 24.0434H66.22L68.38 29.8234C68.54 30.2234 68.6667 30.6101 68.76 30.9834C68.8667 31.3434 68.9533 31.6968 69.02 32.0434C69.0867 32.3768 69.1533 32.7168 69.22 33.0634L68.78 33.1434C68.82 32.8634 68.8467 32.6234 68.86 32.4234C68.8867 32.2101 68.9067 32.0168 68.92 31.8434C68.9467 31.6701 68.9733 31.4968 69 31.3234C69.0267 31.1368 69.0667 30.9234 69.12 30.6834C69.1733 30.4301 69.2533 30.1368 69.36 29.8034L71.62 22.0234H74.66L70.36 36.0234H68.14L64.68 27.7434L65 27.7834L61.78 36.0234H59.48ZM81.8052 36.2234C80.7785 36.2234 79.8318 36.0434 78.9652 35.6834C78.0985 35.3234 77.3385 34.8234 76.6852 34.1834C76.0452 33.5301 75.5518 32.7634 75.2052 31.8834C74.8585 30.9901 74.6852 30.0234 74.6852 28.9834C74.6852 27.9301 74.8585 26.9701 75.2052 26.1034C75.5518 25.2234 76.0452 24.4568 76.6852 23.8034C77.3385 23.1501 78.0985 22.6434 78.9652 22.2834C79.8318 21.9234 80.7785 21.7434 81.8052 21.7434C82.8452 21.7434 83.7918 21.9234 84.6452 22.2834C85.5118 22.6434 86.2652 23.1501 86.9052 23.8034C87.5585 24.4568 88.0585 25.2234 88.4052 26.1034C88.7518 26.9834 88.9252 27.9434 88.9252 28.9834C88.9252 30.0234 88.7518 30.9834 88.4052 31.8634C88.0585 32.7434 87.5585 33.5101 86.9052 34.1634C86.2652 34.8168 85.5118 35.3234 84.6452 35.6834C83.7918 36.0434 82.8452 36.2234 81.8052 36.2234ZM81.8052 33.3834C82.3918 33.3834 82.9318 33.2768 83.4252 33.0634C83.9318 32.8501 84.3652 32.5434 84.7252 32.1434C85.0852 31.7434 85.3652 31.2768 85.5652 30.7434C85.7785 30.2101 85.8852 29.6234 85.8852 28.9834C85.8852 28.3434 85.7785 27.7568 85.5652 27.2234C85.3652 26.6901 85.0852 26.2301 84.7252 25.8434C84.3652 25.4434 83.9318 25.1368 83.4252 24.9234C82.9318 24.6968 82.3918 24.5834 81.8052 24.5834C81.2185 24.5834 80.6785 24.6968 80.1852 24.9234C79.6918 25.1368 79.2585 25.4434 78.8852 25.8434C78.5118 26.2301 78.2252 26.6901 78.0252 27.2234C77.8385 27.7568 77.7452 28.3434 77.7452 28.9834C77.7452 29.6234 77.8385 30.2101 78.0252 30.7434C78.2252 31.2768 78.5118 31.7434 78.8852 32.1434C79.2585 32.5434 79.6918 32.8501 80.1852 33.0634C80.6785 33.2768 81.2185 33.3834 81.8052 33.3834ZM95.1803 36.2234C94.3136 36.2234 93.5203 36.1168 92.8003 35.9034C92.0936 35.6901 91.4603 35.3768 90.9003 34.9634C90.3536 34.5501 89.8603 34.0501 89.4203 33.4634L91.3003 31.3234C91.9536 32.2301 92.6003 32.8501 93.2403 33.1834C93.8936 33.5034 94.6003 33.6634 95.3603 33.6634C95.7736 33.6634 96.1403 33.6101 96.4603 33.5034C96.7936 33.3834 97.0536 33.2168 97.2403 33.0034C97.427 32.7901 97.5203 32.5368 97.5203 32.2434C97.5203 32.0301 97.4736 31.8368 97.3803 31.6634C97.287 31.4768 97.1536 31.3168 96.9803 31.1834C96.807 31.0368 96.6003 30.9101 96.3603 30.8034C96.1203 30.6834 95.8536 30.5834 95.5603 30.5034C95.267 30.4101 94.947 30.3368 94.6003 30.2834C93.8536 30.1101 93.2003 29.9034 92.6403 29.6634C92.0803 29.4101 91.6136 29.1034 91.2403 28.7434C90.867 28.3701 90.587 27.9501 90.4003 27.4834C90.227 27.0168 90.1403 26.4901 90.1403 25.9034C90.1403 25.3034 90.2736 24.7501 90.5403 24.2434C90.807 23.7234 91.1736 23.2768 91.6403 22.9034C92.1203 22.5301 92.667 22.2434 93.2803 22.0434C93.907 21.8434 94.567 21.7434 95.2603 21.7434C96.1136 21.7434 96.8603 21.8434 97.5003 22.0434C98.1403 22.2301 98.6936 22.5034 99.1603 22.8634C99.6403 23.2234 100.04 23.6634 100.36 24.1834L98.4603 26.0234C98.1803 25.6501 97.8736 25.3368 97.5403 25.0834C97.2203 24.8301 96.867 24.6434 96.4803 24.5234C96.107 24.3901 95.7203 24.3234 95.3203 24.3234C94.8803 24.3234 94.5003 24.3834 94.1803 24.5034C93.8603 24.6101 93.607 24.7701 93.4203 24.9834C93.247 25.1968 93.1603 25.4568 93.1603 25.7634C93.1603 26.0034 93.2203 26.2168 93.3403 26.4034C93.4603 26.5901 93.6336 26.7568 93.8603 26.9034C94.087 27.0368 94.3603 27.1568 94.6803 27.2634C95.0003 27.3701 95.3536 27.4634 95.7403 27.5434C96.4736 27.6901 97.1336 27.8834 97.7203 28.1234C98.307 28.3634 98.807 28.6568 99.2203 29.0034C99.647 29.3368 99.9736 29.7368 100.2 30.2034C100.427 30.6568 100.54 31.1701 100.54 31.7434C100.54 32.6901 100.314 33.4968 99.8603 34.1634C99.407 34.8301 98.7803 35.3434 97.9803 35.7034C97.1803 36.0501 96.247 36.2234 95.1803 36.2234ZM102.258 36.0234V22.0234H104.998L110.098 30.3234L108.298 30.3034L113.458 22.0234H116.078V36.0234H113.138V31.2234C113.138 30.0234 113.164 28.9434 113.218 27.9834C113.284 27.0234 113.391 26.0701 113.538 25.1234L113.898 26.0634L109.798 32.4234H108.478L104.458 26.1034L104.798 25.1234C104.944 26.0168 105.044 26.9368 105.098 27.8834C105.164 28.8168 105.198 29.9301 105.198 31.2234V36.0234H102.258Z" fill="white"/>
</svg>
